<?xml version="1.0" encoding="utf-8" standalone="no"?>
<!DOCTYPE svg PUBLIC "-//W3C//DTD SVG 1.1//EN"
  "http://www.w3.org/Graphics/SVG/1.1/DTD/svg11.dtd">
<svg xmlns:xlink="http://www.w3.org/1999/xlink" width="576pt" height="432pt" viewBox="0 0 576 432" xmlns="http://www.w3.org/2000/svg" version="1.1">
 <metadata>
  <rdf:RDF xmlns:dc="http://purl.org/dc/elements/1.1/" xmlns:cc="http://creativecommons.org/ns#" xmlns:rdf="http://www.w3.org/1999/02/22-rdf-syntax-ns#">
   <cc:Work>
    <dc:type rdf:resource="http://purl.org/dc/dcmitype/StillImage"/>
    <dc:date>2024-07-02T18:18:42.809116</dc:date>
    <dc:format>image/svg+xml</dc:format>
    <dc:creator>
     <cc:Agent>
      <dc:title>Matplotlib v3.9.0, https://matplotlib.org/</dc:title>
     </cc:Agent>
    </dc:creator>
   </cc:Work>
  </rdf:RDF>
 </metadata>
 <defs>
  <style type="text/css">*{stroke-linejoin: round; stroke-linecap: butt}</style>
 </defs>
 <g id="figure_1">
  <g id="patch_1">
   <path d="M 0 432 
L 576 432 
L 576 0 
L 0 0 
z
" style="fill: #ffffff"/>
  </g>
  <g id="axes_1">
   <g id="patch_2">
    <path d="M 52.368 387.012 
L 560.052 387.012 
L 560.052 10.368 
L 52.368 10.368 
z
" style="fill: #ffffff"/>
   </g>
   <g id="matplotlib.axis_1">
    <g id="xtick_1">
     <g id="line2d_1">
      <path d="M 52.368 387.012 
L 52.368 10.368 
" clip-path="url(#p168247cb44)" style="fill: none; stroke: #cccccc; stroke-width: 0.8; stroke-linecap: round"/>
     </g>
     <g id="text_1">
      <!-- 0 -->
      <g style="fill: #262626" transform="translate(49.5685 401.998625) scale(0.088 -0.088)">
       <defs>
        <path id="DejaVuSans-30" d="M 2034 4250 
Q 1547 4250 1301 3770 
Q 1056 3291 1056 2328 
Q 1056 1369 1301 889 
Q 1547 409 2034 409 
Q 2525 409 2770 889 
Q 3016 1369 3016 2328 
Q 3016 3291 2770 3770 
Q 2525 4250 2034 4250 
z
M 2034 4750 
Q 2819 4750 3233 4129 
Q 3647 3509 3647 2328 
Q 3647 1150 3233 529 
Q 2819 -91 2034 -91 
Q 1250 -91 836 529 
Q 422 1150 422 2328 
Q 422 3509 836 4129 
Q 1250 4750 2034 4750 
z
" transform="scale(0.015625)"/>
       </defs>
       <use xlink:href="#DejaVuSans-30"/>
      </g>
     </g>
    </g>
    <g id="xtick_2">
     <g id="line2d_2">
      <path d="M 136.982 387.012 
L 136.982 10.368 
" clip-path="url(#p168247cb44)" style="fill: none; stroke: #cccccc; stroke-width: 0.8; stroke-linecap: round"/>
     </g>
     <g id="text_2">
      <!-- 10 -->
      <g style="fill: #262626" transform="translate(131.383 401.998625) scale(0.088 -0.088)">
       <defs>
        <path id="DejaVuSans-31" d="M 794 531 
L 1825 531 
L 1825 4091 
L 703 3866 
L 703 4441 
L 1819 4666 
L 2450 4666 
L 2450 531 
L 3481 531 
L 3481 0 
L 794 0 
L 794 531 
z
" transform="scale(0.015625)"/>
       </defs>
       <use xlink:href="#DejaVuSans-31"/>
       <use xlink:href="#DejaVuSans-30" x="63.623047"/>
      </g>
     </g>
    </g>
    <g id="xtick_3">
     <g id="line2d_3">
      <path d="M 221.596 387.012 
L 221.596 10.368 
" clip-path="url(#p168247cb44)" style="fill: none; stroke: #cccccc; stroke-width: 0.8; stroke-linecap: round"/>
     </g>
     <g id="text_3">
      <!-- 20 -->
      <g style="fill: #262626" transform="translate(215.997 401.998625) scale(0.088 -0.088)">
       <defs>
        <path id="DejaVuSans-32" d="M 1228 531 
L 3431 531 
L 3431 0 
L 469 0 
L 469 531 
Q 828 903 1448 1529 
Q 2069 2156 2228 2338 
Q 2531 2678 2651 2914 
Q 2772 3150 2772 3378 
Q 2772 3750 2511 3984 
Q 2250 4219 1831 4219 
Q 1534 4219 1204 4116 
Q 875 4013 500 3803 
L 500 4441 
Q 881 4594 1212 4672 
Q 1544 4750 1819 4750 
Q 2544 4750 2975 4387 
Q 3406 4025 3406 3419 
Q 3406 3131 3298 2873 
Q 3191 2616 2906 2266 
Q 2828 2175 2409 1742 
Q 1991 1309 1228 531 
z
" transform="scale(0.015625)"/>
       </defs>
       <use xlink:href="#DejaVuSans-32"/>
       <use xlink:href="#DejaVuSans-30" x="63.623047"/>
      </g>
     </g>
    </g>
    <g id="xtick_4">
     <g id="line2d_4">
      <path d="M 306.21 387.012 
L 306.21 10.368 
" clip-path="url(#p168247cb44)" style="fill: none; stroke: #cccccc; stroke-width: 0.8; stroke-linecap: round"/>
     </g>
     <g id="text_4">
      <!-- 30 -->
      <g style="fill: #262626" transform="translate(300.611 401.998625) scale(0.088 -0.088)">
       <defs>
        <path id="DejaVuSans-33" d="M 2597 2516 
Q 3050 2419 3304 2112 
Q 3559 1806 3559 1356 
Q 3559 666 3084 287 
Q 2609 -91 1734 -91 
Q 1441 -91 1130 -33 
Q 819 25 488 141 
L 488 750 
Q 750 597 1062 519 
Q 1375 441 1716 441 
Q 2309 441 2620 675 
Q 2931 909 2931 1356 
Q 2931 1769 2642 2001 
Q 2353 2234 1838 2234 
L 1294 2234 
L 1294 2753 
L 1863 2753 
Q 2328 2753 2575 2939 
Q 2822 3125 2822 3475 
Q 2822 3834 2567 4026 
Q 2313 4219 1838 4219 
Q 1578 4219 1281 4162 
Q 984 4106 628 3988 
L 628 4550 
Q 988 4650 1302 4700 
Q 1616 4750 1894 4750 
Q 2613 4750 3031 4423 
Q 3450 4097 3450 3541 
Q 3450 3153 3228 2886 
Q 3006 2619 2597 2516 
z
" transform="scale(0.015625)"/>
       </defs>
       <use xlink:href="#DejaVuSans-33"/>
       <use xlink:href="#DejaVuSans-30" x="63.623047"/>
      </g>
     </g>
    </g>
    <g id="xtick_5">
     <g id="line2d_5">
      <path d="M 390.824 387.012 
L 390.824 10.368 
" clip-path="url(#p168247cb44)" style="fill: none; stroke: #cccccc; stroke-width: 0.8; stroke-linecap: round"/>
     </g>
     <g id="text_5">
      <!-- 40 -->
      <g style="fill: #262626" transform="translate(385.225 401.998625) scale(0.088 -0.088)">
       <defs>
        <path id="DejaVuSans-34" d="M 2419 4116 
L 825 1625 
L 2419 1625 
L 2419 4116 
z
M 2253 4666 
L 3047 4666 
L 3047 1625 
L 3713 1625 
L 3713 1100 
L 3047 1100 
L 3047 0 
L 2419 0 
L 2419 1100 
L 313 1100 
L 313 1709 
L 2253 4666 
z
" transform="scale(0.015625)"/>
       </defs>
       <use xlink:href="#DejaVuSans-34"/>
       <use xlink:href="#DejaVuSans-30" x="63.623047"/>
      </g>
     </g>
    </g>
    <g id="xtick_6">
     <g id="line2d_6">
      <path d="M 475.438 387.012 
L 475.438 10.368 
" clip-path="url(#p168247cb44)" style="fill: none; stroke: #cccccc; stroke-width: 0.8; stroke-linecap: round"/>
     </g>
     <g id="text_6">
      <!-- 50 -->
      <g style="fill: #262626" transform="translate(469.839 401.998625) scale(0.088 -0.088)">
       <defs>
        <path id="DejaVuSans-35" d="M 691 4666 
L 3169 4666 
L 3169 4134 
L 1269 4134 
L 1269 2991 
Q 1406 3038 1543 3061 
Q 1681 3084 1819 3084 
Q 2600 3084 3056 2656 
Q 3513 2228 3513 1497 
Q 3513 744 3044 326 
Q 2575 -91 1722 -91 
Q 1428 -91 1123 -41 
Q 819 9 494 109 
L 494 744 
Q 775 591 1075 516 
Q 1375 441 1709 441 
Q 2250 441 2565 725 
Q 2881 1009 2881 1497 
Q 2881 1984 2565 2268 
Q 2250 2553 1709 2553 
Q 1456 2553 1204 2497 
Q 953 2441 691 2322 
L 691 4666 
z
" transform="scale(0.015625)"/>
       </defs>
       <use xlink:href="#DejaVuSans-35"/>
       <use xlink:href="#DejaVuSans-30" x="63.623047"/>
      </g>
     </g>
    </g>
    <g id="xtick_7">
     <g id="line2d_7">
      <path d="M 560.052 387.012 
L 560.052 10.368 
" clip-path="url(#p168247cb44)" style="fill: none; stroke: #cccccc; stroke-width: 0.8; stroke-linecap: round"/>
     </g>
     <g id="text_7">
      <!-- 60 -->
      <g style="fill: #262626" transform="translate(554.453 401.998625) scale(0.088 -0.088)">
       <defs>
        <path id="DejaVuSans-36" d="M 2113 2584 
Q 1688 2584 1439 2293 
Q 1191 2003 1191 1497 
Q 1191 994 1439 701 
Q 1688 409 2113 409 
Q 2538 409 2786 701 
Q 3034 994 3034 1497 
Q 3034 2003 2786 2293 
Q 2538 2584 2113 2584 
z
M 3366 4563 
L 3366 3988 
Q 3128 4100 2886 4159 
Q 2644 4219 2406 4219 
Q 1781 4219 1451 3797 
Q 1122 3375 1075 2522 
Q 1259 2794 1537 2939 
Q 1816 3084 2150 3084 
Q 2853 3084 3261 2657 
Q 3669 2231 3669 1497 
Q 3669 778 3244 343 
Q 2819 -91 2113 -91 
Q 1303 -91 875 529 
Q 447 1150 447 2328 
Q 447 3434 972 4092 
Q 1497 4750 2381 4750 
Q 2619 4750 2861 4703 
Q 3103 4656 3366 4563 
z
" transform="scale(0.015625)"/>
       </defs>
       <use xlink:href="#DejaVuSans-36"/>
       <use xlink:href="#DejaVuSans-30" x="63.623047"/>
      </g>
     </g>
    </g>
    <g id="text_8">
     <!-- Time (seconds) -->
     <g style="fill: #262626" transform="translate(260.415938 416.946875) scale(0.12 -0.12)">
      <defs>
       <path id="DejaVuSans-54" d="M -19 4666 
L 3928 4666 
L 3928 4134 
L 2272 4134 
L 2272 0 
L 1638 0 
L 1638 4134 
L -19 4134 
L -19 4666 
z
" transform="scale(0.015625)"/>
       <path id="DejaVuSans-69" d="M 603 3500 
L 1178 3500 
L 1178 0 
L 603 0 
L 603 3500 
z
M 603 4863 
L 1178 4863 
L 1178 4134 
L 603 4134 
L 603 4863 
z
" transform="scale(0.015625)"/>
       <path id="DejaVuSans-6d" d="M 3328 2828 
Q 3544 3216 3844 3400 
Q 4144 3584 4550 3584 
Q 5097 3584 5394 3201 
Q 5691 2819 5691 2113 
L 5691 0 
L 5113 0 
L 5113 2094 
Q 5113 2597 4934 2840 
Q 4756 3084 4391 3084 
Q 3944 3084 3684 2787 
Q 3425 2491 3425 1978 
L 3425 0 
L 2847 0 
L 2847 2094 
Q 2847 2600 2669 2842 
Q 2491 3084 2119 3084 
Q 1678 3084 1418 2786 
Q 1159 2488 1159 1978 
L 1159 0 
L 581 0 
L 581 3500 
L 1159 3500 
L 1159 2956 
Q 1356 3278 1631 3431 
Q 1906 3584 2284 3584 
Q 2666 3584 2933 3390 
Q 3200 3197 3328 2828 
z
" transform="scale(0.015625)"/>
       <path id="DejaVuSans-65" d="M 3597 1894 
L 3597 1613 
L 953 1613 
Q 991 1019 1311 708 
Q 1631 397 2203 397 
Q 2534 397 2845 478 
Q 3156 559 3463 722 
L 3463 178 
Q 3153 47 2828 -22 
Q 2503 -91 2169 -91 
Q 1331 -91 842 396 
Q 353 884 353 1716 
Q 353 2575 817 3079 
Q 1281 3584 2069 3584 
Q 2775 3584 3186 3129 
Q 3597 2675 3597 1894 
z
M 3022 2063 
Q 3016 2534 2758 2815 
Q 2500 3097 2075 3097 
Q 1594 3097 1305 2825 
Q 1016 2553 972 2059 
L 3022 2063 
z
" transform="scale(0.015625)"/>
       <path id="DejaVuSans-20" transform="scale(0.015625)"/>
       <path id="DejaVuSans-28" d="M 1984 4856 
Q 1566 4138 1362 3434 
Q 1159 2731 1159 2009 
Q 1159 1288 1364 580 
Q 1569 -128 1984 -844 
L 1484 -844 
Q 1016 -109 783 600 
Q 550 1309 550 2009 
Q 550 2706 781 3412 
Q 1013 4119 1484 4856 
L 1984 4856 
z
" transform="scale(0.015625)"/>
       <path id="DejaVuSans-73" d="M 2834 3397 
L 2834 2853 
Q 2591 2978 2328 3040 
Q 2066 3103 1784 3103 
Q 1356 3103 1142 2972 
Q 928 2841 928 2578 
Q 928 2378 1081 2264 
Q 1234 2150 1697 2047 
L 1894 2003 
Q 2506 1872 2764 1633 
Q 3022 1394 3022 966 
Q 3022 478 2636 193 
Q 2250 -91 1575 -91 
Q 1294 -91 989 -36 
Q 684 19 347 128 
L 347 722 
Q 666 556 975 473 
Q 1284 391 1588 391 
Q 1994 391 2212 530 
Q 2431 669 2431 922 
Q 2431 1156 2273 1281 
Q 2116 1406 1581 1522 
L 1381 1569 
Q 847 1681 609 1914 
Q 372 2147 372 2553 
Q 372 3047 722 3315 
Q 1072 3584 1716 3584 
Q 2034 3584 2315 3537 
Q 2597 3491 2834 3397 
z
" transform="scale(0.015625)"/>
       <path id="DejaVuSans-63" d="M 3122 3366 
L 3122 2828 
Q 2878 2963 2633 3030 
Q 2388 3097 2138 3097 
Q 1578 3097 1268 2742 
Q 959 2388 959 1747 
Q 959 1106 1268 751 
Q 1578 397 2138 397 
Q 2388 397 2633 464 
Q 2878 531 3122 666 
L 3122 134 
Q 2881 22 2623 -34 
Q 2366 -91 2075 -91 
Q 1284 -91 818 406 
Q 353 903 353 1747 
Q 353 2603 823 3093 
Q 1294 3584 2113 3584 
Q 2378 3584 2631 3529 
Q 2884 3475 3122 3366 
z
" transform="scale(0.015625)"/>
       <path id="DejaVuSans-6f" d="M 1959 3097 
Q 1497 3097 1228 2736 
Q 959 2375 959 1747 
Q 959 1119 1226 758 
Q 1494 397 1959 397 
Q 2419 397 2687 759 
Q 2956 1122 2956 1747 
Q 2956 2369 2687 2733 
Q 2419 3097 1959 3097 
z
M 1959 3584 
Q 2709 3584 3137 3096 
Q 3566 2609 3566 1747 
Q 3566 888 3137 398 
Q 2709 -91 1959 -91 
Q 1206 -91 779 398 
Q 353 888 353 1747 
Q 353 2609 779 3096 
Q 1206 3584 1959 3584 
z
" transform="scale(0.015625)"/>
       <path id="DejaVuSans-6e" d="M 3513 2113 
L 3513 0 
L 2938 0 
L 2938 2094 
Q 2938 2591 2744 2837 
Q 2550 3084 2163 3084 
Q 1697 3084 1428 2787 
Q 1159 2491 1159 1978 
L 1159 0 
L 581 0 
L 581 3500 
L 1159 3500 
L 1159 2956 
Q 1366 3272 1645 3428 
Q 1925 3584 2291 3584 
Q 2894 3584 3203 3211 
Q 3513 2838 3513 2113 
z
" transform="scale(0.015625)"/>
       <path id="DejaVuSans-64" d="M 2906 2969 
L 2906 4863 
L 3481 4863 
L 3481 0 
L 2906 0 
L 2906 525 
Q 2725 213 2448 61 
Q 2172 -91 1784 -91 
Q 1150 -91 751 415 
Q 353 922 353 1747 
Q 353 2572 751 3078 
Q 1150 3584 1784 3584 
Q 2172 3584 2448 3432 
Q 2725 3281 2906 2969 
z
M 947 1747 
Q 947 1113 1208 752 
Q 1469 391 1925 391 
Q 2381 391 2643 752 
Q 2906 1113 2906 1747 
Q 2906 2381 2643 2742 
Q 2381 3103 1925 3103 
Q 1469 3103 1208 2742 
Q 947 2381 947 1747 
z
" transform="scale(0.015625)"/>
       <path id="DejaVuSans-29" d="M 513 4856 
L 1013 4856 
Q 1481 4119 1714 3412 
Q 1947 2706 1947 2009 
Q 1947 1309 1714 600 
Q 1481 -109 1013 -844 
L 513 -844 
Q 928 -128 1133 580 
Q 1338 1288 1338 2009 
Q 1338 2731 1133 3434 
Q 928 4138 513 4856 
z
" transform="scale(0.015625)"/>
      </defs>
      <use xlink:href="#DejaVuSans-54"/>
      <use xlink:href="#DejaVuSans-69" x="57.958984"/>
      <use xlink:href="#DejaVuSans-6d" x="85.742188"/>
      <use xlink:href="#DejaVuSans-65" x="183.154297"/>
      <use xlink:href="#DejaVuSans-20" x="244.677734"/>
      <use xlink:href="#DejaVuSans-28" x="276.464844"/>
      <use xlink:href="#DejaVuSans-73" x="315.478516"/>
      <use xlink:href="#DejaVuSans-65" x="367.578125"/>
      <use xlink:href="#DejaVuSans-63" x="429.101562"/>
      <use xlink:href="#DejaVuSans-6f" x="484.082031"/>
      <use xlink:href="#DejaVuSans-6e" x="545.263672"/>
      <use xlink:href="#DejaVuSans-64" x="608.642578"/>
      <use xlink:href="#DejaVuSans-73" x="672.119141"/>
      <use xlink:href="#DejaVuSans-29" x="724.21875"/>
     </g>
    </g>
   </g>
   <g id="matplotlib.axis_2">
    <g id="ytick_1">
     <g id="line2d_8">
      <path d="M 52.368 369.891818 
L 560.052 369.891818 
" clip-path="url(#p168247cb44)" style="fill: none; stroke: #cccccc; stroke-width: 0.8; stroke-linecap: round"/>
     </g>
     <g id="text_9">
      <!-- 0 -->
      <g style="fill: #262626" transform="translate(38.469 373.235131) scale(0.088 -0.088)">
       <use xlink:href="#DejaVuSans-30"/>
      </g>
     </g>
    </g>
    <g id="ytick_2">
     <g id="line2d_9">
      <path d="M 52.368 301.411091 
L 560.052 301.411091 
" clip-path="url(#p168247cb44)" style="fill: none; stroke: #cccccc; stroke-width: 0.8; stroke-linecap: round"/>
     </g>
     <g id="text_10">
      <!-- 20 -->
      <g style="fill: #262626" transform="translate(32.87 304.754403) scale(0.088 -0.088)">
       <use xlink:href="#DejaVuSans-32"/>
       <use xlink:href="#DejaVuSans-30" x="63.623047"/>
      </g>
     </g>
    </g>
    <g id="ytick_3">
     <g id="line2d_10">
      <path d="M 52.368 232.930364 
L 560.052 232.930364 
" clip-path="url(#p168247cb44)" style="fill: none; stroke: #cccccc; stroke-width: 0.8; stroke-linecap: round"/>
     </g>
     <g id="text_11">
      <!-- 40 -->
      <g style="fill: #262626" transform="translate(32.87 236.273676) scale(0.088 -0.088)">
       <use xlink:href="#DejaVuSans-34"/>
       <use xlink:href="#DejaVuSans-30" x="63.623047"/>
      </g>
     </g>
    </g>
    <g id="ytick_4">
     <g id="line2d_11">
      <path d="M 52.368 164.449636 
L 560.052 164.449636 
" clip-path="url(#p168247cb44)" style="fill: none; stroke: #cccccc; stroke-width: 0.8; stroke-linecap: round"/>
     </g>
     <g id="text_12">
      <!-- 60 -->
      <g style="fill: #262626" transform="translate(32.87 167.792949) scale(0.088 -0.088)">
       <use xlink:href="#DejaVuSans-36"/>
       <use xlink:href="#DejaVuSans-30" x="63.623047"/>
      </g>
     </g>
    </g>
    <g id="ytick_5">
     <g id="line2d_12">
      <path d="M 52.368 95.968909 
L 560.052 95.968909 
" clip-path="url(#p168247cb44)" style="fill: none; stroke: #cccccc; stroke-width: 0.8; stroke-linecap: round"/>
     </g>
     <g id="text_13">
      <!-- 80 -->
      <g style="fill: #262626" transform="translate(32.87 99.312222) scale(0.088 -0.088)">
       <defs>
        <path id="DejaVuSans-38" d="M 2034 2216 
Q 1584 2216 1326 1975 
Q 1069 1734 1069 1313 
Q 1069 891 1326 650 
Q 1584 409 2034 409 
Q 2484 409 2743 651 
Q 3003 894 3003 1313 
Q 3003 1734 2745 1975 
Q 2488 2216 2034 2216 
z
M 1403 2484 
Q 997 2584 770 2862 
Q 544 3141 544 3541 
Q 544 4100 942 4425 
Q 1341 4750 2034 4750 
Q 2731 4750 3128 4425 
Q 3525 4100 3525 3541 
Q 3525 3141 3298 2862 
Q 3072 2584 2669 2484 
Q 3125 2378 3379 2068 
Q 3634 1759 3634 1313 
Q 3634 634 3220 271 
Q 2806 -91 2034 -91 
Q 1263 -91 848 271 
Q 434 634 434 1313 
Q 434 1759 690 2068 
Q 947 2378 1403 2484 
z
M 1172 3481 
Q 1172 3119 1398 2916 
Q 1625 2713 2034 2713 
Q 2441 2713 2670 2916 
Q 2900 3119 2900 3481 
Q 2900 3844 2670 4047 
Q 2441 4250 2034 4250 
Q 1625 4250 1398 4047 
Q 1172 3844 1172 3481 
z
" transform="scale(0.015625)"/>
       </defs>
       <use xlink:href="#DejaVuSans-38"/>
       <use xlink:href="#DejaVuSans-30" x="63.623047"/>
      </g>
     </g>
    </g>
    <g id="ytick_6">
     <g id="line2d_13">
      <path d="M 52.368 27.488182 
L 560.052 27.488182 
" clip-path="url(#p168247cb44)" style="fill: none; stroke: #cccccc; stroke-width: 0.8; stroke-linecap: round"/>
     </g>
     <g id="text_14">
      <!-- 100 -->
      <g style="fill: #262626" transform="translate(27.271 30.831494) scale(0.088 -0.088)">
       <use xlink:href="#DejaVuSans-31"/>
       <use xlink:href="#DejaVuSans-30" x="63.623047"/>
       <use xlink:href="#DejaVuSans-30" x="127.246094"/>
      </g>
     </g>
    </g>
    <g id="text_15">
     <!-- GPU Utilization (%) -->
     <g style="fill: #262626" transform="translate(20.775375 255.6075) rotate(-90) scale(0.12 -0.12)">
      <defs>
       <path id="DejaVuSans-47" d="M 3809 666 
L 3809 1919 
L 2778 1919 
L 2778 2438 
L 4434 2438 
L 4434 434 
Q 4069 175 3628 42 
Q 3188 -91 2688 -91 
Q 1594 -91 976 548 
Q 359 1188 359 2328 
Q 359 3472 976 4111 
Q 1594 4750 2688 4750 
Q 3144 4750 3555 4637 
Q 3966 4525 4313 4306 
L 4313 3634 
Q 3963 3931 3569 4081 
Q 3175 4231 2741 4231 
Q 1884 4231 1454 3753 
Q 1025 3275 1025 2328 
Q 1025 1384 1454 906 
Q 1884 428 2741 428 
Q 3075 428 3337 486 
Q 3600 544 3809 666 
z
" transform="scale(0.015625)"/>
       <path id="DejaVuSans-50" d="M 1259 4147 
L 1259 2394 
L 2053 2394 
Q 2494 2394 2734 2622 
Q 2975 2850 2975 3272 
Q 2975 3691 2734 3919 
Q 2494 4147 2053 4147 
L 1259 4147 
z
M 628 4666 
L 2053 4666 
Q 2838 4666 3239 4311 
Q 3641 3956 3641 3272 
Q 3641 2581 3239 2228 
Q 2838 1875 2053 1875 
L 1259 1875 
L 1259 0 
L 628 0 
L 628 4666 
z
" transform="scale(0.015625)"/>
       <path id="DejaVuSans-55" d="M 556 4666 
L 1191 4666 
L 1191 1831 
Q 1191 1081 1462 751 
Q 1734 422 2344 422 
Q 2950 422 3222 751 
Q 3494 1081 3494 1831 
L 3494 4666 
L 4128 4666 
L 4128 1753 
Q 4128 841 3676 375 
Q 3225 -91 2344 -91 
Q 1459 -91 1007 375 
Q 556 841 556 1753 
L 556 4666 
z
" transform="scale(0.015625)"/>
       <path id="DejaVuSans-74" d="M 1172 4494 
L 1172 3500 
L 2356 3500 
L 2356 3053 
L 1172 3053 
L 1172 1153 
Q 1172 725 1289 603 
Q 1406 481 1766 481 
L 2356 481 
L 2356 0 
L 1766 0 
Q 1100 0 847 248 
Q 594 497 594 1153 
L 594 3053 
L 172 3053 
L 172 3500 
L 594 3500 
L 594 4494 
L 1172 4494 
z
" transform="scale(0.015625)"/>
       <path id="DejaVuSans-6c" d="M 603 4863 
L 1178 4863 
L 1178 0 
L 603 0 
L 603 4863 
z
" transform="scale(0.015625)"/>
       <path id="DejaVuSans-7a" d="M 353 3500 
L 3084 3500 
L 3084 2975 
L 922 459 
L 3084 459 
L 3084 0 
L 275 0 
L 275 525 
L 2438 3041 
L 353 3041 
L 353 3500 
z
" transform="scale(0.015625)"/>
       <path id="DejaVuSans-61" d="M 2194 1759 
Q 1497 1759 1228 1600 
Q 959 1441 959 1056 
Q 959 750 1161 570 
Q 1363 391 1709 391 
Q 2188 391 2477 730 
Q 2766 1069 2766 1631 
L 2766 1759 
L 2194 1759 
z
M 3341 1997 
L 3341 0 
L 2766 0 
L 2766 531 
Q 2569 213 2275 61 
Q 1981 -91 1556 -91 
Q 1019 -91 701 211 
Q 384 513 384 1019 
Q 384 1609 779 1909 
Q 1175 2209 1959 2209 
L 2766 2209 
L 2766 2266 
Q 2766 2663 2505 2880 
Q 2244 3097 1772 3097 
Q 1472 3097 1187 3025 
Q 903 2953 641 2809 
L 641 3341 
Q 956 3463 1253 3523 
Q 1550 3584 1831 3584 
Q 2591 3584 2966 3190 
Q 3341 2797 3341 1997 
z
" transform="scale(0.015625)"/>
       <path id="DejaVuSans-25" d="M 4653 2053 
Q 4381 2053 4226 1822 
Q 4072 1591 4072 1178 
Q 4072 772 4226 539 
Q 4381 306 4653 306 
Q 4919 306 5073 539 
Q 5228 772 5228 1178 
Q 5228 1588 5073 1820 
Q 4919 2053 4653 2053 
z
M 4653 2450 
Q 5147 2450 5437 2106 
Q 5728 1763 5728 1178 
Q 5728 594 5436 251 
Q 5144 -91 4653 -91 
Q 4153 -91 3862 251 
Q 3572 594 3572 1178 
Q 3572 1766 3864 2108 
Q 4156 2450 4653 2450 
z
M 1428 4353 
Q 1159 4353 1004 4120 
Q 850 3888 850 3481 
Q 850 3069 1003 2837 
Q 1156 2606 1428 2606 
Q 1700 2606 1854 2837 
Q 2009 3069 2009 3481 
Q 2009 3884 1853 4118 
Q 1697 4353 1428 4353 
z
M 4250 4750 
L 4750 4750 
L 1831 -91 
L 1331 -91 
L 4250 4750 
z
M 1428 4750 
Q 1922 4750 2215 4408 
Q 2509 4066 2509 3481 
Q 2509 2891 2217 2550 
Q 1925 2209 1428 2209 
Q 931 2209 642 2551 
Q 353 2894 353 3481 
Q 353 4063 643 4406 
Q 934 4750 1428 4750 
z
" transform="scale(0.015625)"/>
      </defs>
      <use xlink:href="#DejaVuSans-47"/>
      <use xlink:href="#DejaVuSans-50" x="77.490234"/>
      <use xlink:href="#DejaVuSans-55" x="137.792969"/>
      <use xlink:href="#DejaVuSans-20" x="210.986328"/>
      <use xlink:href="#DejaVuSans-55" x="242.773438"/>
      <use xlink:href="#DejaVuSans-74" x="315.966797"/>
      <use xlink:href="#DejaVuSans-69" x="355.175781"/>
      <use xlink:href="#DejaVuSans-6c" x="382.958984"/>
      <use xlink:href="#DejaVuSans-69" x="410.742188"/>
      <use xlink:href="#DejaVuSans-7a" x="438.525391"/>
      <use xlink:href="#DejaVuSans-61" x="491.015625"/>
      <use xlink:href="#DejaVuSans-74" x="552.294922"/>
      <use xlink:href="#DejaVuSans-69" x="591.503906"/>
      <use xlink:href="#DejaVuSans-6f" x="619.287109"/>
      <use xlink:href="#DejaVuSans-6e" x="680.46875"/>
      <use xlink:href="#DejaVuSans-20" x="743.847656"/>
      <use xlink:href="#DejaVuSans-28" x="775.634766"/>
      <use xlink:href="#DejaVuSans-25" x="814.648438"/>
      <use xlink:href="#DejaVuSans-29" x="909.667969"/>
     </g>
    </g>
   </g>
   <g id="PolyCollection_1"/>
   <g id="PolyCollection_2"/>
   <g id="line2d_14">
    <path d="M 52.368 27.488182 
L 54.06028 27.488182 
L 54.90642 37.760291 
L 55.75256 239.778436 
L 56.5987 27.488182 
L 57.44484 30.912218 
L 58.29098 30.912218 
L 59.13712 27.488182 
L 60.8294 27.488182 
L 61.67554 260.322655 
L 62.52168 95.968909 
L 63.36782 27.488182 
L 64.21396 34.336255 
L 65.0601 27.488182 
L 65.90624 27.488182 
L 66.75238 65.152582 
L 67.59852 369.891818 
L 68.44466 68.576618 
L 69.2908 27.488182 
L 70.13694 30.912218 
L 70.98308 27.488182 
L 72.67536 27.488182 
L 73.5215 92.544873 
L 74.36764 267.170727 
L 75.21378 27.488182 
L 76.05992 27.488182 
L 76.90606 30.912218 
L 77.7522 27.488182 
L 80.29062 27.488182 
L 81.13676 137.057345 
L 81.9829 27.488182 
L 82.82904 30.912218 
L 83.67518 27.488182 
L 85.36746 27.488182 
L 86.2136 30.912218 
L 87.05974 325.379345 
L 87.90588 27.488182 
L 88.75202 30.912218 
L 89.59816 27.488182 
L 91.29044 27.488182 
L 92.13658 178.145782 
L 92.98272 27.488182 
L 93.82886 30.912218 
L 94.675 27.488182 
L 97.21342 27.488182 
L 98.05956 208.962109 
L 98.9057 78.848727 
L 99.75184 78.848727 
L 100.59798 27.488182 
L 101.44412 30.912218 
L 102.29026 27.488182 
L 103.98254 27.488182 
L 104.82868 82.272764 
L 105.67482 304.835127 
L 106.52096 27.488182 
L 107.3671 30.912218 
L 108.21324 27.488182 
L 110.75166 27.488182 
L 111.5978 41.184327 
L 112.44394 27.488182 
L 113.29008 65.152582 
L 114.13622 27.488182 
L 114.98236 37.760291 
L 115.8285 27.488182 
L 116.67464 75.424691 
L 117.52078 27.488182 
L 118.36692 85.6968 
L 119.21306 27.488182 
L 120.0592 44.608364 
L 120.90534 27.488182 
L 121.75148 27.488182 
L 122.59762 41.184327 
L 123.44376 27.488182 
L 124.2899 37.760291 
L 125.13604 37.760291 
L 125.98218 27.488182 
L 126.82832 54.880473 
L 127.67446 27.488182 
L 128.5206 41.184327 
L 129.36674 41.184327 
L 130.21288 27.488182 
L 131.05902 140.481382 
L 131.90516 27.488182 
L 132.7513 27.488182 
L 133.59744 30.912218 
L 134.44358 27.488182 
L 136.13586 27.488182 
L 136.982 277.442836 
L 137.82814 277.442836 
L 138.67428 27.488182 
L 141.2127 27.488182 
L 142.05884 178.145782 
L 142.90498 243.202473 
L 143.75112 27.488182 
L 144.59726 30.912218 
L 145.4434 30.912218 
L 146.28954 27.488182 
L 148.82796 27.488182 
L 149.6741 263.746691 
L 150.52024 51.456436 
L 151.36638 30.912218 
L 152.21252 27.488182 
L 153.9048 27.488182 
L 154.75094 113.089091 
L 155.59708 256.898618 
L 156.44322 27.488182 
L 157.28936 27.488182 
L 158.1355 30.912218 
L 158.98164 27.488182 
L 160.67392 27.488182 
L 161.52006 246.626509 
L 163.21234 30.912218 
L 164.05848 27.488182 
L 164.90462 27.488182 
L 165.75076 48.0324 
L 166.5969 48.0324 
L 167.44304 229.506327 
L 168.28918 27.488182 
L 169.13532 27.488182 
L 169.98146 30.912218 
L 170.8276 27.488182 
L 172.51988 27.488182 
L 173.36602 246.626509 
L 174.21216 246.626509 
L 175.0583 85.6968 
L 175.90444 30.912218 
L 176.75058 27.488182 
L 178.44286 27.488182 
L 179.289 75.424691 
L 180.13514 277.442836 
L 180.98128 277.442836 
L 181.82742 27.488182 
L 184.36584 27.488182 
L 185.21198 229.506327 
L 186.05812 260.322655 
L 186.90426 27.488182 
L 187.7504 27.488182 
L 188.59654 48.0324 
L 189.44268 27.488182 
L 191.13496 27.488182 
L 191.9811 41.184327 
L 192.82724 27.488182 
L 193.67338 27.488182 
L 194.51952 37.760291 
L 195.36566 27.488182 
L 196.2118 27.488182 
L 197.05794 37.760291 
L 197.90408 27.488182 
L 198.75022 61.728545 
L 199.59636 27.488182 
L 200.4425 37.760291 
L 201.28864 27.488182 
L 202.13478 27.488182 
L 202.98092 44.608364 
L 203.82706 27.488182 
L 204.6732 41.184327 
L 205.51934 27.488182 
L 206.36548 48.0324 
L 207.21162 27.488182 
L 208.05776 37.760291 
L 208.9039 27.488182 
L 209.75004 61.728545 
L 210.59618 27.488182 
L 211.44232 243.202473 
L 212.28846 267.170727 
L 213.1346 27.488182 
L 213.98074 27.488182 
L 214.82688 30.912218 
L 215.67302 27.488182 
L 217.3653 27.488182 
L 218.21144 198.69 
L 219.05758 27.488182 
L 219.90372 27.488182 
L 220.74986 30.912218 
L 221.596 27.488182 
L 224.13442 27.488182 
L 224.98056 222.658255 
L 225.8267 27.488182 
L 226.67284 27.488182 
L 227.51898 30.912218 
L 228.36512 27.488182 
L 230.0574 27.488182 
L 230.90354 284.290909 
L 231.74968 284.290909 
L 232.59582 72.000655 
L 233.44196 30.912218 
L 234.2881 30.912218 
L 235.13424 27.488182 
L 235.98038 95.968909 
L 236.82652 297.987055 
L 237.67266 27.488182 
L 238.5188 58.304509 
L 239.36494 58.304509 
L 240.21108 27.488182 
L 242.7495 27.488182 
L 243.59564 174.721745 
L 244.44178 109.665055 
L 245.28792 27.488182 
L 246.13406 34.336255 
L 246.9802 27.488182 
L 248.67248 27.488182 
L 249.51862 51.456436 
L 250.36476 332.227418 
L 251.2109 27.488182 
L 255.4416 27.488182 
L 256.28774 171.297709 
L 257.13388 147.329455 
L 257.98002 27.488182 
L 258.82616 30.912218 
L 259.6723 27.488182 
L 261.36458 27.488182 
L 262.21072 335.651455 
L 263.05686 30.912218 
L 263.903 30.912218 
L 264.74914 27.488182 
L 267.28756 27.488182 
L 268.1337 157.601564 
L 268.97984 157.601564 
L 269.82598 27.488182 
L 270.67212 30.912218 
L 271.51826 27.488182 
L 273.21054 27.488182 
L 274.05668 34.336255 
L 274.90282 34.336255 
L 275.74896 37.760291 
L 276.5951 27.488182 
L 277.44124 27.488182 
L 278.28738 51.456436 
L 279.13352 27.488182 
L 280.8258 27.488182 
L 281.67194 37.760291 
L 282.51808 27.488182 
L 283.36422 37.760291 
L 284.21036 30.912218 
L 285.0565 37.760291 
L 285.90264 37.760291 
L 286.74878 27.488182 
L 287.59492 41.184327 
L 288.44106 27.488182 
L 289.2872 34.336255 
L 290.13334 34.336255 
L 290.97948 37.760291 
L 291.82562 34.336255 
L 292.67176 34.336255 
L 293.5179 37.760291 
L 294.36404 243.202473 
L 295.21018 27.488182 
L 296.05632 30.912218 
L 296.90246 27.488182 
L 298.59474 27.488182 
L 299.44088 260.322655 
L 300.28702 157.601564 
L 301.13316 27.488182 
L 301.9793 30.912218 
L 302.82544 30.912218 
L 303.67158 27.488182 
L 304.51772 27.488182 
L 305.36386 345.923564 
L 306.21 164.449636 
L 307.05614 27.488182 
L 307.90228 30.912218 
L 308.74842 27.488182 
L 311.28684 27.488182 
L 312.13298 304.835127 
L 312.97912 30.912218 
L 313.82526 30.912218 
L 314.6714 27.488182 
L 317.20982 27.488182 
L 318.05596 171.297709 
L 318.9021 212.386145 
L 319.74824 27.488182 
L 320.59438 30.912218 
L 321.44052 27.488182 
L 325.67122 27.488182 
L 326.51736 48.0324 
L 327.3635 27.488182 
L 329.05578 27.488182 
L 329.90192 140.481382 
L 330.74806 287.714945 
L 331.5942 27.488182 
L 332.44034 51.456436 
L 333.28648 27.488182 
L 335.8249 27.488182 
L 336.67104 195.265964 
L 337.51718 133.633309 
L 338.36332 27.488182 
L 339.20946 30.912218 
L 340.0556 27.488182 
L 341.74788 27.488182 
L 342.59402 34.336255 
L 343.44016 301.411091 
L 344.2863 301.411091 
L 345.13244 30.912218 
L 345.97858 27.488182 
L 348.517 27.488182 
L 349.36314 202.114036 
L 350.20928 92.544873 
L 351.05542 27.488182 
L 351.90156 27.488182 
L 352.7477 34.336255 
L 353.59384 27.488182 
L 354.43998 44.608364 
L 355.28612 27.488182 
L 356.13226 41.184327 
L 356.9784 27.488182 
L 357.82454 41.184327 
L 358.67068 27.488182 
L 359.51682 44.608364 
L 360.36296 44.608364 
L 361.2091 27.488182 
L 362.05524 37.760291 
L 362.90138 37.760291 
L 363.74752 27.488182 
L 364.59366 51.456436 
L 365.4398 27.488182 
L 366.28594 27.488182 
L 367.13208 37.760291 
L 367.97822 27.488182 
L 368.82436 44.608364 
L 369.6705 27.488182 
L 370.51664 41.184327 
L 371.36278 27.488182 
L 372.20892 27.488182 
L 373.05506 41.184327 
L 373.9012 27.488182 
L 374.74734 102.816982 
L 375.59348 246.626509 
L 376.43962 27.488182 
L 377.28576 30.912218 
L 378.1319 27.488182 
L 379.82418 27.488182 
L 380.67032 253.474582 
L 381.51646 253.474582 
L 382.3626 27.488182 
L 386.5933 27.488182 
L 387.43944 219.234218 
L 388.28558 27.488182 
L 389.13172 27.488182 
L 389.97786 30.912218 
L 390.824 27.488182 
L 393.36242 27.488182 
L 394.20856 167.873673 
L 395.0547 226.082291 
L 395.90084 27.488182 
L 396.74698 51.456436 
L 397.59312 27.488182 
L 400.13154 27.488182 
L 400.97768 106.241018 
L 401.82382 106.241018 
L 402.66996 30.912218 
L 403.5161 30.912218 
L 404.36224 27.488182 
L 405.20838 54.880473 
L 406.05452 369.891818 
L 406.90066 369.891818 
L 407.7468 68.576618 
L 408.59294 30.912218 
L 409.43908 30.912218 
L 410.28522 27.488182 
L 411.9775 27.488182 
L 412.82364 92.544873 
L 413.66978 202.114036 
L 414.51592 27.488182 
L 415.36206 30.912218 
L 416.2082 27.488182 
L 418.74662 27.488182 
L 419.59276 301.411091 
L 420.4389 58.304509 
L 421.28504 27.488182 
L 422.13118 30.912218 
L 422.97732 27.488182 
L 424.6696 27.488182 
L 425.51574 102.816982 
L 426.36188 236.3544 
L 427.20802 27.488182 
L 428.05416 65.152582 
L 428.9003 27.488182 
L 430.59258 27.488182 
L 431.43872 229.506327 
L 433.131 27.488182 
L 433.97714 30.912218 
L 434.82328 27.488182 
L 436.51556 27.488182 
L 437.3617 34.336255 
L 438.20784 30.912218 
L 439.05398 30.912218 
L 439.90012 37.760291 
L 440.74626 27.488182 
L 441.5924 51.456436 
L 442.43854 27.488182 
L 443.28468 44.608364 
L 444.13082 27.488182 
L 444.97696 27.488182 
L 445.8231 54.880473 
L 446.66924 30.912218 
L 447.51538 37.760291 
L 448.36152 27.488182 
L 449.20766 27.488182 
L 450.0538 51.456436 
L 451.74608 30.912218 
L 452.59222 34.336255 
L 453.43836 30.912218 
L 454.2845 30.912218 
L 455.13064 27.488182 
L 455.97678 27.488182 
L 456.82292 51.456436 
L 457.66906 308.259164 
L 458.5152 27.488182 
L 459.36134 30.912218 
L 460.20748 30.912218 
L 461.05362 27.488182 
L 462.7459 27.488182 
L 463.59204 202.114036 
L 464.43818 202.114036 
L 466.13046 27.488182 
L 466.9766 30.912218 
L 467.82274 27.488182 
L 468.66888 27.488182 
L 469.51502 54.880473 
L 470.36116 54.880473 
L 471.2073 311.6832 
L 472.05344 30.912218 
L 472.89958 30.912218 
L 473.74572 27.488182 
L 475.438 27.488182 
L 476.28414 195.265964 
L 477.13028 239.778436 
L 477.97642 27.488182 
L 478.82256 37.760291 
L 479.6687 27.488182 
L 482.20712 27.488182 
L 483.05326 260.322655 
L 483.8994 27.488182 
L 484.74554 27.488182 
L 485.59168 30.912218 
L 486.43782 27.488182 
L 488.1301 27.488182 
L 488.97624 72.000655 
L 489.82238 260.322655 
L 490.66852 27.488182 
L 491.51466 34.336255 
L 492.3608 27.488182 
L 494.89922 27.488182 
L 495.74536 243.202473 
L 496.5915 109.665055 
L 497.43764 27.488182 
L 498.28378 51.456436 
L 499.12992 27.488182 
L 500.8222 27.488182 
L 501.66834 369.891818 
L 502.51448 85.6968 
L 503.36062 27.488182 
L 504.20676 48.0324 
L 505.0529 48.0324 
L 505.89904 27.488182 
L 506.74518 27.488182 
L 507.59132 61.728545 
L 508.43746 256.898618 
L 509.2836 256.898618 
L 510.12974 27.488182 
L 510.97588 30.912218 
L 511.82202 27.488182 
L 514.36044 27.488182 
L 515.20658 246.626509 
L 516.05272 82.272764 
L 516.89886 27.488182 
L 517.745 37.760291 
L 518.59114 27.488182 
L 520.28342 27.488182 
L 521.12956 51.456436 
L 521.9757 27.488182 
L 522.82184 41.184327 
L 523.66798 27.488182 
L 527.05254 27.488182 
L 527.89868 37.760291 
L 528.74482 27.488182 
L 529.59096 37.760291 
L 530.4371 27.488182 
L 531.28324 27.488182 
L 532.12938 61.728545 
L 532.97552 27.488182 
L 533.82166 37.760291 
L 534.6678 37.760291 
L 535.51394 27.488182 
L 536.36008 37.760291 
L 537.20622 27.488182 
L 538.05236 37.760291 
L 538.8985 37.760291 
L 539.74464 27.488182 
L 540.59078 113.089091 
L 541.43692 263.746691 
L 542.28306 27.488182 
L 543.1292 30.912218 
L 543.97534 27.488182 
L 546.51376 27.488182 
L 547.3599 236.3544 
L 549.05218 27.488182 
L 549.89832 30.912218 
L 550.74446 27.488182 
L 551.5906 30.912218 
L 552.43674 369.891818 
L 553.28288 369.891818 
L 554.12902 82.272764 
L 554.97516 34.336255 
L 555.8213 34.336255 
L 556.66744 27.488182 
L 557.51358 27.488182 
L 558.35972 78.848727 
L 559.20586 78.848727 
L 559.20586 78.848727 
" clip-path="url(#p168247cb44)" style="fill: none; stroke: #2ca02c; stroke-opacity: 0.8; stroke-width: 1.2; stroke-linecap: round"/>
   </g>
   <g id="line2d_15">
    <path d="M 52.368 27.488182 
L 54.90642 27.498454 
L 55.75256 27.710734 
L 60.8294 27.716226 
L 61.67554 27.948832 
L 63.36782 28.016324 
L 66.75238 28.058706 
L 67.59852 28.40054 
L 70.13694 28.442236 
L 73.5215 28.503482 
L 74.36764 28.742149 
L 80.29062 28.736808 
L 81.9829 28.843771 
L 86.2136 28.843841 
L 87.05974 29.140377 
L 91.29044 29.135546 
L 92.13658 29.284557 
L 97.21342 29.277216 
L 98.05956 29.4569 
L 101.44412 29.554926 
L 104.82868 29.601456 
L 105.67482 29.87669 
L 115.8285 29.913016 
L 119.21306 30.009274 
L 129.36674 30.084827 
L 130.21288 30.08223 
L 131.05902 30.192629 
L 136.13586 30.179857 
L 137.82814 30.674136 
L 141.2127 30.661411 
L 143.75112 31.017756 
L 148.82796 31.003449 
L 149.6741 31.236192 
L 154.75094 31.32662 
L 155.59708 31.552192 
L 160.67392 31.531282 
L 162.3662 31.858537 
L 166.5969 31.881207 
L 167.44304 32.078832 
L 172.51988 32.054771 
L 174.21216 32.483699 
L 175.90444 32.535288 
L 179.289 32.563066 
L 180.98128 33.052581 
L 184.36584 33.030357 
L 186.05812 33.453928 
L 202.13478 33.44009 
L 210.59618 33.476295 
L 212.28846 33.919506 
L 217.3653 33.884428 
L 218.21144 34.049233 
L 224.13442 34.006854 
L 224.98056 34.195505 
L 230.0574 34.158776 
L 231.74968 34.65879 
L 234.2881 34.688567 
L 235.98038 34.742655 
L 236.82652 35.005899 
L 242.7495 35.014788 
L 244.44178 35.229006 
L 249.51862 35.213466 
L 250.36476 35.51048 
L 255.4416 35.462466 
L 257.13388 35.710033 
L 261.36458 35.672419 
L 262.21072 35.972398 
L 267.28756 35.928437 
L 268.97984 36.171662 
L 288.44106 36.082712 
L 293.5179 36.079098 
L 294.36404 36.286221 
L 298.59474 36.245732 
L 300.28702 36.590941 
L 304.51772 36.552349 
L 305.36386 36.86172 
L 306.21 36.989308 
L 311.28684 36.935854 
L 312.13298 37.203754 
L 317.20982 37.152423 
L 319.74824 37.451694 
L 329.90192 37.469629 
L 330.74806 37.719875 
L 335.8249 37.68251 
L 337.51718 37.935887 
L 342.59402 37.883616 
L 344.2863 38.410407 
L 348.517 38.359316 
L 350.20928 38.577092 
L 363.74752 38.50646 
L 368.82436 38.491736 
L 374.74734 38.517567 
L 375.59348 38.725676 
L 379.82418 38.673015 
L 381.51646 39.102403 
L 386.5933 39.032892 
L 387.43944 39.213093 
L 393.36242 39.134675 
L 395.90084 39.438271 
L 405.20838 39.522226 
L 406.90066 40.182635 
L 409.43908 40.192441 
L 412.82364 40.206756 
L 413.66978 40.368664 
L 418.74662 40.294984 
L 419.59276 40.5561 
L 422.97732 40.538051 
L 425.51574 40.57427 
L 426.36188 40.77005 
L 430.59258 40.741325 
L 432.28486 41.015945 
L 447.51538 40.883462 
L 456.82292 40.815237 
L 457.66906 41.08268 
L 462.7459 41.008141 
L 465.28432 41.401951 
L 470.36116 41.376844 
L 471.2073 41.647151 
L 475.438 41.583321 
L 477.13028 41.935045 
L 482.20712 41.858812 
L 483.05326 42.077275 
L 488.97624 42.023381 
L 489.82238 42.24168 
L 494.89922 42.160201 
L 495.74536 42.361243 
L 497.43764 42.413606 
L 500.8222 42.37789 
L 501.66834 42.705404 
L 504.20676 42.738435 
L 507.59132 42.732248 
L 509.2836 43.160367 
L 514.36044 43.069979 
L 515.20658 43.273535 
L 517.745 43.291174 
L 533.82166 43.0956 
L 540.59078 43.097692 
L 541.43692 43.318341 
L 546.51376 43.227007 
L 548.20604 43.5035 
L 551.5906 43.446376 
L 553.28288 44.09894 
L 555.8213 44.117522 
L 559.20586 44.153774 
L 559.20586 44.153774 
" clip-path="url(#p168247cb44)" style="fill: none; stroke: #4e79a7; stroke-width: 2; stroke-linecap: round"/>
   </g>
   <g id="patch_3">
    <path d="M 52.368 387.012 
L 52.368 10.368 
" style="fill: none; stroke: #cccccc; stroke-linejoin: miter; stroke-linecap: square"/>
   </g>
   <g id="patch_4">
    <path d="M 560.052 387.012 
L 560.052 10.368 
" style="fill: none; stroke: #cccccc; stroke-linejoin: miter; stroke-linecap: square"/>
   </g>
   <g id="patch_5">
    <path d="M 52.368 387.012 
L 560.052 387.012 
" style="fill: none; stroke: #cccccc; stroke-linejoin: miter; stroke-linecap: square"/>
   </g>
   <g id="patch_6">
    <path d="M 52.368 10.368 
L 560.052 10.368 
" style="fill: none; stroke: #cccccc; stroke-linejoin: miter; stroke-linecap: square"/>
   </g>
   <g id="legend_1">
    <g id="patch_7">
     <path d="M 269.652188 382.612 
L 342.767813 382.612 
Q 344.527813 382.612 344.527813 380.852 
L 344.527813 355.8985 
Q 344.527813 354.1385 342.767813 354.1385 
L 269.652188 354.1385 
Q 267.892188 354.1385 267.892188 355.8985 
L 267.892188 380.852 
Q 267.892188 382.612 269.652188 382.612 
z
" style="fill: #ffffff; opacity: 0.8; stroke: #cccccc; stroke-width: 0.8; stroke-linejoin: miter"/>
    </g>
    <g id="line2d_16">
     <path d="M 271.412188 361.265125 
L 280.212188 361.265125 
L 289.012188 361.265125 
" style="fill: none; stroke: #2ca02c; stroke-opacity: 0.8; stroke-width: 1.2; stroke-linecap: round"/>
    </g>
    <g id="text_16">
     <!-- Raw -->
     <g style="fill: #262626" transform="translate(296.052188 364.345125) scale(0.088 -0.088)">
      <defs>
       <path id="DejaVuSans-52" d="M 2841 2188 
Q 3044 2119 3236 1894 
Q 3428 1669 3622 1275 
L 4263 0 
L 3584 0 
L 2988 1197 
Q 2756 1666 2539 1819 
Q 2322 1972 1947 1972 
L 1259 1972 
L 1259 0 
L 628 0 
L 628 4666 
L 2053 4666 
Q 2853 4666 3247 4331 
Q 3641 3997 3641 3322 
Q 3641 2881 3436 2590 
Q 3231 2300 2841 2188 
z
M 1259 4147 
L 1259 2491 
L 2053 2491 
Q 2509 2491 2742 2702 
Q 2975 2913 2975 3322 
Q 2975 3731 2742 3939 
Q 2509 4147 2053 4147 
L 1259 4147 
z
" transform="scale(0.015625)"/>
       <path id="DejaVuSans-77" d="M 269 3500 
L 844 3500 
L 1563 769 
L 2278 3500 
L 2956 3500 
L 3675 769 
L 4391 3500 
L 4966 3500 
L 4050 0 
L 3372 0 
L 2619 2869 
L 1863 0 
L 1184 0 
L 269 3500 
z
" transform="scale(0.015625)"/>
      </defs>
      <use xlink:href="#DejaVuSans-52"/>
      <use xlink:href="#DejaVuSans-61" x="67.232422"/>
      <use xlink:href="#DejaVuSans-77" x="128.511719"/>
     </g>
    </g>
    <g id="line2d_17">
     <path d="M 271.412188 374.181875 
L 280.212188 374.181875 
L 289.012188 374.181875 
" style="fill: none; stroke: #4e79a7; stroke-width: 2; stroke-linecap: round"/>
    </g>
    <g id="text_17">
     <!-- Smoothed -->
     <g style="fill: #262626" transform="translate(296.052188 377.261875) scale(0.088 -0.088)">
      <defs>
       <path id="DejaVuSans-53" d="M 3425 4513 
L 3425 3897 
Q 3066 4069 2747 4153 
Q 2428 4238 2131 4238 
Q 1616 4238 1336 4038 
Q 1056 3838 1056 3469 
Q 1056 3159 1242 3001 
Q 1428 2844 1947 2747 
L 2328 2669 
Q 3034 2534 3370 2195 
Q 3706 1856 3706 1288 
Q 3706 609 3251 259 
Q 2797 -91 1919 -91 
Q 1588 -91 1214 -16 
Q 841 59 441 206 
L 441 856 
Q 825 641 1194 531 
Q 1563 422 1919 422 
Q 2459 422 2753 634 
Q 3047 847 3047 1241 
Q 3047 1584 2836 1778 
Q 2625 1972 2144 2069 
L 1759 2144 
Q 1053 2284 737 2584 
Q 422 2884 422 3419 
Q 422 4038 858 4394 
Q 1294 4750 2059 4750 
Q 2388 4750 2728 4690 
Q 3069 4631 3425 4513 
z
" transform="scale(0.015625)"/>
       <path id="DejaVuSans-68" d="M 3513 2113 
L 3513 0 
L 2938 0 
L 2938 2094 
Q 2938 2591 2744 2837 
Q 2550 3084 2163 3084 
Q 1697 3084 1428 2787 
Q 1159 2491 1159 1978 
L 1159 0 
L 581 0 
L 581 4863 
L 1159 4863 
L 1159 2956 
Q 1366 3272 1645 3428 
Q 1925 3584 2291 3584 
Q 2894 3584 3203 3211 
Q 3513 2838 3513 2113 
z
" transform="scale(0.015625)"/>
      </defs>
      <use xlink:href="#DejaVuSans-53"/>
      <use xlink:href="#DejaVuSans-6d" x="63.476562"/>
      <use xlink:href="#DejaVuSans-6f" x="160.888672"/>
      <use xlink:href="#DejaVuSans-6f" x="222.070312"/>
      <use xlink:href="#DejaVuSans-74" x="283.251953"/>
      <use xlink:href="#DejaVuSans-68" x="322.460938"/>
      <use xlink:href="#DejaVuSans-65" x="385.839844"/>
      <use xlink:href="#DejaVuSans-64" x="447.363281"/>
     </g>
    </g>
   </g>
  </g>
 </g>
 <defs>
  <clipPath id="p168247cb44">
   <rect x="52.368" y="10.368" width="507.684" height="376.644"/>
  </clipPath>
 </defs>
</svg>
