<?xml version="1.0" encoding="utf-8" standalone="no"?>
<!DOCTYPE svg PUBLIC "-//W3C//DTD SVG 1.1//EN"
  "http://www.w3.org/Graphics/SVG/1.1/DTD/svg11.dtd">
<svg xmlns:xlink="http://www.w3.org/1999/xlink" width="576pt" height="432pt" viewBox="0 0 576 432" xmlns="http://www.w3.org/2000/svg" version="1.1">
 <metadata>
  <rdf:RDF xmlns:dc="http://purl.org/dc/elements/1.1/" xmlns:cc="http://creativecommons.org/ns#" xmlns:rdf="http://www.w3.org/1999/02/22-rdf-syntax-ns#">
   <cc:Work>
    <dc:type rdf:resource="http://purl.org/dc/dcmitype/StillImage"/>
    <dc:date>2024-07-02T18:14:58.522575</dc:date>
    <dc:format>image/svg+xml</dc:format>
    <dc:creator>
     <cc:Agent>
      <dc:title>Matplotlib v3.9.0, https://matplotlib.org/</dc:title>
     </cc:Agent>
    </dc:creator>
   </cc:Work>
  </rdf:RDF>
 </metadata>
 <defs>
  <style type="text/css">*{stroke-linejoin: round; stroke-linecap: butt}</style>
 </defs>
 <g id="figure_1">
  <g id="patch_1">
   <path d="M 0 432 
L 576 432 
L 576 0 
L 0 0 
z
" style="fill: #ffffff"/>
  </g>
  <g id="axes_1">
   <g id="patch_2">
    <path d="M 46.878 387.012 
L 563.998965 387.012 
L 563.998965 10.368 
L 46.878 10.368 
z
" style="fill: #ffffff"/>
   </g>
   <g id="matplotlib.axis_1">
    <g id="xtick_1">
     <g id="line2d_1">
      <path d="M 70.383498 387.012 
L 70.383498 10.368 
" clip-path="url(#pe250cad189)" style="fill: none; stroke: #cccccc; stroke-width: 0.8; stroke-linecap: round"/>
     </g>
     <g id="text_1">
      <!-- 0 -->
      <g style="fill: #262626" transform="translate(67.583998 401.998625) scale(0.088 -0.088)">
       <defs>
        <path id="DejaVuSans-30" d="M 2034 4250 
Q 1547 4250 1301 3770 
Q 1056 3291 1056 2328 
Q 1056 1369 1301 889 
Q 1547 409 2034 409 
Q 2525 409 2770 889 
Q 3016 1369 3016 2328 
Q 3016 3291 2770 3770 
Q 2525 4250 2034 4250 
z
M 2034 4750 
Q 2819 4750 3233 4129 
Q 3647 3509 3647 2328 
Q 3647 1150 3233 529 
Q 2819 -91 2034 -91 
Q 1250 -91 836 529 
Q 422 1150 422 2328 
Q 422 3509 836 4129 
Q 1250 4750 2034 4750 
z
" transform="scale(0.015625)"/>
       </defs>
       <use xlink:href="#DejaVuSans-30"/>
      </g>
     </g>
    </g>
    <g id="xtick_2">
     <g id="line2d_2">
      <path d="M 151.352031 387.012 
L 151.352031 10.368 
" clip-path="url(#pe250cad189)" style="fill: none; stroke: #cccccc; stroke-width: 0.8; stroke-linecap: round"/>
     </g>
     <g id="text_2">
      <!-- 100 -->
      <g style="fill: #262626" transform="translate(142.953531 401.998625) scale(0.088 -0.088)">
       <defs>
        <path id="DejaVuSans-31" d="M 794 531 
L 1825 531 
L 1825 4091 
L 703 3866 
L 703 4441 
L 1819 4666 
L 2450 4666 
L 2450 531 
L 3481 531 
L 3481 0 
L 794 0 
L 794 531 
z
" transform="scale(0.015625)"/>
       </defs>
       <use xlink:href="#DejaVuSans-31"/>
       <use xlink:href="#DejaVuSans-30" x="63.623047"/>
       <use xlink:href="#DejaVuSans-30" x="127.246094"/>
      </g>
     </g>
    </g>
    <g id="xtick_3">
     <g id="line2d_3">
      <path d="M 232.320564 387.012 
L 232.320564 10.368 
" clip-path="url(#pe250cad189)" style="fill: none; stroke: #cccccc; stroke-width: 0.8; stroke-linecap: round"/>
     </g>
     <g id="text_3">
      <!-- 200 -->
      <g style="fill: #262626" transform="translate(223.922064 401.998625) scale(0.088 -0.088)">
       <defs>
        <path id="DejaVuSans-32" d="M 1228 531 
L 3431 531 
L 3431 0 
L 469 0 
L 469 531 
Q 828 903 1448 1529 
Q 2069 2156 2228 2338 
Q 2531 2678 2651 2914 
Q 2772 3150 2772 3378 
Q 2772 3750 2511 3984 
Q 2250 4219 1831 4219 
Q 1534 4219 1204 4116 
Q 875 4013 500 3803 
L 500 4441 
Q 881 4594 1212 4672 
Q 1544 4750 1819 4750 
Q 2544 4750 2975 4387 
Q 3406 4025 3406 3419 
Q 3406 3131 3298 2873 
Q 3191 2616 2906 2266 
Q 2828 2175 2409 1742 
Q 1991 1309 1228 531 
z
" transform="scale(0.015625)"/>
       </defs>
       <use xlink:href="#DejaVuSans-32"/>
       <use xlink:href="#DejaVuSans-30" x="63.623047"/>
       <use xlink:href="#DejaVuSans-30" x="127.246094"/>
      </g>
     </g>
    </g>
    <g id="xtick_4">
     <g id="line2d_4">
      <path d="M 313.289097 387.012 
L 313.289097 10.368 
" clip-path="url(#pe250cad189)" style="fill: none; stroke: #cccccc; stroke-width: 0.8; stroke-linecap: round"/>
     </g>
     <g id="text_4">
      <!-- 300 -->
      <g style="fill: #262626" transform="translate(304.890597 401.998625) scale(0.088 -0.088)">
       <defs>
        <path id="DejaVuSans-33" d="M 2597 2516 
Q 3050 2419 3304 2112 
Q 3559 1806 3559 1356 
Q 3559 666 3084 287 
Q 2609 -91 1734 -91 
Q 1441 -91 1130 -33 
Q 819 25 488 141 
L 488 750 
Q 750 597 1062 519 
Q 1375 441 1716 441 
Q 2309 441 2620 675 
Q 2931 909 2931 1356 
Q 2931 1769 2642 2001 
Q 2353 2234 1838 2234 
L 1294 2234 
L 1294 2753 
L 1863 2753 
Q 2328 2753 2575 2939 
Q 2822 3125 2822 3475 
Q 2822 3834 2567 4026 
Q 2313 4219 1838 4219 
Q 1578 4219 1281 4162 
Q 984 4106 628 3988 
L 628 4550 
Q 988 4650 1302 4700 
Q 1616 4750 1894 4750 
Q 2613 4750 3031 4423 
Q 3450 4097 3450 3541 
Q 3450 3153 3228 2886 
Q 3006 2619 2597 2516 
z
" transform="scale(0.015625)"/>
       </defs>
       <use xlink:href="#DejaVuSans-33"/>
       <use xlink:href="#DejaVuSans-30" x="63.623047"/>
       <use xlink:href="#DejaVuSans-30" x="127.246094"/>
      </g>
     </g>
    </g>
    <g id="xtick_5">
     <g id="line2d_5">
      <path d="M 394.25763 387.012 
L 394.25763 10.368 
" clip-path="url(#pe250cad189)" style="fill: none; stroke: #cccccc; stroke-width: 0.8; stroke-linecap: round"/>
     </g>
     <g id="text_5">
      <!-- 400 -->
      <g style="fill: #262626" transform="translate(385.85913 401.998625) scale(0.088 -0.088)">
       <defs>
        <path id="DejaVuSans-34" d="M 2419 4116 
L 825 1625 
L 2419 1625 
L 2419 4116 
z
M 2253 4666 
L 3047 4666 
L 3047 1625 
L 3713 1625 
L 3713 1100 
L 3047 1100 
L 3047 0 
L 2419 0 
L 2419 1100 
L 313 1100 
L 313 1709 
L 2253 4666 
z
" transform="scale(0.015625)"/>
       </defs>
       <use xlink:href="#DejaVuSans-34"/>
       <use xlink:href="#DejaVuSans-30" x="63.623047"/>
       <use xlink:href="#DejaVuSans-30" x="127.246094"/>
      </g>
     </g>
    </g>
    <g id="xtick_6">
     <g id="line2d_6">
      <path d="M 475.226163 387.012 
L 475.226163 10.368 
" clip-path="url(#pe250cad189)" style="fill: none; stroke: #cccccc; stroke-width: 0.8; stroke-linecap: round"/>
     </g>
     <g id="text_6">
      <!-- 500 -->
      <g style="fill: #262626" transform="translate(466.827663 401.998625) scale(0.088 -0.088)">
       <defs>
        <path id="DejaVuSans-35" d="M 691 4666 
L 3169 4666 
L 3169 4134 
L 1269 4134 
L 1269 2991 
Q 1406 3038 1543 3061 
Q 1681 3084 1819 3084 
Q 2600 3084 3056 2656 
Q 3513 2228 3513 1497 
Q 3513 744 3044 326 
Q 2575 -91 1722 -91 
Q 1428 -91 1123 -41 
Q 819 9 494 109 
L 494 744 
Q 775 591 1075 516 
Q 1375 441 1709 441 
Q 2250 441 2565 725 
Q 2881 1009 2881 1497 
Q 2881 1984 2565 2268 
Q 2250 2553 1709 2553 
Q 1456 2553 1204 2497 
Q 953 2441 691 2322 
L 691 4666 
z
" transform="scale(0.015625)"/>
       </defs>
       <use xlink:href="#DejaVuSans-35"/>
       <use xlink:href="#DejaVuSans-30" x="63.623047"/>
       <use xlink:href="#DejaVuSans-30" x="127.246094"/>
      </g>
     </g>
    </g>
    <g id="xtick_7">
     <g id="line2d_7">
      <path d="M 556.194696 387.012 
L 556.194696 10.368 
" clip-path="url(#pe250cad189)" style="fill: none; stroke: #cccccc; stroke-width: 0.8; stroke-linecap: round"/>
     </g>
     <g id="text_7">
      <!-- 600 -->
      <g style="fill: #262626" transform="translate(547.796196 401.998625) scale(0.088 -0.088)">
       <defs>
        <path id="DejaVuSans-36" d="M 2113 2584 
Q 1688 2584 1439 2293 
Q 1191 2003 1191 1497 
Q 1191 994 1439 701 
Q 1688 409 2113 409 
Q 2538 409 2786 701 
Q 3034 994 3034 1497 
Q 3034 2003 2786 2293 
Q 2538 2584 2113 2584 
z
M 3366 4563 
L 3366 3988 
Q 3128 4100 2886 4159 
Q 2644 4219 2406 4219 
Q 1781 4219 1451 3797 
Q 1122 3375 1075 2522 
Q 1259 2794 1537 2939 
Q 1816 3084 2150 3084 
Q 2853 3084 3261 2657 
Q 3669 2231 3669 1497 
Q 3669 778 3244 343 
Q 2819 -91 2113 -91 
Q 1303 -91 875 529 
Q 447 1150 447 2328 
Q 447 3434 972 4092 
Q 1497 4750 2381 4750 
Q 2619 4750 2861 4703 
Q 3103 4656 3366 4563 
z
" transform="scale(0.015625)"/>
       </defs>
       <use xlink:href="#DejaVuSans-36"/>
       <use xlink:href="#DejaVuSans-30" x="63.623047"/>
       <use xlink:href="#DejaVuSans-30" x="127.246094"/>
      </g>
     </g>
    </g>
    <g id="text_8">
     <!-- Time (seconds) -->
     <g style="fill: #262626" transform="translate(259.64442 416.946875) scale(0.12 -0.12)">
      <defs>
       <path id="DejaVuSans-54" d="M -19 4666 
L 3928 4666 
L 3928 4134 
L 2272 4134 
L 2272 0 
L 1638 0 
L 1638 4134 
L -19 4134 
L -19 4666 
z
" transform="scale(0.015625)"/>
       <path id="DejaVuSans-69" d="M 603 3500 
L 1178 3500 
L 1178 0 
L 603 0 
L 603 3500 
z
M 603 4863 
L 1178 4863 
L 1178 4134 
L 603 4134 
L 603 4863 
z
" transform="scale(0.015625)"/>
       <path id="DejaVuSans-6d" d="M 3328 2828 
Q 3544 3216 3844 3400 
Q 4144 3584 4550 3584 
Q 5097 3584 5394 3201 
Q 5691 2819 5691 2113 
L 5691 0 
L 5113 0 
L 5113 2094 
Q 5113 2597 4934 2840 
Q 4756 3084 4391 3084 
Q 3944 3084 3684 2787 
Q 3425 2491 3425 1978 
L 3425 0 
L 2847 0 
L 2847 2094 
Q 2847 2600 2669 2842 
Q 2491 3084 2119 3084 
Q 1678 3084 1418 2786 
Q 1159 2488 1159 1978 
L 1159 0 
L 581 0 
L 581 3500 
L 1159 3500 
L 1159 2956 
Q 1356 3278 1631 3431 
Q 1906 3584 2284 3584 
Q 2666 3584 2933 3390 
Q 3200 3197 3328 2828 
z
" transform="scale(0.015625)"/>
       <path id="DejaVuSans-65" d="M 3597 1894 
L 3597 1613 
L 953 1613 
Q 991 1019 1311 708 
Q 1631 397 2203 397 
Q 2534 397 2845 478 
Q 3156 559 3463 722 
L 3463 178 
Q 3153 47 2828 -22 
Q 2503 -91 2169 -91 
Q 1331 -91 842 396 
Q 353 884 353 1716 
Q 353 2575 817 3079 
Q 1281 3584 2069 3584 
Q 2775 3584 3186 3129 
Q 3597 2675 3597 1894 
z
M 3022 2063 
Q 3016 2534 2758 2815 
Q 2500 3097 2075 3097 
Q 1594 3097 1305 2825 
Q 1016 2553 972 2059 
L 3022 2063 
z
" transform="scale(0.015625)"/>
       <path id="DejaVuSans-20" transform="scale(0.015625)"/>
       <path id="DejaVuSans-28" d="M 1984 4856 
Q 1566 4138 1362 3434 
Q 1159 2731 1159 2009 
Q 1159 1288 1364 580 
Q 1569 -128 1984 -844 
L 1484 -844 
Q 1016 -109 783 600 
Q 550 1309 550 2009 
Q 550 2706 781 3412 
Q 1013 4119 1484 4856 
L 1984 4856 
z
" transform="scale(0.015625)"/>
       <path id="DejaVuSans-73" d="M 2834 3397 
L 2834 2853 
Q 2591 2978 2328 3040 
Q 2066 3103 1784 3103 
Q 1356 3103 1142 2972 
Q 928 2841 928 2578 
Q 928 2378 1081 2264 
Q 1234 2150 1697 2047 
L 1894 2003 
Q 2506 1872 2764 1633 
Q 3022 1394 3022 966 
Q 3022 478 2636 193 
Q 2250 -91 1575 -91 
Q 1294 -91 989 -36 
Q 684 19 347 128 
L 347 722 
Q 666 556 975 473 
Q 1284 391 1588 391 
Q 1994 391 2212 530 
Q 2431 669 2431 922 
Q 2431 1156 2273 1281 
Q 2116 1406 1581 1522 
L 1381 1569 
Q 847 1681 609 1914 
Q 372 2147 372 2553 
Q 372 3047 722 3315 
Q 1072 3584 1716 3584 
Q 2034 3584 2315 3537 
Q 2597 3491 2834 3397 
z
" transform="scale(0.015625)"/>
       <path id="DejaVuSans-63" d="M 3122 3366 
L 3122 2828 
Q 2878 2963 2633 3030 
Q 2388 3097 2138 3097 
Q 1578 3097 1268 2742 
Q 959 2388 959 1747 
Q 959 1106 1268 751 
Q 1578 397 2138 397 
Q 2388 397 2633 464 
Q 2878 531 3122 666 
L 3122 134 
Q 2881 22 2623 -34 
Q 2366 -91 2075 -91 
Q 1284 -91 818 406 
Q 353 903 353 1747 
Q 353 2603 823 3093 
Q 1294 3584 2113 3584 
Q 2378 3584 2631 3529 
Q 2884 3475 3122 3366 
z
" transform="scale(0.015625)"/>
       <path id="DejaVuSans-6f" d="M 1959 3097 
Q 1497 3097 1228 2736 
Q 959 2375 959 1747 
Q 959 1119 1226 758 
Q 1494 397 1959 397 
Q 2419 397 2687 759 
Q 2956 1122 2956 1747 
Q 2956 2369 2687 2733 
Q 2419 3097 1959 3097 
z
M 1959 3584 
Q 2709 3584 3137 3096 
Q 3566 2609 3566 1747 
Q 3566 888 3137 398 
Q 2709 -91 1959 -91 
Q 1206 -91 779 398 
Q 353 888 353 1747 
Q 353 2609 779 3096 
Q 1206 3584 1959 3584 
z
" transform="scale(0.015625)"/>
       <path id="DejaVuSans-6e" d="M 3513 2113 
L 3513 0 
L 2938 0 
L 2938 2094 
Q 2938 2591 2744 2837 
Q 2550 3084 2163 3084 
Q 1697 3084 1428 2787 
Q 1159 2491 1159 1978 
L 1159 0 
L 581 0 
L 581 3500 
L 1159 3500 
L 1159 2956 
Q 1366 3272 1645 3428 
Q 1925 3584 2291 3584 
Q 2894 3584 3203 3211 
Q 3513 2838 3513 2113 
z
" transform="scale(0.015625)"/>
       <path id="DejaVuSans-64" d="M 2906 2969 
L 2906 4863 
L 3481 4863 
L 3481 0 
L 2906 0 
L 2906 525 
Q 2725 213 2448 61 
Q 2172 -91 1784 -91 
Q 1150 -91 751 415 
Q 353 922 353 1747 
Q 353 2572 751 3078 
Q 1150 3584 1784 3584 
Q 2172 3584 2448 3432 
Q 2725 3281 2906 2969 
z
M 947 1747 
Q 947 1113 1208 752 
Q 1469 391 1925 391 
Q 2381 391 2643 752 
Q 2906 1113 2906 1747 
Q 2906 2381 2643 2742 
Q 2381 3103 1925 3103 
Q 1469 3103 1208 2742 
Q 947 2381 947 1747 
z
" transform="scale(0.015625)"/>
       <path id="DejaVuSans-29" d="M 513 4856 
L 1013 4856 
Q 1481 4119 1714 3412 
Q 1947 2706 1947 2009 
Q 1947 1309 1714 600 
Q 1481 -109 1013 -844 
L 513 -844 
Q 928 -128 1133 580 
Q 1338 1288 1338 2009 
Q 1338 2731 1133 3434 
Q 928 4138 513 4856 
z
" transform="scale(0.015625)"/>
      </defs>
      <use xlink:href="#DejaVuSans-54"/>
      <use xlink:href="#DejaVuSans-69" x="57.958984"/>
      <use xlink:href="#DejaVuSans-6d" x="85.742188"/>
      <use xlink:href="#DejaVuSans-65" x="183.154297"/>
      <use xlink:href="#DejaVuSans-20" x="244.677734"/>
      <use xlink:href="#DejaVuSans-28" x="276.464844"/>
      <use xlink:href="#DejaVuSans-73" x="315.478516"/>
      <use xlink:href="#DejaVuSans-65" x="367.578125"/>
      <use xlink:href="#DejaVuSans-63" x="429.101562"/>
      <use xlink:href="#DejaVuSans-6f" x="484.082031"/>
      <use xlink:href="#DejaVuSans-6e" x="545.263672"/>
      <use xlink:href="#DejaVuSans-64" x="608.642578"/>
      <use xlink:href="#DejaVuSans-73" x="672.119141"/>
      <use xlink:href="#DejaVuSans-29" x="724.21875"/>
     </g>
    </g>
   </g>
   <g id="matplotlib.axis_2">
    <g id="ytick_1">
     <g id="line2d_8">
      <path d="M 46.878 369.891818 
L 563.998965 369.891818 
" clip-path="url(#pe250cad189)" style="fill: none; stroke: #cccccc; stroke-width: 0.8; stroke-linecap: round"/>
     </g>
     <g id="text_9">
      <!-- 0 -->
      <g style="fill: #262626" transform="translate(32.979 373.235131) scale(0.088 -0.088)">
       <use xlink:href="#DejaVuSans-30"/>
      </g>
     </g>
    </g>
    <g id="ytick_2">
     <g id="line2d_9">
      <path d="M 46.878 296.553061 
L 563.998965 296.553061 
" clip-path="url(#pe250cad189)" style="fill: none; stroke: #cccccc; stroke-width: 0.8; stroke-linecap: round"/>
     </g>
     <g id="text_10">
      <!-- 20 -->
      <g style="fill: #262626" transform="translate(27.38 299.896373) scale(0.088 -0.088)">
       <use xlink:href="#DejaVuSans-32"/>
       <use xlink:href="#DejaVuSans-30" x="63.623047"/>
      </g>
     </g>
    </g>
    <g id="ytick_3">
     <g id="line2d_10">
      <path d="M 46.878 223.214303 
L 563.998965 223.214303 
" clip-path="url(#pe250cad189)" style="fill: none; stroke: #cccccc; stroke-width: 0.8; stroke-linecap: round"/>
     </g>
     <g id="text_11">
      <!-- 40 -->
      <g style="fill: #262626" transform="translate(27.38 226.557616) scale(0.088 -0.088)">
       <use xlink:href="#DejaVuSans-34"/>
       <use xlink:href="#DejaVuSans-30" x="63.623047"/>
      </g>
     </g>
    </g>
    <g id="ytick_4">
     <g id="line2d_11">
      <path d="M 46.878 149.875546 
L 563.998965 149.875546 
" clip-path="url(#pe250cad189)" style="fill: none; stroke: #cccccc; stroke-width: 0.8; stroke-linecap: round"/>
     </g>
     <g id="text_12">
      <!-- 60 -->
      <g style="fill: #262626" transform="translate(27.38 153.218859) scale(0.088 -0.088)">
       <use xlink:href="#DejaVuSans-36"/>
       <use xlink:href="#DejaVuSans-30" x="63.623047"/>
      </g>
     </g>
    </g>
    <g id="ytick_5">
     <g id="line2d_12">
      <path d="M 46.878 76.536789 
L 563.998965 76.536789 
" clip-path="url(#pe250cad189)" style="fill: none; stroke: #cccccc; stroke-width: 0.8; stroke-linecap: round"/>
     </g>
     <g id="text_13">
      <!-- 80 -->
      <g style="fill: #262626" transform="translate(27.38 79.880101) scale(0.088 -0.088)">
       <defs>
        <path id="DejaVuSans-38" d="M 2034 2216 
Q 1584 2216 1326 1975 
Q 1069 1734 1069 1313 
Q 1069 891 1326 650 
Q 1584 409 2034 409 
Q 2484 409 2743 651 
Q 3003 894 3003 1313 
Q 3003 1734 2745 1975 
Q 2488 2216 2034 2216 
z
M 1403 2484 
Q 997 2584 770 2862 
Q 544 3141 544 3541 
Q 544 4100 942 4425 
Q 1341 4750 2034 4750 
Q 2731 4750 3128 4425 
Q 3525 4100 3525 3541 
Q 3525 3141 3298 2862 
Q 3072 2584 2669 2484 
Q 3125 2378 3379 2068 
Q 3634 1759 3634 1313 
Q 3634 634 3220 271 
Q 2806 -91 2034 -91 
Q 1263 -91 848 271 
Q 434 634 434 1313 
Q 434 1759 690 2068 
Q 947 2378 1403 2484 
z
M 1172 3481 
Q 1172 3119 1398 2916 
Q 1625 2713 2034 2713 
Q 2441 2713 2670 2916 
Q 2900 3119 2900 3481 
Q 2900 3844 2670 4047 
Q 2441 4250 2034 4250 
Q 1625 4250 1398 4047 
Q 1172 3844 1172 3481 
z
" transform="scale(0.015625)"/>
       </defs>
       <use xlink:href="#DejaVuSans-38"/>
       <use xlink:href="#DejaVuSans-30" x="63.623047"/>
      </g>
     </g>
    </g>
    <g id="text_14">
     <!-- GPU Utilization (%) -->
     <g style="fill: #262626" transform="translate(20.884375 255.6075) rotate(-90) scale(0.12 -0.12)">
      <defs>
       <path id="DejaVuSans-47" d="M 3809 666 
L 3809 1919 
L 2778 1919 
L 2778 2438 
L 4434 2438 
L 4434 434 
Q 4069 175 3628 42 
Q 3188 -91 2688 -91 
Q 1594 -91 976 548 
Q 359 1188 359 2328 
Q 359 3472 976 4111 
Q 1594 4750 2688 4750 
Q 3144 4750 3555 4637 
Q 3966 4525 4313 4306 
L 4313 3634 
Q 3963 3931 3569 4081 
Q 3175 4231 2741 4231 
Q 1884 4231 1454 3753 
Q 1025 3275 1025 2328 
Q 1025 1384 1454 906 
Q 1884 428 2741 428 
Q 3075 428 3337 486 
Q 3600 544 3809 666 
z
" transform="scale(0.015625)"/>
       <path id="DejaVuSans-50" d="M 1259 4147 
L 1259 2394 
L 2053 2394 
Q 2494 2394 2734 2622 
Q 2975 2850 2975 3272 
Q 2975 3691 2734 3919 
Q 2494 4147 2053 4147 
L 1259 4147 
z
M 628 4666 
L 2053 4666 
Q 2838 4666 3239 4311 
Q 3641 3956 3641 3272 
Q 3641 2581 3239 2228 
Q 2838 1875 2053 1875 
L 1259 1875 
L 1259 0 
L 628 0 
L 628 4666 
z
" transform="scale(0.015625)"/>
       <path id="DejaVuSans-55" d="M 556 4666 
L 1191 4666 
L 1191 1831 
Q 1191 1081 1462 751 
Q 1734 422 2344 422 
Q 2950 422 3222 751 
Q 3494 1081 3494 1831 
L 3494 4666 
L 4128 4666 
L 4128 1753 
Q 4128 841 3676 375 
Q 3225 -91 2344 -91 
Q 1459 -91 1007 375 
Q 556 841 556 1753 
L 556 4666 
z
" transform="scale(0.015625)"/>
       <path id="DejaVuSans-74" d="M 1172 4494 
L 1172 3500 
L 2356 3500 
L 2356 3053 
L 1172 3053 
L 1172 1153 
Q 1172 725 1289 603 
Q 1406 481 1766 481 
L 2356 481 
L 2356 0 
L 1766 0 
Q 1100 0 847 248 
Q 594 497 594 1153 
L 594 3053 
L 172 3053 
L 172 3500 
L 594 3500 
L 594 4494 
L 1172 4494 
z
" transform="scale(0.015625)"/>
       <path id="DejaVuSans-6c" d="M 603 4863 
L 1178 4863 
L 1178 0 
L 603 0 
L 603 4863 
z
" transform="scale(0.015625)"/>
       <path id="DejaVuSans-7a" d="M 353 3500 
L 3084 3500 
L 3084 2975 
L 922 459 
L 3084 459 
L 3084 0 
L 275 0 
L 275 525 
L 2438 3041 
L 353 3041 
L 353 3500 
z
" transform="scale(0.015625)"/>
       <path id="DejaVuSans-61" d="M 2194 1759 
Q 1497 1759 1228 1600 
Q 959 1441 959 1056 
Q 959 750 1161 570 
Q 1363 391 1709 391 
Q 2188 391 2477 730 
Q 2766 1069 2766 1631 
L 2766 1759 
L 2194 1759 
z
M 3341 1997 
L 3341 0 
L 2766 0 
L 2766 531 
Q 2569 213 2275 61 
Q 1981 -91 1556 -91 
Q 1019 -91 701 211 
Q 384 513 384 1019 
Q 384 1609 779 1909 
Q 1175 2209 1959 2209 
L 2766 2209 
L 2766 2266 
Q 2766 2663 2505 2880 
Q 2244 3097 1772 3097 
Q 1472 3097 1187 3025 
Q 903 2953 641 2809 
L 641 3341 
Q 956 3463 1253 3523 
Q 1550 3584 1831 3584 
Q 2591 3584 2966 3190 
Q 3341 2797 3341 1997 
z
" transform="scale(0.015625)"/>
       <path id="DejaVuSans-25" d="M 4653 2053 
Q 4381 2053 4226 1822 
Q 4072 1591 4072 1178 
Q 4072 772 4226 539 
Q 4381 306 4653 306 
Q 4919 306 5073 539 
Q 5228 772 5228 1178 
Q 5228 1588 5073 1820 
Q 4919 2053 4653 2053 
z
M 4653 2450 
Q 5147 2450 5437 2106 
Q 5728 1763 5728 1178 
Q 5728 594 5436 251 
Q 5144 -91 4653 -91 
Q 4153 -91 3862 251 
Q 3572 594 3572 1178 
Q 3572 1766 3864 2108 
Q 4156 2450 4653 2450 
z
M 1428 4353 
Q 1159 4353 1004 4120 
Q 850 3888 850 3481 
Q 850 3069 1003 2837 
Q 1156 2606 1428 2606 
Q 1700 2606 1854 2837 
Q 2009 3069 2009 3481 
Q 2009 3884 1853 4118 
Q 1697 4353 1428 4353 
z
M 4250 4750 
L 4750 4750 
L 1831 -91 
L 1331 -91 
L 4250 4750 
z
M 1428 4750 
Q 1922 4750 2215 4408 
Q 2509 4066 2509 3481 
Q 2509 2891 2217 2550 
Q 1925 2209 1428 2209 
Q 931 2209 642 2551 
Q 353 2894 353 3481 
Q 353 4063 643 4406 
Q 934 4750 1428 4750 
z
" transform="scale(0.015625)"/>
      </defs>
      <use xlink:href="#DejaVuSans-47"/>
      <use xlink:href="#DejaVuSans-50" x="77.490234"/>
      <use xlink:href="#DejaVuSans-55" x="137.792969"/>
      <use xlink:href="#DejaVuSans-20" x="210.986328"/>
      <use xlink:href="#DejaVuSans-55" x="242.773438"/>
      <use xlink:href="#DejaVuSans-74" x="315.966797"/>
      <use xlink:href="#DejaVuSans-69" x="355.175781"/>
      <use xlink:href="#DejaVuSans-6c" x="382.958984"/>
      <use xlink:href="#DejaVuSans-69" x="410.742188"/>
      <use xlink:href="#DejaVuSans-7a" x="438.525391"/>
      <use xlink:href="#DejaVuSans-61" x="491.015625"/>
      <use xlink:href="#DejaVuSans-74" x="552.294922"/>
      <use xlink:href="#DejaVuSans-69" x="591.503906"/>
      <use xlink:href="#DejaVuSans-6f" x="619.287109"/>
      <use xlink:href="#DejaVuSans-6e" x="680.46875"/>
      <use xlink:href="#DejaVuSans-20" x="743.847656"/>
      <use xlink:href="#DejaVuSans-28" x="775.634766"/>
      <use xlink:href="#DejaVuSans-25" x="814.648438"/>
      <use xlink:href="#DejaVuSans-29" x="909.667969"/>
     </g>
    </g>
   </g>
   <g id="PolyCollection_1"/>
   <g id="line2d_13">
    <path d="M 70.383498 369.891818 
L 72.253769 369.782318 
L 73.483613 369.648222 
L 73.724932 369.278483 
L 74.107341 368.324079 
L 74.953871 366.181871 
L 76.05042 363.055738 
L 77.887874 357.442853 
L 79.088762 354.121301 
L 79.698219 352.772509 
L 81.372588 347.982957 
L 83.559332 341.599801 
L 84.646361 339.113505 
L 88.319498 328.776057 
L 89.273034 326.658624 
L 90.74595 322.573391 
L 92.853106 316.657773 
L 94.396866 313.155877 
L 97.497923 304.7126 
L 98.683846 302.308883 
L 102.463178 292.665249 
L 103.070361 291.582971 
L 105.742407 284.943988 
L 106.913506 282.197624 
L 107.781152 280.816813 
L 109.029484 277.862094 
L 111.627888 271.792232 
L 112.264499 270.843427 
L 112.972637 269.303664 
L 115.463363 263.88692 
L 116.610961 261.864799 
L 117.109135 261.087855 
L 119.401839 256.02965 
L 120.762322 253.070673 
L 121.74811 251.73255 
L 122.477828 250.310814 
L 125.0741 244.592693 
L 125.934039 243.186305 
L 126.667749 242.038589 
L 130.338823 234.767493 
L 131.333771 233.505579 
L 132.657136 231.068751 
L 134.726383 227.089191 
L 135.221994 226.433103 
L 136.067984 225.320751 
L 138.173573 221.247543 
L 139.501361 218.740081 
L 141.135091 216.378095 
L 144.802023 210.057209 
L 145.159525 209.620339 
L 146.596908 207.022139 
L 148.799931 203.10441 
L 149.274428 202.496539 
L 149.869528 201.86058 
L 153.934637 195.236027 
L 154.710606 194.452113 
L 158.383927 188.737929 
L 159.594546 187.39745 
L 162.794621 182.446412 
L 164.27087 180.915099 
L 166.190513 178.019924 
L 167.57121 176.01766 
L 168.286206 175.451607 
L 168.554318 175.198862 
L 172.595245 169.545919 
L 173.320737 168.974392 
L 174.417025 167.440855 
L 176.599201 164.306988 
L 177.203876 163.689945 
L 177.795189 163.240258 
L 181.672982 158.112784 
L 182.668071 157.396126 
L 186.558199 152.435111 
L 187.275851 151.954955 
L 189.79197 148.672519 
L 190.837445 147.39771 
L 191.944306 146.747408 
L 194.571936 143.42125 
L 195.610576 142.200848 
L 196.602878 141.65134 
L 199.255879 138.475121 
L 200.310817 137.317285 
L 201.055794 137.055894 
L 202.083416 135.899787 
L 204.996081 132.706965 
L 205.985363 132.16368 
L 208.210983 129.703095 
L 209.468066 128.395226 
L 209.84217 128.184919 
L 210.460613 128.000266 
L 211.868683 126.543665 
L 213.825075 124.451573 
L 214.536123 123.912695 
L 215.287966 123.628966 
L 219.071077 119.917104 
L 219.780706 119.660937 
L 223.822733 115.828148 
L 224.790047 115.364512 
L 225.562917 114.625526 
L 227.969175 112.301635 
L 228.443351 111.990503 
L 229.172843 111.836763 
L 233.008789 108.482652 
L 233.856771 108.27776 
L 237.731641 104.981128 
L 238.571894 104.797007 
L 242.494658 101.562521 
L 243.084524 101.46685 
L 247.071756 98.287766 
L 247.923143 98.14305 
L 248.63071 97.596752 
L 251.604363 95.200774 
L 252.579203 95.117432 
L 256.264609 92.372982 
L 257.349212 92.208577 
L 261.021847 89.596277 
L 261.857098 89.54883 
L 262.433228 89.161803 
L 265.814137 86.863461 
L 266.531674 86.904026 
L 270.447144 84.237892 
L 271.539407 84.025827 
L 272.950482 83.032377 
L 274.472373 81.980227 
L 275.487235 81.732789 
L 275.843652 81.69882 
L 278.221333 80.208521 
L 279.560588 79.391507 
L 279.798495 79.334529 
L 280.627486 79.300193 
L 284.422241 76.921574 
L 285.283489 76.918662 
L 287.608001 75.501871 
L 289.125876 74.702822 
L 289.723803 74.818077 
L 290.982503 74.092445 
L 293.872371 72.487291 
L 294.615867 72.529653 
L 298.272737 70.456201 
L 299.255365 70.467728 
L 303.097053 68.570797 
L 303.808616 68.614635 
L 305.472894 67.727556 
L 307.805447 66.56459 
L 308.640515 66.65587 
L 311.861644 65.051103 
L 312.344368 64.925012 
L 313.183237 65.031357 
L 317.088866 63.124873 
L 317.919369 63.196364 
L 321.559984 61.428949 
L 321.911756 61.470611 
L 322.407878 61.523364 
L 326.221006 59.735064 
L 326.932487 59.868599 
L 327.169132 59.850571 
L 330.981955 58.125525 
L 331.930971 58.282987 
L 335.715868 56.766365 
L 336.316262 56.952836 
L 337.684543 56.344087 
L 340.475003 55.309327 
L 341.069519 55.459076 
L 342.625848 54.81229 
L 344.468748 54.047381 
L 345.070116 53.907244 
L 345.789006 54.159648 
L 347.362838 53.523599 
L 349.671499 52.77103 
L 350.503631 52.94031 
L 354.025216 51.576841 
L 354.380739 51.5125 
L 355.118862 51.665755 
L 356.66315 51.053459 
L 358.632308 50.29779 
L 359.1055 50.197658 
L 359.818672 50.410108 
L 363.556369 49.042932 
L 364.179097 49.260612 
L 364.550577 49.316635 
L 368.474104 47.999305 
L 369.184611 48.158955 
L 372.868147 46.861774 
L 373.223619 46.947083 
L 373.69766 47.050472 
L 375.832908 46.348118 
L 377.503191 45.785703 
L 378.104576 45.946577 
L 378.462549 45.997886 
L 382.154074 44.810289 
L 382.511661 44.828477 
L 383.11163 44.957235 
L 386.903345 43.766277 
L 387.743307 44.016737 
L 391.529869 42.763506 
L 392.72062 42.978521 
L 393.303087 42.820227 
L 396.040294 41.961211 
L 396.637413 42.126523 
L 396.997121 42.185618 
L 399.227844 41.554695 
L 401.028075 41.117338 
L 401.624331 41.370908 
L 404.732284 40.450358 
L 405.578805 40.263617 
L 405.935024 40.387021 
L 406.538318 40.556279 
L 409.666571 39.6834 
L 410.269277 39.629574 
L 411.111623 39.839247 
L 414.692423 38.865079 
L 414.934076 38.870779 
L 415.879975 39.079294 
L 418.070346 38.51413 
L 419.768095 38.225424 
L 420.480517 38.520547 
L 422.990994 37.81115 
L 424.12129 37.528735 
L 425.249824 37.738982 
L 425.82003 37.599515 
L 428.245427 36.923201 
L 429.086084 36.903903 
L 429.808551 37.166537 
L 433.40477 36.277471 
L 433.642506 36.324995 
L 434.480542 36.587036 
L 438.378718 35.819106 
L 438.975957 36.029461 
L 440.933365 35.566501 
L 443.055869 35.16907 
L 443.770718 35.394472 
L 445.657672 34.956781 
L 447.352253 34.560258 
L 448.06453 34.807935 
L 448.302062 34.840003 
L 450.795012 34.292966 
L 452.16405 34.009436 
L 452.809495 34.272905 
L 453.053766 34.320695 
L 456.241617 33.608385 
L 457.071423 33.586552 
L 457.698982 33.863081 
L 459.257691 33.494771 
L 461.356376 33.026196 
L 462.588947 33.301708 
L 464.99449 32.718807 
L 466.121709 32.483365 
L 467.19085 32.823018 
L 470.714109 32.062811 
L 471.06674 32.192484 
L 471.65745 32.453952 
L 474.500373 31.861827 
L 475.531675 31.729291 
L 476.362578 32.063724 
L 480.118658 31.2468 
L 481.189313 31.575525 
L 482.936985 31.24878 
L 484.12668 31.043806 
L 484.822601 30.924756 
L 485.775077 31.295335 
L 489.291391 30.55387 
L 489.647455 30.629457 
L 490.479608 30.920192 
L 494.159853 30.186401 
L 494.901928 30.529572 
L 495.440625 30.51553 
L 499.009198 29.941062 
L 499.749865 30.230712 
L 503.66092 29.645398 
L 504.525371 29.972406 
L 508.346751 29.327641 
L 509.214159 29.642118 
L 512.788936 28.938816 
L 513.787718 29.372783 
L 517.077876 28.78407 
L 517.692588 28.766352 
L 518.579868 29.172691 
L 521.757292 28.578328 
L 522.253023 28.575933 
L 523.240464 28.950584 
L 526.907241 28.251511 
L 527.776845 28.628484 
L 529.480929 28.318868 
L 531.484557 27.961587 
L 531.731479 28.007422 
L 532.470553 28.290427 
L 534.841504 27.917635 
L 536.321386 27.674794 
L 536.695784 27.835828 
L 537.291295 28.071348 
L 540.221418 27.488182 
L 540.330642 27.500561 
L 540.493467 27.839285 
L 540.493467 27.839285 
" clip-path="url(#pe250cad189)" style="fill: none; stroke: #4e79a7; stroke-width: 2; stroke-linecap: round"/>
   </g>
   <g id="patch_3">
    <path d="M 46.878 387.012 
L 46.878 10.368 
" style="fill: none; stroke: #cccccc; stroke-linejoin: miter; stroke-linecap: square"/>
   </g>
   <g id="patch_4">
    <path d="M 563.998965 387.012 
L 563.998965 10.368 
" style="fill: none; stroke: #cccccc; stroke-linejoin: miter; stroke-linecap: square"/>
   </g>
   <g id="patch_5">
    <path d="M 46.878 387.012 
L 563.998965 387.012 
" style="fill: none; stroke: #cccccc; stroke-linejoin: miter; stroke-linecap: square"/>
   </g>
   <g id="patch_6">
    <path d="M 46.878 10.368 
L 563.998965 10.368 
" style="fill: none; stroke: #cccccc; stroke-linejoin: miter; stroke-linecap: square"/>
   </g>
   <g id="legend_1">
    <g id="patch_7">
     <path d="M 53.038 30.32475 
L 126.153625 30.32475 
Q 127.913625 30.32475 127.913625 28.56475 
L 127.913625 16.528 
Q 127.913625 14.768 126.153625 14.768 
L 53.038 14.768 
Q 51.278 14.768 51.278 16.528 
L 51.278 28.56475 
Q 51.278 30.32475 53.038 30.32475 
z
" style="fill: #ffffff; opacity: 0.8; stroke: #cccccc; stroke-width: 0.8; stroke-linejoin: miter"/>
    </g>
    <g id="line2d_14">
     <path d="M 54.798 21.894625 
L 63.598 21.894625 
L 72.398 21.894625 
" style="fill: none; stroke: #4e79a7; stroke-width: 2; stroke-linecap: round"/>
    </g>
    <g id="text_15">
     <!-- Smoothed -->
     <g style="fill: #262626" transform="translate(79.438 24.974625) scale(0.088 -0.088)">
      <defs>
       <path id="DejaVuSans-53" d="M 3425 4513 
L 3425 3897 
Q 3066 4069 2747 4153 
Q 2428 4238 2131 4238 
Q 1616 4238 1336 4038 
Q 1056 3838 1056 3469 
Q 1056 3159 1242 3001 
Q 1428 2844 1947 2747 
L 2328 2669 
Q 3034 2534 3370 2195 
Q 3706 1856 3706 1288 
Q 3706 609 3251 259 
Q 2797 -91 1919 -91 
Q 1588 -91 1214 -16 
Q 841 59 441 206 
L 441 856 
Q 825 641 1194 531 
Q 1563 422 1919 422 
Q 2459 422 2753 634 
Q 3047 847 3047 1241 
Q 3047 1584 2836 1778 
Q 2625 1972 2144 2069 
L 1759 2144 
Q 1053 2284 737 2584 
Q 422 2884 422 3419 
Q 422 4038 858 4394 
Q 1294 4750 2059 4750 
Q 2388 4750 2728 4690 
Q 3069 4631 3425 4513 
z
" transform="scale(0.015625)"/>
       <path id="DejaVuSans-68" d="M 3513 2113 
L 3513 0 
L 2938 0 
L 2938 2094 
Q 2938 2591 2744 2837 
Q 2550 3084 2163 3084 
Q 1697 3084 1428 2787 
Q 1159 2491 1159 1978 
L 1159 0 
L 581 0 
L 581 4863 
L 1159 4863 
L 1159 2956 
Q 1366 3272 1645 3428 
Q 1925 3584 2291 3584 
Q 2894 3584 3203 3211 
Q 3513 2838 3513 2113 
z
" transform="scale(0.015625)"/>
      </defs>
      <use xlink:href="#DejaVuSans-53"/>
      <use xlink:href="#DejaVuSans-6d" x="63.476562"/>
      <use xlink:href="#DejaVuSans-6f" x="160.888672"/>
      <use xlink:href="#DejaVuSans-6f" x="222.070312"/>
      <use xlink:href="#DejaVuSans-74" x="283.251953"/>
      <use xlink:href="#DejaVuSans-68" x="322.460938"/>
      <use xlink:href="#DejaVuSans-65" x="385.839844"/>
      <use xlink:href="#DejaVuSans-64" x="447.363281"/>
     </g>
    </g>
   </g>
  </g>
 </g>
 <defs>
  <clipPath id="pe250cad189">
   <rect x="46.878" y="10.368" width="517.120965" height="376.644"/>
  </clipPath>
 </defs>
</svg>
