<?xml version="1.0" encoding="utf-8" standalone="no"?>
<!DOCTYPE svg PUBLIC "-//W3C//DTD SVG 1.1//EN"
  "http://www.w3.org/Graphics/SVG/1.1/DTD/svg11.dtd">
<svg xmlns:xlink="http://www.w3.org/1999/xlink" width="864pt" height="432pt" viewBox="0 0 864 432" xmlns="http://www.w3.org/2000/svg" version="1.1">
 <metadata>
  <rdf:RDF xmlns:dc="http://purl.org/dc/elements/1.1/" xmlns:cc="http://creativecommons.org/ns#" xmlns:rdf="http://www.w3.org/1999/02/22-rdf-syntax-ns#">
   <cc:Work>
    <dc:type rdf:resource="http://purl.org/dc/dcmitype/StillImage"/>
    <dc:date>2024-07-02T10:53:49.519486</dc:date>
    <dc:format>image/svg+xml</dc:format>
    <dc:creator>
     <cc:Agent>
      <dc:title>Matplotlib v3.9.0, https://matplotlib.org/</dc:title>
     </cc:Agent>
    </dc:creator>
   </cc:Work>
  </rdf:RDF>
 </metadata>
 <defs>
  <style type="text/css">*{stroke-linejoin: round; stroke-linecap: butt}</style>
 </defs>
 <g id="figure_1">
  <g id="patch_1">
   <path d="M 0 432 
L 864 432 
L 864 0 
L 0 0 
z
" style="fill: #ffffff"/>
  </g>
  <g id="axes_1">
   <g id="patch_2">
    <path d="M 52.368 387.012 
L 848.052 387.012 
L 848.052 27.888 
L 52.368 27.888 
z
" style="fill: #ffffff"/>
   </g>
   <g id="matplotlib.axis_1">
    <g id="xtick_1">
     <g id="line2d_1">
      <path d="M 52.368 387.012 
L 52.368 27.888 
" clip-path="url(#p682c4ecd6b)" style="fill: none; stroke: #cccccc; stroke-width: 0.8; stroke-linecap: round"/>
     </g>
     <g id="text_1">
      <!-- 0 -->
      <g style="fill: #262626" transform="translate(49.5685 401.998625) scale(0.088 -0.088)">
       <defs>
        <path id="DejaVuSans-30" d="M 2034 4250 
Q 1547 4250 1301 3770 
Q 1056 3291 1056 2328 
Q 1056 1369 1301 889 
Q 1547 409 2034 409 
Q 2525 409 2770 889 
Q 3016 1369 3016 2328 
Q 3016 3291 2770 3770 
Q 2525 4250 2034 4250 
z
M 2034 4750 
Q 2819 4750 3233 4129 
Q 3647 3509 3647 2328 
Q 3647 1150 3233 529 
Q 2819 -91 2034 -91 
Q 1250 -91 836 529 
Q 422 1150 422 2328 
Q 422 3509 836 4129 
Q 1250 4750 2034 4750 
z
" transform="scale(0.015625)"/>
       </defs>
       <use xlink:href="#DejaVuSans-30"/>
      </g>
     </g>
    </g>
    <g id="xtick_2">
     <g id="line2d_2">
      <path d="M 184.982 387.012 
L 184.982 27.888 
" clip-path="url(#p682c4ecd6b)" style="fill: none; stroke: #cccccc; stroke-width: 0.8; stroke-linecap: round"/>
     </g>
     <g id="text_2">
      <!-- 10 -->
      <g style="fill: #262626" transform="translate(179.383 401.998625) scale(0.088 -0.088)">
       <defs>
        <path id="DejaVuSans-31" d="M 794 531 
L 1825 531 
L 1825 4091 
L 703 3866 
L 703 4441 
L 1819 4666 
L 2450 4666 
L 2450 531 
L 3481 531 
L 3481 0 
L 794 0 
L 794 531 
z
" transform="scale(0.015625)"/>
       </defs>
       <use xlink:href="#DejaVuSans-31"/>
       <use xlink:href="#DejaVuSans-30" x="63.623047"/>
      </g>
     </g>
    </g>
    <g id="xtick_3">
     <g id="line2d_3">
      <path d="M 317.596 387.012 
L 317.596 27.888 
" clip-path="url(#p682c4ecd6b)" style="fill: none; stroke: #cccccc; stroke-width: 0.8; stroke-linecap: round"/>
     </g>
     <g id="text_3">
      <!-- 20 -->
      <g style="fill: #262626" transform="translate(311.997 401.998625) scale(0.088 -0.088)">
       <defs>
        <path id="DejaVuSans-32" d="M 1228 531 
L 3431 531 
L 3431 0 
L 469 0 
L 469 531 
Q 828 903 1448 1529 
Q 2069 2156 2228 2338 
Q 2531 2678 2651 2914 
Q 2772 3150 2772 3378 
Q 2772 3750 2511 3984 
Q 2250 4219 1831 4219 
Q 1534 4219 1204 4116 
Q 875 4013 500 3803 
L 500 4441 
Q 881 4594 1212 4672 
Q 1544 4750 1819 4750 
Q 2544 4750 2975 4387 
Q 3406 4025 3406 3419 
Q 3406 3131 3298 2873 
Q 3191 2616 2906 2266 
Q 2828 2175 2409 1742 
Q 1991 1309 1228 531 
z
" transform="scale(0.015625)"/>
       </defs>
       <use xlink:href="#DejaVuSans-32"/>
       <use xlink:href="#DejaVuSans-30" x="63.623047"/>
      </g>
     </g>
    </g>
    <g id="xtick_4">
     <g id="line2d_4">
      <path d="M 450.21 387.012 
L 450.21 27.888 
" clip-path="url(#p682c4ecd6b)" style="fill: none; stroke: #cccccc; stroke-width: 0.8; stroke-linecap: round"/>
     </g>
     <g id="text_4">
      <!-- 30 -->
      <g style="fill: #262626" transform="translate(444.611 401.998625) scale(0.088 -0.088)">
       <defs>
        <path id="DejaVuSans-33" d="M 2597 2516 
Q 3050 2419 3304 2112 
Q 3559 1806 3559 1356 
Q 3559 666 3084 287 
Q 2609 -91 1734 -91 
Q 1441 -91 1130 -33 
Q 819 25 488 141 
L 488 750 
Q 750 597 1062 519 
Q 1375 441 1716 441 
Q 2309 441 2620 675 
Q 2931 909 2931 1356 
Q 2931 1769 2642 2001 
Q 2353 2234 1838 2234 
L 1294 2234 
L 1294 2753 
L 1863 2753 
Q 2328 2753 2575 2939 
Q 2822 3125 2822 3475 
Q 2822 3834 2567 4026 
Q 2313 4219 1838 4219 
Q 1578 4219 1281 4162 
Q 984 4106 628 3988 
L 628 4550 
Q 988 4650 1302 4700 
Q 1616 4750 1894 4750 
Q 2613 4750 3031 4423 
Q 3450 4097 3450 3541 
Q 3450 3153 3228 2886 
Q 3006 2619 2597 2516 
z
" transform="scale(0.015625)"/>
       </defs>
       <use xlink:href="#DejaVuSans-33"/>
       <use xlink:href="#DejaVuSans-30" x="63.623047"/>
      </g>
     </g>
    </g>
    <g id="xtick_5">
     <g id="line2d_5">
      <path d="M 582.824 387.012 
L 582.824 27.888 
" clip-path="url(#p682c4ecd6b)" style="fill: none; stroke: #cccccc; stroke-width: 0.8; stroke-linecap: round"/>
     </g>
     <g id="text_5">
      <!-- 40 -->
      <g style="fill: #262626" transform="translate(577.225 401.998625) scale(0.088 -0.088)">
       <defs>
        <path id="DejaVuSans-34" d="M 2419 4116 
L 825 1625 
L 2419 1625 
L 2419 4116 
z
M 2253 4666 
L 3047 4666 
L 3047 1625 
L 3713 1625 
L 3713 1100 
L 3047 1100 
L 3047 0 
L 2419 0 
L 2419 1100 
L 313 1100 
L 313 1709 
L 2253 4666 
z
" transform="scale(0.015625)"/>
       </defs>
       <use xlink:href="#DejaVuSans-34"/>
       <use xlink:href="#DejaVuSans-30" x="63.623047"/>
      </g>
     </g>
    </g>
    <g id="xtick_6">
     <g id="line2d_6">
      <path d="M 715.438 387.012 
L 715.438 27.888 
" clip-path="url(#p682c4ecd6b)" style="fill: none; stroke: #cccccc; stroke-width: 0.8; stroke-linecap: round"/>
     </g>
     <g id="text_6">
      <!-- 50 -->
      <g style="fill: #262626" transform="translate(709.839 401.998625) scale(0.088 -0.088)">
       <defs>
        <path id="DejaVuSans-35" d="M 691 4666 
L 3169 4666 
L 3169 4134 
L 1269 4134 
L 1269 2991 
Q 1406 3038 1543 3061 
Q 1681 3084 1819 3084 
Q 2600 3084 3056 2656 
Q 3513 2228 3513 1497 
Q 3513 744 3044 326 
Q 2575 -91 1722 -91 
Q 1428 -91 1123 -41 
Q 819 9 494 109 
L 494 744 
Q 775 591 1075 516 
Q 1375 441 1709 441 
Q 2250 441 2565 725 
Q 2881 1009 2881 1497 
Q 2881 1984 2565 2268 
Q 2250 2553 1709 2553 
Q 1456 2553 1204 2497 
Q 953 2441 691 2322 
L 691 4666 
z
" transform="scale(0.015625)"/>
       </defs>
       <use xlink:href="#DejaVuSans-35"/>
       <use xlink:href="#DejaVuSans-30" x="63.623047"/>
      </g>
     </g>
    </g>
    <g id="xtick_7">
     <g id="line2d_7">
      <path d="M 848.052 387.012 
L 848.052 27.888 
" clip-path="url(#p682c4ecd6b)" style="fill: none; stroke: #cccccc; stroke-width: 0.8; stroke-linecap: round"/>
     </g>
     <g id="text_7">
      <!-- 60 -->
      <g style="fill: #262626" transform="translate(842.453 401.998625) scale(0.088 -0.088)">
       <defs>
        <path id="DejaVuSans-36" d="M 2113 2584 
Q 1688 2584 1439 2293 
Q 1191 2003 1191 1497 
Q 1191 994 1439 701 
Q 1688 409 2113 409 
Q 2538 409 2786 701 
Q 3034 994 3034 1497 
Q 3034 2003 2786 2293 
Q 2538 2584 2113 2584 
z
M 3366 4563 
L 3366 3988 
Q 3128 4100 2886 4159 
Q 2644 4219 2406 4219 
Q 1781 4219 1451 3797 
Q 1122 3375 1075 2522 
Q 1259 2794 1537 2939 
Q 1816 3084 2150 3084 
Q 2853 3084 3261 2657 
Q 3669 2231 3669 1497 
Q 3669 778 3244 343 
Q 2819 -91 2113 -91 
Q 1303 -91 875 529 
Q 447 1150 447 2328 
Q 447 3434 972 4092 
Q 1497 4750 2381 4750 
Q 2619 4750 2861 4703 
Q 3103 4656 3366 4563 
z
" transform="scale(0.015625)"/>
       </defs>
       <use xlink:href="#DejaVuSans-36"/>
       <use xlink:href="#DejaVuSans-30" x="63.623047"/>
      </g>
     </g>
    </g>
    <g id="text_8">
     <!-- Time (seconds) -->
     <g style="fill: #262626" transform="translate(404.415937 416.946875) scale(0.12 -0.12)">
      <defs>
       <path id="DejaVuSans-54" d="M -19 4666 
L 3928 4666 
L 3928 4134 
L 2272 4134 
L 2272 0 
L 1638 0 
L 1638 4134 
L -19 4134 
L -19 4666 
z
" transform="scale(0.015625)"/>
       <path id="DejaVuSans-69" d="M 603 3500 
L 1178 3500 
L 1178 0 
L 603 0 
L 603 3500 
z
M 603 4863 
L 1178 4863 
L 1178 4134 
L 603 4134 
L 603 4863 
z
" transform="scale(0.015625)"/>
       <path id="DejaVuSans-6d" d="M 3328 2828 
Q 3544 3216 3844 3400 
Q 4144 3584 4550 3584 
Q 5097 3584 5394 3201 
Q 5691 2819 5691 2113 
L 5691 0 
L 5113 0 
L 5113 2094 
Q 5113 2597 4934 2840 
Q 4756 3084 4391 3084 
Q 3944 3084 3684 2787 
Q 3425 2491 3425 1978 
L 3425 0 
L 2847 0 
L 2847 2094 
Q 2847 2600 2669 2842 
Q 2491 3084 2119 3084 
Q 1678 3084 1418 2786 
Q 1159 2488 1159 1978 
L 1159 0 
L 581 0 
L 581 3500 
L 1159 3500 
L 1159 2956 
Q 1356 3278 1631 3431 
Q 1906 3584 2284 3584 
Q 2666 3584 2933 3390 
Q 3200 3197 3328 2828 
z
" transform="scale(0.015625)"/>
       <path id="DejaVuSans-65" d="M 3597 1894 
L 3597 1613 
L 953 1613 
Q 991 1019 1311 708 
Q 1631 397 2203 397 
Q 2534 397 2845 478 
Q 3156 559 3463 722 
L 3463 178 
Q 3153 47 2828 -22 
Q 2503 -91 2169 -91 
Q 1331 -91 842 396 
Q 353 884 353 1716 
Q 353 2575 817 3079 
Q 1281 3584 2069 3584 
Q 2775 3584 3186 3129 
Q 3597 2675 3597 1894 
z
M 3022 2063 
Q 3016 2534 2758 2815 
Q 2500 3097 2075 3097 
Q 1594 3097 1305 2825 
Q 1016 2553 972 2059 
L 3022 2063 
z
" transform="scale(0.015625)"/>
       <path id="DejaVuSans-20" transform="scale(0.015625)"/>
       <path id="DejaVuSans-28" d="M 1984 4856 
Q 1566 4138 1362 3434 
Q 1159 2731 1159 2009 
Q 1159 1288 1364 580 
Q 1569 -128 1984 -844 
L 1484 -844 
Q 1016 -109 783 600 
Q 550 1309 550 2009 
Q 550 2706 781 3412 
Q 1013 4119 1484 4856 
L 1984 4856 
z
" transform="scale(0.015625)"/>
       <path id="DejaVuSans-73" d="M 2834 3397 
L 2834 2853 
Q 2591 2978 2328 3040 
Q 2066 3103 1784 3103 
Q 1356 3103 1142 2972 
Q 928 2841 928 2578 
Q 928 2378 1081 2264 
Q 1234 2150 1697 2047 
L 1894 2003 
Q 2506 1872 2764 1633 
Q 3022 1394 3022 966 
Q 3022 478 2636 193 
Q 2250 -91 1575 -91 
Q 1294 -91 989 -36 
Q 684 19 347 128 
L 347 722 
Q 666 556 975 473 
Q 1284 391 1588 391 
Q 1994 391 2212 530 
Q 2431 669 2431 922 
Q 2431 1156 2273 1281 
Q 2116 1406 1581 1522 
L 1381 1569 
Q 847 1681 609 1914 
Q 372 2147 372 2553 
Q 372 3047 722 3315 
Q 1072 3584 1716 3584 
Q 2034 3584 2315 3537 
Q 2597 3491 2834 3397 
z
" transform="scale(0.015625)"/>
       <path id="DejaVuSans-63" d="M 3122 3366 
L 3122 2828 
Q 2878 2963 2633 3030 
Q 2388 3097 2138 3097 
Q 1578 3097 1268 2742 
Q 959 2388 959 1747 
Q 959 1106 1268 751 
Q 1578 397 2138 397 
Q 2388 397 2633 464 
Q 2878 531 3122 666 
L 3122 134 
Q 2881 22 2623 -34 
Q 2366 -91 2075 -91 
Q 1284 -91 818 406 
Q 353 903 353 1747 
Q 353 2603 823 3093 
Q 1294 3584 2113 3584 
Q 2378 3584 2631 3529 
Q 2884 3475 3122 3366 
z
" transform="scale(0.015625)"/>
       <path id="DejaVuSans-6f" d="M 1959 3097 
Q 1497 3097 1228 2736 
Q 959 2375 959 1747 
Q 959 1119 1226 758 
Q 1494 397 1959 397 
Q 2419 397 2687 759 
Q 2956 1122 2956 1747 
Q 2956 2369 2687 2733 
Q 2419 3097 1959 3097 
z
M 1959 3584 
Q 2709 3584 3137 3096 
Q 3566 2609 3566 1747 
Q 3566 888 3137 398 
Q 2709 -91 1959 -91 
Q 1206 -91 779 398 
Q 353 888 353 1747 
Q 353 2609 779 3096 
Q 1206 3584 1959 3584 
z
" transform="scale(0.015625)"/>
       <path id="DejaVuSans-6e" d="M 3513 2113 
L 3513 0 
L 2938 0 
L 2938 2094 
Q 2938 2591 2744 2837 
Q 2550 3084 2163 3084 
Q 1697 3084 1428 2787 
Q 1159 2491 1159 1978 
L 1159 0 
L 581 0 
L 581 3500 
L 1159 3500 
L 1159 2956 
Q 1366 3272 1645 3428 
Q 1925 3584 2291 3584 
Q 2894 3584 3203 3211 
Q 3513 2838 3513 2113 
z
" transform="scale(0.015625)"/>
       <path id="DejaVuSans-64" d="M 2906 2969 
L 2906 4863 
L 3481 4863 
L 3481 0 
L 2906 0 
L 2906 525 
Q 2725 213 2448 61 
Q 2172 -91 1784 -91 
Q 1150 -91 751 415 
Q 353 922 353 1747 
Q 353 2572 751 3078 
Q 1150 3584 1784 3584 
Q 2172 3584 2448 3432 
Q 2725 3281 2906 2969 
z
M 947 1747 
Q 947 1113 1208 752 
Q 1469 391 1925 391 
Q 2381 391 2643 752 
Q 2906 1113 2906 1747 
Q 2906 2381 2643 2742 
Q 2381 3103 1925 3103 
Q 1469 3103 1208 2742 
Q 947 2381 947 1747 
z
" transform="scale(0.015625)"/>
       <path id="DejaVuSans-29" d="M 513 4856 
L 1013 4856 
Q 1481 4119 1714 3412 
Q 1947 2706 1947 2009 
Q 1947 1309 1714 600 
Q 1481 -109 1013 -844 
L 513 -844 
Q 928 -128 1133 580 
Q 1338 1288 1338 2009 
Q 1338 2731 1133 3434 
Q 928 4138 513 4856 
z
" transform="scale(0.015625)"/>
      </defs>
      <use xlink:href="#DejaVuSans-54"/>
      <use xlink:href="#DejaVuSans-69" x="57.958984"/>
      <use xlink:href="#DejaVuSans-6d" x="85.742188"/>
      <use xlink:href="#DejaVuSans-65" x="183.154297"/>
      <use xlink:href="#DejaVuSans-20" x="244.677734"/>
      <use xlink:href="#DejaVuSans-28" x="276.464844"/>
      <use xlink:href="#DejaVuSans-73" x="315.478516"/>
      <use xlink:href="#DejaVuSans-65" x="367.578125"/>
      <use xlink:href="#DejaVuSans-63" x="429.101562"/>
      <use xlink:href="#DejaVuSans-6f" x="484.082031"/>
      <use xlink:href="#DejaVuSans-6e" x="545.263672"/>
      <use xlink:href="#DejaVuSans-64" x="608.642578"/>
      <use xlink:href="#DejaVuSans-73" x="672.119141"/>
      <use xlink:href="#DejaVuSans-29" x="724.21875"/>
     </g>
    </g>
   </g>
   <g id="matplotlib.axis_2">
    <g id="ytick_1">
     <g id="line2d_8">
      <path d="M 52.368 370.688182 
L 848.052 370.688182 
" clip-path="url(#p682c4ecd6b)" style="fill: none; stroke: #cccccc; stroke-width: 0.8; stroke-linecap: round"/>
     </g>
     <g id="text_9">
      <!-- 0 -->
      <g style="fill: #262626" transform="translate(38.469 374.031494) scale(0.088 -0.088)">
       <use xlink:href="#DejaVuSans-30"/>
      </g>
     </g>
    </g>
    <g id="ytick_2">
     <g id="line2d_9">
      <path d="M 52.368 305.392909 
L 848.052 305.392909 
" clip-path="url(#p682c4ecd6b)" style="fill: none; stroke: #cccccc; stroke-width: 0.8; stroke-linecap: round"/>
     </g>
     <g id="text_10">
      <!-- 20 -->
      <g style="fill: #262626" transform="translate(32.87 308.736222) scale(0.088 -0.088)">
       <use xlink:href="#DejaVuSans-32"/>
       <use xlink:href="#DejaVuSans-30" x="63.623047"/>
      </g>
     </g>
    </g>
    <g id="ytick_3">
     <g id="line2d_10">
      <path d="M 52.368 240.097636 
L 848.052 240.097636 
" clip-path="url(#p682c4ecd6b)" style="fill: none; stroke: #cccccc; stroke-width: 0.8; stroke-linecap: round"/>
     </g>
     <g id="text_11">
      <!-- 40 -->
      <g style="fill: #262626" transform="translate(32.87 243.440949) scale(0.088 -0.088)">
       <use xlink:href="#DejaVuSans-34"/>
       <use xlink:href="#DejaVuSans-30" x="63.623047"/>
      </g>
     </g>
    </g>
    <g id="ytick_4">
     <g id="line2d_11">
      <path d="M 52.368 174.802364 
L 848.052 174.802364 
" clip-path="url(#p682c4ecd6b)" style="fill: none; stroke: #cccccc; stroke-width: 0.8; stroke-linecap: round"/>
     </g>
     <g id="text_12">
      <!-- 60 -->
      <g style="fill: #262626" transform="translate(32.87 178.145676) scale(0.088 -0.088)">
       <use xlink:href="#DejaVuSans-36"/>
       <use xlink:href="#DejaVuSans-30" x="63.623047"/>
      </g>
     </g>
    </g>
    <g id="ytick_5">
     <g id="line2d_12">
      <path d="M 52.368 109.507091 
L 848.052 109.507091 
" clip-path="url(#p682c4ecd6b)" style="fill: none; stroke: #cccccc; stroke-width: 0.8; stroke-linecap: round"/>
     </g>
     <g id="text_13">
      <!-- 80 -->
      <g style="fill: #262626" transform="translate(32.87 112.850403) scale(0.088 -0.088)">
       <defs>
        <path id="DejaVuSans-38" d="M 2034 2216 
Q 1584 2216 1326 1975 
Q 1069 1734 1069 1313 
Q 1069 891 1326 650 
Q 1584 409 2034 409 
Q 2484 409 2743 651 
Q 3003 894 3003 1313 
Q 3003 1734 2745 1975 
Q 2488 2216 2034 2216 
z
M 1403 2484 
Q 997 2584 770 2862 
Q 544 3141 544 3541 
Q 544 4100 942 4425 
Q 1341 4750 2034 4750 
Q 2731 4750 3128 4425 
Q 3525 4100 3525 3541 
Q 3525 3141 3298 2862 
Q 3072 2584 2669 2484 
Q 3125 2378 3379 2068 
Q 3634 1759 3634 1313 
Q 3634 634 3220 271 
Q 2806 -91 2034 -91 
Q 1263 -91 848 271 
Q 434 634 434 1313 
Q 434 1759 690 2068 
Q 947 2378 1403 2484 
z
M 1172 3481 
Q 1172 3119 1398 2916 
Q 1625 2713 2034 2713 
Q 2441 2713 2670 2916 
Q 2900 3119 2900 3481 
Q 2900 3844 2670 4047 
Q 2441 4250 2034 4250 
Q 1625 4250 1398 4047 
Q 1172 3844 1172 3481 
z
" transform="scale(0.015625)"/>
       </defs>
       <use xlink:href="#DejaVuSans-38"/>
       <use xlink:href="#DejaVuSans-30" x="63.623047"/>
      </g>
     </g>
    </g>
    <g id="ytick_6">
     <g id="line2d_13">
      <path d="M 52.368 44.211818 
L 848.052 44.211818 
" clip-path="url(#p682c4ecd6b)" style="fill: none; stroke: #cccccc; stroke-width: 0.8; stroke-linecap: round"/>
     </g>
     <g id="text_14">
      <!-- 100 -->
      <g style="fill: #262626" transform="translate(27.271 47.555131) scale(0.088 -0.088)">
       <use xlink:href="#DejaVuSans-31"/>
       <use xlink:href="#DejaVuSans-30" x="63.623047"/>
       <use xlink:href="#DejaVuSans-30" x="127.246094"/>
      </g>
     </g>
    </g>
    <g id="text_15">
     <!-- GPU Utilization (%) -->
     <g style="fill: #262626" transform="translate(20.775375 264.3675) rotate(-90) scale(0.12 -0.12)">
      <defs>
       <path id="DejaVuSans-47" d="M 3809 666 
L 3809 1919 
L 2778 1919 
L 2778 2438 
L 4434 2438 
L 4434 434 
Q 4069 175 3628 42 
Q 3188 -91 2688 -91 
Q 1594 -91 976 548 
Q 359 1188 359 2328 
Q 359 3472 976 4111 
Q 1594 4750 2688 4750 
Q 3144 4750 3555 4637 
Q 3966 4525 4313 4306 
L 4313 3634 
Q 3963 3931 3569 4081 
Q 3175 4231 2741 4231 
Q 1884 4231 1454 3753 
Q 1025 3275 1025 2328 
Q 1025 1384 1454 906 
Q 1884 428 2741 428 
Q 3075 428 3337 486 
Q 3600 544 3809 666 
z
" transform="scale(0.015625)"/>
       <path id="DejaVuSans-50" d="M 1259 4147 
L 1259 2394 
L 2053 2394 
Q 2494 2394 2734 2622 
Q 2975 2850 2975 3272 
Q 2975 3691 2734 3919 
Q 2494 4147 2053 4147 
L 1259 4147 
z
M 628 4666 
L 2053 4666 
Q 2838 4666 3239 4311 
Q 3641 3956 3641 3272 
Q 3641 2581 3239 2228 
Q 2838 1875 2053 1875 
L 1259 1875 
L 1259 0 
L 628 0 
L 628 4666 
z
" transform="scale(0.015625)"/>
       <path id="DejaVuSans-55" d="M 556 4666 
L 1191 4666 
L 1191 1831 
Q 1191 1081 1462 751 
Q 1734 422 2344 422 
Q 2950 422 3222 751 
Q 3494 1081 3494 1831 
L 3494 4666 
L 4128 4666 
L 4128 1753 
Q 4128 841 3676 375 
Q 3225 -91 2344 -91 
Q 1459 -91 1007 375 
Q 556 841 556 1753 
L 556 4666 
z
" transform="scale(0.015625)"/>
       <path id="DejaVuSans-74" d="M 1172 4494 
L 1172 3500 
L 2356 3500 
L 2356 3053 
L 1172 3053 
L 1172 1153 
Q 1172 725 1289 603 
Q 1406 481 1766 481 
L 2356 481 
L 2356 0 
L 1766 0 
Q 1100 0 847 248 
Q 594 497 594 1153 
L 594 3053 
L 172 3053 
L 172 3500 
L 594 3500 
L 594 4494 
L 1172 4494 
z
" transform="scale(0.015625)"/>
       <path id="DejaVuSans-6c" d="M 603 4863 
L 1178 4863 
L 1178 0 
L 603 0 
L 603 4863 
z
" transform="scale(0.015625)"/>
       <path id="DejaVuSans-7a" d="M 353 3500 
L 3084 3500 
L 3084 2975 
L 922 459 
L 3084 459 
L 3084 0 
L 275 0 
L 275 525 
L 2438 3041 
L 353 3041 
L 353 3500 
z
" transform="scale(0.015625)"/>
       <path id="DejaVuSans-61" d="M 2194 1759 
Q 1497 1759 1228 1600 
Q 959 1441 959 1056 
Q 959 750 1161 570 
Q 1363 391 1709 391 
Q 2188 391 2477 730 
Q 2766 1069 2766 1631 
L 2766 1759 
L 2194 1759 
z
M 3341 1997 
L 3341 0 
L 2766 0 
L 2766 531 
Q 2569 213 2275 61 
Q 1981 -91 1556 -91 
Q 1019 -91 701 211 
Q 384 513 384 1019 
Q 384 1609 779 1909 
Q 1175 2209 1959 2209 
L 2766 2209 
L 2766 2266 
Q 2766 2663 2505 2880 
Q 2244 3097 1772 3097 
Q 1472 3097 1187 3025 
Q 903 2953 641 2809 
L 641 3341 
Q 956 3463 1253 3523 
Q 1550 3584 1831 3584 
Q 2591 3584 2966 3190 
Q 3341 2797 3341 1997 
z
" transform="scale(0.015625)"/>
       <path id="DejaVuSans-25" d="M 4653 2053 
Q 4381 2053 4226 1822 
Q 4072 1591 4072 1178 
Q 4072 772 4226 539 
Q 4381 306 4653 306 
Q 4919 306 5073 539 
Q 5228 772 5228 1178 
Q 5228 1588 5073 1820 
Q 4919 2053 4653 2053 
z
M 4653 2450 
Q 5147 2450 5437 2106 
Q 5728 1763 5728 1178 
Q 5728 594 5436 251 
Q 5144 -91 4653 -91 
Q 4153 -91 3862 251 
Q 3572 594 3572 1178 
Q 3572 1766 3864 2108 
Q 4156 2450 4653 2450 
z
M 1428 4353 
Q 1159 4353 1004 4120 
Q 850 3888 850 3481 
Q 850 3069 1003 2837 
Q 1156 2606 1428 2606 
Q 1700 2606 1854 2837 
Q 2009 3069 2009 3481 
Q 2009 3884 1853 4118 
Q 1697 4353 1428 4353 
z
M 4250 4750 
L 4750 4750 
L 1831 -91 
L 1331 -91 
L 4250 4750 
z
M 1428 4750 
Q 1922 4750 2215 4408 
Q 2509 4066 2509 3481 
Q 2509 2891 2217 2550 
Q 1925 2209 1428 2209 
Q 931 2209 642 2551 
Q 353 2894 353 3481 
Q 353 4063 643 4406 
Q 934 4750 1428 4750 
z
" transform="scale(0.015625)"/>
      </defs>
      <use xlink:href="#DejaVuSans-47"/>
      <use xlink:href="#DejaVuSans-50" x="77.490234"/>
      <use xlink:href="#DejaVuSans-55" x="137.792969"/>
      <use xlink:href="#DejaVuSans-20" x="210.986328"/>
      <use xlink:href="#DejaVuSans-55" x="242.773438"/>
      <use xlink:href="#DejaVuSans-74" x="315.966797"/>
      <use xlink:href="#DejaVuSans-69" x="355.175781"/>
      <use xlink:href="#DejaVuSans-6c" x="382.958984"/>
      <use xlink:href="#DejaVuSans-69" x="410.742188"/>
      <use xlink:href="#DejaVuSans-7a" x="438.525391"/>
      <use xlink:href="#DejaVuSans-61" x="491.015625"/>
      <use xlink:href="#DejaVuSans-74" x="552.294922"/>
      <use xlink:href="#DejaVuSans-69" x="591.503906"/>
      <use xlink:href="#DejaVuSans-6f" x="619.287109"/>
      <use xlink:href="#DejaVuSans-6e" x="680.46875"/>
      <use xlink:href="#DejaVuSans-20" x="743.847656"/>
      <use xlink:href="#DejaVuSans-28" x="775.634766"/>
      <use xlink:href="#DejaVuSans-25" x="814.648438"/>
      <use xlink:href="#DejaVuSans-29" x="909.667969"/>
     </g>
    </g>
   </g>
   <g id="PolyCollection_1"/>
   <g id="PolyCollection_2"/>
   <g id="line2d_14">
    <path d="M 52.368 44.211818 
L 55.02028 44.211818 
L 56.34642 54.006109 
L 57.67256 246.627164 
L 58.9987 44.211818 
L 60.32484 47.476582 
L 61.65098 47.476582 
L 62.97712 44.211818 
L 65.6294 44.211818 
L 66.95554 266.215745 
L 68.28168 109.507091 
L 69.60782 44.211818 
L 70.93396 50.741345 
L 72.2601 44.211818 
L 73.58624 44.211818 
L 74.91238 80.124218 
L 76.23852 370.688182 
L 77.56466 83.388982 
L 78.8908 44.211818 
L 80.21694 47.476582 
L 81.54308 44.211818 
L 84.19536 44.211818 
L 85.5215 106.242327 
L 86.84764 272.745273 
L 88.17378 44.211818 
L 89.49992 44.211818 
L 90.82606 47.476582 
L 92.1522 44.211818 
L 96.13062 44.211818 
L 97.45676 148.684255 
L 98.7829 44.211818 
L 100.10904 47.476582 
L 101.43518 44.211818 
L 104.08746 44.211818 
L 105.4136 47.476582 
L 106.73974 328.246255 
L 108.06588 44.211818 
L 109.39202 47.476582 
L 110.71816 44.211818 
L 113.37044 44.211818 
L 114.69658 187.861418 
L 116.02272 44.211818 
L 117.34886 47.476582 
L 118.675 44.211818 
L 122.65342 44.211818 
L 123.97956 217.244291 
L 125.3057 93.183273 
L 126.63184 93.183273 
L 127.95798 44.211818 
L 129.28412 47.476582 
L 130.61026 44.211818 
L 133.26254 44.211818 
L 134.58868 96.448036 
L 135.91482 308.657673 
L 137.24096 44.211818 
L 138.5671 47.476582 
L 139.89324 44.211818 
L 143.87166 44.211818 
L 145.1978 57.270873 
L 146.52394 44.211818 
L 147.85008 80.124218 
L 149.17622 44.211818 
L 150.50236 54.006109 
L 151.8285 44.211818 
L 153.15464 89.918509 
L 154.48078 44.211818 
L 155.80692 99.7128 
L 157.13306 44.211818 
L 158.4592 60.535636 
L 159.78534 44.211818 
L 161.11148 44.211818 
L 162.43762 57.270873 
L 163.76376 44.211818 
L 165.0899 54.006109 
L 166.41604 54.006109 
L 167.74218 44.211818 
L 169.06832 70.329927 
L 170.39446 44.211818 
L 171.7206 57.270873 
L 173.04674 57.270873 
L 174.37288 44.211818 
L 175.69902 151.949018 
L 177.02516 44.211818 
L 178.3513 44.211818 
L 179.67744 47.476582 
L 181.00358 44.211818 
L 183.65586 44.211818 
L 184.982 282.539564 
L 186.30814 282.539564 
L 187.63428 44.211818 
L 191.6127 44.211818 
L 192.93884 187.861418 
L 194.26498 249.891927 
L 195.59112 44.211818 
L 196.91726 47.476582 
L 198.2434 47.476582 
L 199.56954 44.211818 
L 203.54796 44.211818 
L 204.8741 269.480509 
L 206.20024 67.065164 
L 207.52638 47.476582 
L 208.85252 44.211818 
L 211.5048 44.211818 
L 212.83094 125.830909 
L 214.15708 262.950982 
L 215.48322 44.211818 
L 216.80936 44.211818 
L 218.1355 47.476582 
L 219.46164 44.211818 
L 222.11392 44.211818 
L 223.44006 253.156691 
L 224.7662 155.213782 
L 226.09234 47.476582 
L 227.41848 44.211818 
L 228.74462 44.211818 
L 230.07076 63.8004 
L 231.3969 63.8004 
L 232.72304 236.832873 
L 234.04918 44.211818 
L 235.37532 44.211818 
L 236.70146 47.476582 
L 238.0276 44.211818 
L 240.67988 44.211818 
L 242.00602 253.156691 
L 243.33216 253.156691 
L 244.6583 99.7128 
L 245.98444 47.476582 
L 247.31058 44.211818 
L 249.96286 44.211818 
L 251.289 89.918509 
L 252.61514 282.539564 
L 253.94128 282.539564 
L 255.26742 44.211818 
L 259.24584 44.211818 
L 260.57198 236.832873 
L 261.89812 266.215745 
L 263.22426 44.211818 
L 264.5504 44.211818 
L 265.87654 63.8004 
L 267.20268 44.211818 
L 269.85496 44.211818 
L 271.1811 57.270873 
L 272.50724 44.211818 
L 273.83338 44.211818 
L 275.15952 54.006109 
L 276.48566 44.211818 
L 277.8118 44.211818 
L 279.13794 54.006109 
L 280.46408 44.211818 
L 281.79022 76.859455 
L 283.11636 44.211818 
L 284.4425 54.006109 
L 285.76864 44.211818 
L 287.09478 44.211818 
L 288.42092 60.535636 
L 289.74706 44.211818 
L 291.0732 57.270873 
L 292.39934 44.211818 
L 293.72548 63.8004 
L 295.05162 44.211818 
L 296.37776 54.006109 
L 297.7039 44.211818 
L 299.03004 76.859455 
L 300.35618 44.211818 
L 301.68232 249.891927 
L 303.00846 272.745273 
L 304.3346 44.211818 
L 305.66074 44.211818 
L 306.98688 47.476582 
L 308.31302 44.211818 
L 310.9653 44.211818 
L 312.29144 207.45 
L 313.61758 44.211818 
L 314.94372 44.211818 
L 316.26986 47.476582 
L 317.596 44.211818 
L 321.57442 44.211818 
L 322.90056 230.303345 
L 324.2267 44.211818 
L 325.55284 44.211818 
L 326.87898 47.476582 
L 328.20512 44.211818 
L 330.8574 44.211818 
L 332.18354 289.069091 
L 333.50968 289.069091 
L 334.83582 86.653745 
L 336.16196 47.476582 
L 337.4881 47.476582 
L 338.81424 44.211818 
L 340.14038 109.507091 
L 341.46652 302.128145 
L 342.79266 44.211818 
L 344.1188 73.594691 
L 345.44494 73.594691 
L 346.77108 44.211818 
L 350.7495 44.211818 
L 352.07564 184.596655 
L 353.40178 122.566145 
L 354.72792 44.211818 
L 356.05406 50.741345 
L 357.3802 44.211818 
L 360.03248 44.211818 
L 361.35862 67.065164 
L 362.68476 334.775782 
L 364.0109 44.211818 
L 370.6416 44.211818 
L 371.96774 181.331891 
L 373.29388 158.478545 
L 374.62002 44.211818 
L 375.94616 47.476582 
L 377.2723 44.211818 
L 379.92458 44.211818 
L 381.25072 338.040545 
L 382.57686 47.476582 
L 383.903 47.476582 
L 385.22914 44.211818 
L 389.20756 44.211818 
L 390.5337 168.272836 
L 391.85984 168.272836 
L 393.18598 44.211818 
L 394.51212 47.476582 
L 395.83826 44.211818 
L 398.49054 44.211818 
L 399.81668 50.741345 
L 401.14282 50.741345 
L 402.46896 54.006109 
L 403.7951 44.211818 
L 405.12124 44.211818 
L 406.44738 67.065164 
L 407.77352 44.211818 
L 410.4258 44.211818 
L 411.75194 54.006109 
L 413.07808 44.211818 
L 414.40422 54.006109 
L 415.73036 47.476582 
L 417.0565 54.006109 
L 418.38264 54.006109 
L 419.70878 44.211818 
L 421.03492 57.270873 
L 422.36106 44.211818 
L 423.6872 50.741345 
L 425.01334 50.741345 
L 426.33948 54.006109 
L 427.66562 50.741345 
L 428.99176 50.741345 
L 430.3179 54.006109 
L 431.64404 249.891927 
L 432.97018 44.211818 
L 434.29632 47.476582 
L 435.62246 44.211818 
L 438.27474 44.211818 
L 439.60088 266.215745 
L 440.92702 168.272836 
L 442.25316 44.211818 
L 443.5793 47.476582 
L 444.90544 47.476582 
L 446.23158 44.211818 
L 447.55772 44.211818 
L 448.88386 347.834836 
L 450.21 174.802364 
L 451.53614 44.211818 
L 452.86228 47.476582 
L 454.18842 44.211818 
L 458.16684 44.211818 
L 459.49298 308.657673 
L 460.81912 47.476582 
L 462.14526 47.476582 
L 463.4714 44.211818 
L 467.44982 44.211818 
L 468.77596 181.331891 
L 470.1021 220.509055 
L 471.42824 44.211818 
L 472.75438 47.476582 
L 474.08052 44.211818 
L 480.71122 44.211818 
L 482.03736 63.8004 
L 483.3635 44.211818 
L 486.01578 44.211818 
L 487.34192 151.949018 
L 488.66806 292.333855 
L 489.9942 44.211818 
L 491.32034 67.065164 
L 492.64648 44.211818 
L 496.6249 44.211818 
L 497.95104 204.185236 
L 499.27718 145.419491 
L 500.60332 44.211818 
L 501.92946 47.476582 
L 503.2556 44.211818 
L 505.90788 44.211818 
L 507.23402 50.741345 
L 508.56016 305.392909 
L 509.8863 305.392909 
L 511.21244 47.476582 
L 512.53858 44.211818 
L 516.517 44.211818 
L 517.84314 210.714764 
L 519.16928 106.242327 
L 520.49542 44.211818 
L 521.82156 44.211818 
L 523.1477 50.741345 
L 524.47384 44.211818 
L 525.79998 60.535636 
L 527.12612 44.211818 
L 528.45226 57.270873 
L 529.7784 44.211818 
L 531.10454 57.270873 
L 532.43068 44.211818 
L 533.75682 60.535636 
L 535.08296 60.535636 
L 536.4091 44.211818 
L 537.73524 54.006109 
L 539.06138 54.006109 
L 540.38752 44.211818 
L 541.71366 67.065164 
L 543.0398 44.211818 
L 544.36594 44.211818 
L 545.69208 54.006109 
L 547.01822 44.211818 
L 548.34436 60.535636 
L 549.6705 44.211818 
L 550.99664 57.270873 
L 552.32278 44.211818 
L 553.64892 44.211818 
L 554.97506 57.270873 
L 556.3012 44.211818 
L 557.62734 116.036618 
L 558.95348 253.156691 
L 560.27962 44.211818 
L 561.60576 47.476582 
L 562.9319 44.211818 
L 565.58418 44.211818 
L 566.91032 259.686218 
L 568.23646 259.686218 
L 569.5626 44.211818 
L 576.1933 44.211818 
L 577.51944 227.038582 
L 578.84558 44.211818 
L 580.17172 44.211818 
L 581.49786 47.476582 
L 582.824 44.211818 
L 586.80242 44.211818 
L 588.12856 178.067127 
L 589.4547 233.568109 
L 590.78084 44.211818 
L 592.10698 67.065164 
L 593.43312 44.211818 
L 597.41154 44.211818 
L 598.73768 119.301382 
L 600.06382 119.301382 
L 601.38996 47.476582 
L 602.7161 47.476582 
L 604.04224 44.211818 
L 605.36838 70.329927 
L 606.69452 370.688182 
L 608.02066 370.688182 
L 609.3468 83.388982 
L 610.67294 47.476582 
L 611.99908 47.476582 
L 613.32522 44.211818 
L 615.9775 44.211818 
L 617.30364 106.242327 
L 618.62978 210.714764 
L 619.95592 44.211818 
L 621.28206 47.476582 
L 622.6082 44.211818 
L 626.58662 44.211818 
L 627.91276 305.392909 
L 629.2389 73.594691 
L 630.56504 44.211818 
L 631.89118 47.476582 
L 633.21732 44.211818 
L 635.8696 44.211818 
L 637.19574 116.036618 
L 638.52188 243.3624 
L 639.84802 44.211818 
L 641.17416 80.124218 
L 642.5003 44.211818 
L 645.15258 44.211818 
L 646.47872 236.832873 
L 649.131 44.211818 
L 650.45714 47.476582 
L 651.78328 44.211818 
L 654.43556 44.211818 
L 655.7617 50.741345 
L 657.08784 47.476582 
L 658.41398 47.476582 
L 659.74012 54.006109 
L 661.06626 44.211818 
L 662.3924 67.065164 
L 663.71854 44.211818 
L 665.04468 60.535636 
L 666.37082 44.211818 
L 667.69696 44.211818 
L 669.0231 70.329927 
L 670.34924 47.476582 
L 671.67538 54.006109 
L 673.00152 44.211818 
L 674.32766 44.211818 
L 675.6538 67.065164 
L 678.30608 47.476582 
L 679.63222 50.741345 
L 680.95836 47.476582 
L 682.2845 47.476582 
L 683.61064 44.211818 
L 684.93678 44.211818 
L 686.26292 67.065164 
L 687.58906 311.922436 
L 688.9152 44.211818 
L 690.24134 47.476582 
L 691.56748 47.476582 
L 692.89362 44.211818 
L 695.5459 44.211818 
L 696.87204 210.714764 
L 698.19818 210.714764 
L 700.85046 44.211818 
L 702.1766 47.476582 
L 703.50274 44.211818 
L 704.82888 44.211818 
L 706.15502 70.329927 
L 707.48116 70.329927 
L 708.8073 315.1872 
L 710.13344 47.476582 
L 711.45958 47.476582 
L 712.78572 44.211818 
L 715.438 44.211818 
L 716.76414 204.185236 
L 718.09028 246.627164 
L 719.41642 44.211818 
L 720.74256 54.006109 
L 722.0687 44.211818 
L 726.04712 44.211818 
L 727.37326 266.215745 
L 728.6994 44.211818 
L 730.02554 44.211818 
L 731.35168 47.476582 
L 732.67782 44.211818 
L 735.3301 44.211818 
L 736.65624 86.653745 
L 737.98238 266.215745 
L 739.30852 44.211818 
L 740.63466 50.741345 
L 741.9608 44.211818 
L 745.93922 44.211818 
L 747.26536 249.891927 
L 748.5915 122.566145 
L 749.91764 44.211818 
L 751.24378 67.065164 
L 752.56992 44.211818 
L 755.2222 44.211818 
L 756.54834 370.688182 
L 757.87448 99.7128 
L 759.20062 44.211818 
L 760.52676 63.8004 
L 761.8529 63.8004 
L 763.17904 44.211818 
L 764.50518 44.211818 
L 765.83132 76.859455 
L 767.15746 262.950982 
L 768.4836 262.950982 
L 769.80974 44.211818 
L 771.13588 47.476582 
L 772.46202 44.211818 
L 776.44044 44.211818 
L 777.76658 253.156691 
L 779.09272 96.448036 
L 780.41886 44.211818 
L 781.745 54.006109 
L 783.07114 44.211818 
L 785.72342 44.211818 
L 787.04956 67.065164 
L 788.3757 44.211818 
L 789.70184 57.270873 
L 791.02798 44.211818 
L 796.33254 44.211818 
L 797.65868 54.006109 
L 798.98482 44.211818 
L 800.31096 54.006109 
L 801.6371 44.211818 
L 802.96324 44.211818 
L 804.28938 76.859455 
L 805.61552 44.211818 
L 806.94166 54.006109 
L 808.2678 54.006109 
L 809.59394 44.211818 
L 810.92008 54.006109 
L 812.24622 44.211818 
L 813.57236 54.006109 
L 814.8985 54.006109 
L 816.22464 44.211818 
L 817.55078 125.830909 
L 818.87692 269.480509 
L 820.20306 44.211818 
L 821.5292 47.476582 
L 822.85534 44.211818 
L 826.83376 44.211818 
L 828.1599 243.3624 
L 829.48604 138.889964 
L 830.81218 44.211818 
L 832.13832 47.476582 
L 833.46446 44.211818 
L 834.7906 47.476582 
L 836.11674 370.688182 
L 837.44288 370.688182 
L 838.76902 96.448036 
L 840.09516 50.741345 
L 841.4213 50.741345 
L 842.74744 44.211818 
L 844.07358 44.211818 
L 845.39972 93.183273 
L 846.72586 93.183273 
L 846.72586 93.183273 
" clip-path="url(#p682c4ecd6b)" style="fill: none; stroke: #4e79a7; stroke-opacity: 0.3; stroke-width: 1.2; stroke-linecap: round"/>
   </g>
   <g id="line2d_15">
    <path d="M 52.368 44.211818 
L 56.34642 44.309761 
L 57.67256 46.332935 
L 65.6294 46.271847 
L 66.95554 48.471286 
L 68.28168 49.081644 
L 73.58624 48.953749 
L 74.91238 49.265454 
L 76.23852 52.479681 
L 77.56466 52.788774 
L 84.19536 52.400096 
L 85.5215 52.938518 
L 86.84764 55.136586 
L 96.13062 54.425777 
L 97.45676 55.368361 
L 105.4136 54.779491 
L 106.73974 57.514159 
L 113.37044 56.89389 
L 114.69658 58.203565 
L 122.65342 57.416131 
L 123.97956 59.014413 
L 126.63184 59.694373 
L 133.26254 58.967252 
L 134.58868 59.34206 
L 135.91482 61.835216 
L 143.87166 60.835258 
L 145.1978 60.799615 
L 146.52394 60.633737 
L 147.85008 60.828641 
L 151.8285 60.432069 
L 153.15464 60.726933 
L 154.48078 60.561782 
L 155.80692 60.953292 
L 157.13306 60.785877 
L 158.4592 60.783375 
L 161.11148 60.453601 
L 162.43762 60.421774 
L 165.0899 60.197138 
L 174.37288 59.711559 
L 175.69902 60.633933 
L 183.65586 59.704591 
L 186.30814 64.139007 
L 191.6127 63.353797 
L 192.93884 64.598873 
L 194.26498 66.451803 
L 203.54796 65.003346 
L 204.8741 67.048118 
L 206.20024 67.048289 
L 211.5048 66.180118 
L 212.83094 66.776626 
L 214.15708 68.73837 
L 222.11392 67.334758 
L 223.44006 69.192977 
L 224.7662 70.053185 
L 230.07076 69.262496 
L 231.3969 69.207875 
L 232.72304 70.884125 
L 240.67988 69.354943 
L 243.33216 73.012598 
L 244.6583 73.2796 
L 249.96286 72.165892 
L 251.289 72.343418 
L 253.94128 76.526321 
L 259.24584 75.253001 
L 260.57198 76.8688 
L 261.89812 78.762269 
L 264.5504 78.074715 
L 265.87654 77.931972 
L 269.85496 76.93045 
L 271.1811 76.733854 
L 275.15952 75.86586 
L 279.13794 75.023646 
L 280.46408 74.715528 
L 281.79022 74.736967 
L 285.76864 73.927303 
L 287.09478 73.630148 
L 288.42092 73.499203 
L 289.74706 73.206329 
L 291.0732 73.046975 
L 292.39934 72.758623 
L 293.72548 72.669041 
L 297.7039 71.920796 
L 299.03004 71.970183 
L 300.35618 71.692599 
L 301.68232 73.474593 
L 303.00846 75.467299 
L 310.9653 73.669911 
L 312.29144 75.007712 
L 321.57442 72.946965 
L 322.90056 74.520529 
L 330.8574 72.778546 
L 333.50968 77.082727 
L 334.83582 77.178438 
L 338.81424 76.263615 
L 340.14038 76.59605 
L 341.46652 78.851371 
L 342.79266 78.504975 
L 345.44494 78.407261 
L 350.7495 77.059824 
L 352.07564 78.135192 
L 353.40178 78.579502 
L 360.03248 76.958499 
L 361.35862 76.859566 
L 362.68476 79.438728 
L 370.6416 77.377254 
L 371.96774 78.416801 
L 373.29388 79.217418 
L 379.92458 77.533473 
L 381.25072 80.138544 
L 389.20756 78.098526 
L 391.85984 79.892995 
L 398.49054 78.17594 
L 415.73036 74.658618 
L 421.03492 73.780511 
L 423.6872 73.25739 
L 430.3179 72.218205 
L 431.64404 73.994942 
L 438.27474 72.566951 
L 439.60088 74.503439 
L 440.92702 75.441133 
L 447.55772 73.974261 
L 448.88386 76.712867 
L 450.21 77.693762 
L 458.16684 75.765765 
L 459.49298 78.094684 
L 467.44982 76.174273 
L 468.77596 77.225849 
L 470.1021 78.658681 
L 479.38508 76.349593 
L 480.71122 76.028215 
L 482.03736 75.905937 
L 486.01578 74.96459 
L 487.34192 75.734434 
L 488.66806 77.900428 
L 489.9942 77.563542 
L 491.32034 77.458558 
L 496.6249 76.148504 
L 497.95104 77.428872 
L 499.27718 78.108778 
L 505.90788 76.479167 
L 507.23402 76.221789 
L 509.8863 80.782295 
L 516.517 79.021338 
L 517.84314 80.338273 
L 519.16928 80.597313 
L 524.47384 79.228222 
L 525.79998 79.041296 
L 527.12612 78.693001 
L 528.45226 78.47878 
L 529.7784 78.13611 
L 531.10454 77.927458 
L 532.43068 77.590302 
L 535.08296 77.250914 
L 537.73524 76.691379 
L 543.0398 75.732836 
L 547.01822 74.893594 
L 548.34436 74.750015 
L 549.6705 74.444633 
L 550.99664 74.272895 
L 553.64892 73.67468 
L 554.97506 73.510642 
L 556.3012 73.217653 
L 557.62734 73.645843 
L 558.95348 75.440951 
L 565.58418 73.942091 
L 568.23646 77.638399 
L 576.1933 75.682281 
L 577.51944 77.195844 
L 586.80242 74.986447 
L 588.12856 76.017253 
L 589.4547 77.592762 
L 590.78084 77.258953 
L 592.10698 77.157015 
L 597.41154 75.858842 
L 600.06382 76.723349 
L 604.04224 75.822043 
L 605.36838 75.767122 
L 608.02066 81.636051 
L 609.3468 81.65358 
L 615.9775 79.881601 
L 617.30364 80.145208 
L 618.62978 81.450903 
L 626.58662 79.303039 
L 627.91276 81.563938 
L 629.2389 81.484245 
L 635.8696 79.689203 
L 637.19574 80.052677 
L 638.52188 81.685775 
L 639.84802 81.311035 
L 641.17416 81.299167 
L 645.15258 80.197636 
L 646.47872 81.763988 
L 647.80486 82.335248 
L 654.43556 80.498498 
L 663.71854 78.47854 
L 665.04468 78.299111 
L 667.69696 77.620774 
L 669.0231 77.547866 
L 674.32766 76.361964 
L 676.97994 76.079015 
L 684.93678 74.371597 
L 686.26292 74.298533 
L 687.58906 76.674772 
L 695.5459 74.838084 
L 698.19818 77.54203 
L 699.52432 78.024919 
L 704.82888 76.724546 
L 707.48116 76.597293 
L 708.8073 78.983192 
L 715.438 77.342088 
L 716.76414 78.610519 
L 718.09028 80.290686 
L 722.0687 79.316071 
L 726.04712 78.273439 
L 727.37326 80.152862 
L 735.3301 78.081276 
L 736.65624 78.167 
L 737.98238 80.047488 
L 744.61308 78.354539 
L 745.93922 78.013112 
L 747.26536 79.7319 
L 748.5915 80.160243 
L 749.91764 79.800759 
L 751.24378 79.673403 
L 755.2222 78.620158 
L 756.54834 81.540838 
L 757.87448 81.722558 
L 759.20062 81.34745 
L 761.8529 80.998264 
L 764.50518 80.266214 
L 765.83132 80.232146 
L 768.4836 83.868251 
L 776.44044 81.578924 
L 777.76658 83.294701 
L 779.09272 83.426235 
L 783.07114 82.358491 
L 785.72342 81.599372 
L 787.04956 81.45403 
L 788.3757 81.081608 
L 789.70184 80.843501 
L 796.33254 79.048184 
L 800.31096 78.207446 
L 802.96324 77.530933 
L 804.28938 77.524218 
L 806.94166 76.959244 
L 810.92008 76.180549 
L 813.57236 75.642315 
L 816.22464 75.113811 
L 817.55078 75.620982 
L 818.87692 77.559577 
L 826.83376 75.639433 
L 828.1599 77.316662 
L 829.48604 77.932395 
L 834.7906 76.668316 
L 837.44288 82.519311 
L 838.76902 82.658598 
L 844.07358 81.270994 
L 846.72586 81.508048 
L 846.72586 81.508048 
" clip-path="url(#p682c4ecd6b)" style="fill: none; stroke: #4e79a7; stroke-width: 2; stroke-linecap: round"/>
   </g>
   <g id="patch_3">
    <path d="M 52.368 387.012 
L 52.368 27.888 
" style="fill: none; stroke: #cccccc; stroke-linejoin: miter; stroke-linecap: square"/>
   </g>
   <g id="patch_4">
    <path d="M 848.052 387.012 
L 848.052 27.888 
" style="fill: none; stroke: #cccccc; stroke-linejoin: miter; stroke-linecap: square"/>
   </g>
   <g id="patch_5">
    <path d="M 52.368 387.012 
L 848.052 387.012 
" style="fill: none; stroke: #cccccc; stroke-linejoin: miter; stroke-linecap: square"/>
   </g>
   <g id="patch_6">
    <path d="M 52.368 27.888 
L 848.052 27.888 
" style="fill: none; stroke: #cccccc; stroke-linejoin: miter; stroke-linecap: square"/>
   </g>
   <g id="text_16">
    <!-- GPU Utilization over One Minute (smoothing=0.99) -->
    <g style="fill: #262626" transform="translate(245.995 21.888) scale(0.16 -0.16)">
     <defs>
      <path id="DejaVuSans-76" d="M 191 3500 
L 800 3500 
L 1894 563 
L 2988 3500 
L 3597 3500 
L 2284 0 
L 1503 0 
L 191 3500 
z
" transform="scale(0.015625)"/>
      <path id="DejaVuSans-72" d="M 2631 2963 
Q 2534 3019 2420 3045 
Q 2306 3072 2169 3072 
Q 1681 3072 1420 2755 
Q 1159 2438 1159 1844 
L 1159 0 
L 581 0 
L 581 3500 
L 1159 3500 
L 1159 2956 
Q 1341 3275 1631 3429 
Q 1922 3584 2338 3584 
Q 2397 3584 2469 3576 
Q 2541 3569 2628 3553 
L 2631 2963 
z
" transform="scale(0.015625)"/>
      <path id="DejaVuSans-4f" d="M 2522 4238 
Q 1834 4238 1429 3725 
Q 1025 3213 1025 2328 
Q 1025 1447 1429 934 
Q 1834 422 2522 422 
Q 3209 422 3611 934 
Q 4013 1447 4013 2328 
Q 4013 3213 3611 3725 
Q 3209 4238 2522 4238 
z
M 2522 4750 
Q 3503 4750 4090 4092 
Q 4678 3434 4678 2328 
Q 4678 1225 4090 567 
Q 3503 -91 2522 -91 
Q 1538 -91 948 565 
Q 359 1222 359 2328 
Q 359 3434 948 4092 
Q 1538 4750 2522 4750 
z
" transform="scale(0.015625)"/>
      <path id="DejaVuSans-4d" d="M 628 4666 
L 1569 4666 
L 2759 1491 
L 3956 4666 
L 4897 4666 
L 4897 0 
L 4281 0 
L 4281 4097 
L 3078 897 
L 2444 897 
L 1241 4097 
L 1241 0 
L 628 0 
L 628 4666 
z
" transform="scale(0.015625)"/>
      <path id="DejaVuSans-75" d="M 544 1381 
L 544 3500 
L 1119 3500 
L 1119 1403 
Q 1119 906 1312 657 
Q 1506 409 1894 409 
Q 2359 409 2629 706 
Q 2900 1003 2900 1516 
L 2900 3500 
L 3475 3500 
L 3475 0 
L 2900 0 
L 2900 538 
Q 2691 219 2414 64 
Q 2138 -91 1772 -91 
Q 1169 -91 856 284 
Q 544 659 544 1381 
z
M 1991 3584 
L 1991 3584 
z
" transform="scale(0.015625)"/>
      <path id="DejaVuSans-68" d="M 3513 2113 
L 3513 0 
L 2938 0 
L 2938 2094 
Q 2938 2591 2744 2837 
Q 2550 3084 2163 3084 
Q 1697 3084 1428 2787 
Q 1159 2491 1159 1978 
L 1159 0 
L 581 0 
L 581 4863 
L 1159 4863 
L 1159 2956 
Q 1366 3272 1645 3428 
Q 1925 3584 2291 3584 
Q 2894 3584 3203 3211 
Q 3513 2838 3513 2113 
z
" transform="scale(0.015625)"/>
      <path id="DejaVuSans-67" d="M 2906 1791 
Q 2906 2416 2648 2759 
Q 2391 3103 1925 3103 
Q 1463 3103 1205 2759 
Q 947 2416 947 1791 
Q 947 1169 1205 825 
Q 1463 481 1925 481 
Q 2391 481 2648 825 
Q 2906 1169 2906 1791 
z
M 3481 434 
Q 3481 -459 3084 -895 
Q 2688 -1331 1869 -1331 
Q 1566 -1331 1297 -1286 
Q 1028 -1241 775 -1147 
L 775 -588 
Q 1028 -725 1275 -790 
Q 1522 -856 1778 -856 
Q 2344 -856 2625 -561 
Q 2906 -266 2906 331 
L 2906 616 
Q 2728 306 2450 153 
Q 2172 0 1784 0 
Q 1141 0 747 490 
Q 353 981 353 1791 
Q 353 2603 747 3093 
Q 1141 3584 1784 3584 
Q 2172 3584 2450 3431 
Q 2728 3278 2906 2969 
L 2906 3500 
L 3481 3500 
L 3481 434 
z
" transform="scale(0.015625)"/>
      <path id="DejaVuSans-3d" d="M 678 2906 
L 4684 2906 
L 4684 2381 
L 678 2381 
L 678 2906 
z
M 678 1631 
L 4684 1631 
L 4684 1100 
L 678 1100 
L 678 1631 
z
" transform="scale(0.015625)"/>
      <path id="DejaVuSans-2e" d="M 684 794 
L 1344 794 
L 1344 0 
L 684 0 
L 684 794 
z
" transform="scale(0.015625)"/>
      <path id="DejaVuSans-39" d="M 703 97 
L 703 672 
Q 941 559 1184 500 
Q 1428 441 1663 441 
Q 2288 441 2617 861 
Q 2947 1281 2994 2138 
Q 2813 1869 2534 1725 
Q 2256 1581 1919 1581 
Q 1219 1581 811 2004 
Q 403 2428 403 3163 
Q 403 3881 828 4315 
Q 1253 4750 1959 4750 
Q 2769 4750 3195 4129 
Q 3622 3509 3622 2328 
Q 3622 1225 3098 567 
Q 2575 -91 1691 -91 
Q 1453 -91 1209 -44 
Q 966 3 703 97 
z
M 1959 2075 
Q 2384 2075 2632 2365 
Q 2881 2656 2881 3163 
Q 2881 3666 2632 3958 
Q 2384 4250 1959 4250 
Q 1534 4250 1286 3958 
Q 1038 3666 1038 3163 
Q 1038 2656 1286 2365 
Q 1534 2075 1959 2075 
z
" transform="scale(0.015625)"/>
     </defs>
     <use xlink:href="#DejaVuSans-47"/>
     <use xlink:href="#DejaVuSans-50" x="77.490234"/>
     <use xlink:href="#DejaVuSans-55" x="137.792969"/>
     <use xlink:href="#DejaVuSans-20" x="210.986328"/>
     <use xlink:href="#DejaVuSans-55" x="242.773438"/>
     <use xlink:href="#DejaVuSans-74" x="315.966797"/>
     <use xlink:href="#DejaVuSans-69" x="355.175781"/>
     <use xlink:href="#DejaVuSans-6c" x="382.958984"/>
     <use xlink:href="#DejaVuSans-69" x="410.742188"/>
     <use xlink:href="#DejaVuSans-7a" x="438.525391"/>
     <use xlink:href="#DejaVuSans-61" x="491.015625"/>
     <use xlink:href="#DejaVuSans-74" x="552.294922"/>
     <use xlink:href="#DejaVuSans-69" x="591.503906"/>
     <use xlink:href="#DejaVuSans-6f" x="619.287109"/>
     <use xlink:href="#DejaVuSans-6e" x="680.46875"/>
     <use xlink:href="#DejaVuSans-20" x="743.847656"/>
     <use xlink:href="#DejaVuSans-6f" x="775.634766"/>
     <use xlink:href="#DejaVuSans-76" x="836.816406"/>
     <use xlink:href="#DejaVuSans-65" x="895.996094"/>
     <use xlink:href="#DejaVuSans-72" x="957.519531"/>
     <use xlink:href="#DejaVuSans-20" x="998.632812"/>
     <use xlink:href="#DejaVuSans-4f" x="1030.419922"/>
     <use xlink:href="#DejaVuSans-6e" x="1109.130859"/>
     <use xlink:href="#DejaVuSans-65" x="1172.509766"/>
     <use xlink:href="#DejaVuSans-20" x="1234.033203"/>
     <use xlink:href="#DejaVuSans-4d" x="1265.820312"/>
     <use xlink:href="#DejaVuSans-69" x="1352.099609"/>
     <use xlink:href="#DejaVuSans-6e" x="1379.882812"/>
     <use xlink:href="#DejaVuSans-75" x="1443.261719"/>
     <use xlink:href="#DejaVuSans-74" x="1506.640625"/>
     <use xlink:href="#DejaVuSans-65" x="1545.849609"/>
     <use xlink:href="#DejaVuSans-20" x="1607.373047"/>
     <use xlink:href="#DejaVuSans-28" x="1639.160156"/>
     <use xlink:href="#DejaVuSans-73" x="1678.173828"/>
     <use xlink:href="#DejaVuSans-6d" x="1730.273438"/>
     <use xlink:href="#DejaVuSans-6f" x="1827.685547"/>
     <use xlink:href="#DejaVuSans-6f" x="1888.867188"/>
     <use xlink:href="#DejaVuSans-74" x="1950.048828"/>
     <use xlink:href="#DejaVuSans-68" x="1989.257812"/>
     <use xlink:href="#DejaVuSans-69" x="2052.636719"/>
     <use xlink:href="#DejaVuSans-6e" x="2080.419922"/>
     <use xlink:href="#DejaVuSans-67" x="2143.798828"/>
     <use xlink:href="#DejaVuSans-3d" x="2207.275391"/>
     <use xlink:href="#DejaVuSans-30" x="2291.064453"/>
     <use xlink:href="#DejaVuSans-2e" x="2354.6875"/>
     <use xlink:href="#DejaVuSans-39" x="2386.474609"/>
     <use xlink:href="#DejaVuSans-39" x="2450.097656"/>
     <use xlink:href="#DejaVuSans-29" x="2513.720703"/>
    </g>
   </g>
   <g id="legend_1">
    <g id="patch_7">
     <path d="M 413.652187 382.612 
L 486.767812 382.612 
Q 488.527812 382.612 488.527812 380.852 
L 488.527812 355.8985 
Q 488.527812 354.1385 486.767812 354.1385 
L 413.652187 354.1385 
Q 411.892187 354.1385 411.892187 355.8985 
L 411.892187 380.852 
Q 411.892187 382.612 413.652187 382.612 
z
" style="fill: #ffffff; opacity: 0.8; stroke: #cccccc; stroke-width: 0.8; stroke-linejoin: miter"/>
    </g>
    <g id="line2d_16">
     <path d="M 415.412187 361.265125 
L 424.212187 361.265125 
L 433.012187 361.265125 
" style="fill: none; stroke: #4e79a7; stroke-opacity: 0.3; stroke-width: 1.2; stroke-linecap: round"/>
    </g>
    <g id="text_17">
     <!-- Raw -->
     <g style="fill: #262626" transform="translate(440.052187 364.345125) scale(0.088 -0.088)">
      <defs>
       <path id="DejaVuSans-52" d="M 2841 2188 
Q 3044 2119 3236 1894 
Q 3428 1669 3622 1275 
L 4263 0 
L 3584 0 
L 2988 1197 
Q 2756 1666 2539 1819 
Q 2322 1972 1947 1972 
L 1259 1972 
L 1259 0 
L 628 0 
L 628 4666 
L 2053 4666 
Q 2853 4666 3247 4331 
Q 3641 3997 3641 3322 
Q 3641 2881 3436 2590 
Q 3231 2300 2841 2188 
z
M 1259 4147 
L 1259 2491 
L 2053 2491 
Q 2509 2491 2742 2702 
Q 2975 2913 2975 3322 
Q 2975 3731 2742 3939 
Q 2509 4147 2053 4147 
L 1259 4147 
z
" transform="scale(0.015625)"/>
       <path id="DejaVuSans-77" d="M 269 3500 
L 844 3500 
L 1563 769 
L 2278 3500 
L 2956 3500 
L 3675 769 
L 4391 3500 
L 4966 3500 
L 4050 0 
L 3372 0 
L 2619 2869 
L 1863 0 
L 1184 0 
L 269 3500 
z
" transform="scale(0.015625)"/>
      </defs>
      <use xlink:href="#DejaVuSans-52"/>
      <use xlink:href="#DejaVuSans-61" x="67.232422"/>
      <use xlink:href="#DejaVuSans-77" x="128.511719"/>
     </g>
    </g>
    <g id="line2d_17">
     <path d="M 415.412187 374.181875 
L 424.212187 374.181875 
L 433.012187 374.181875 
" style="fill: none; stroke: #4e79a7; stroke-width: 2; stroke-linecap: round"/>
    </g>
    <g id="text_18">
     <!-- Smoothed -->
     <g style="fill: #262626" transform="translate(440.052187 377.261875) scale(0.088 -0.088)">
      <defs>
       <path id="DejaVuSans-53" d="M 3425 4513 
L 3425 3897 
Q 3066 4069 2747 4153 
Q 2428 4238 2131 4238 
Q 1616 4238 1336 4038 
Q 1056 3838 1056 3469 
Q 1056 3159 1242 3001 
Q 1428 2844 1947 2747 
L 2328 2669 
Q 3034 2534 3370 2195 
Q 3706 1856 3706 1288 
Q 3706 609 3251 259 
Q 2797 -91 1919 -91 
Q 1588 -91 1214 -16 
Q 841 59 441 206 
L 441 856 
Q 825 641 1194 531 
Q 1563 422 1919 422 
Q 2459 422 2753 634 
Q 3047 847 3047 1241 
Q 3047 1584 2836 1778 
Q 2625 1972 2144 2069 
L 1759 2144 
Q 1053 2284 737 2584 
Q 422 2884 422 3419 
Q 422 4038 858 4394 
Q 1294 4750 2059 4750 
Q 2388 4750 2728 4690 
Q 3069 4631 3425 4513 
z
" transform="scale(0.015625)"/>
      </defs>
      <use xlink:href="#DejaVuSans-53"/>
      <use xlink:href="#DejaVuSans-6d" x="63.476562"/>
      <use xlink:href="#DejaVuSans-6f" x="160.888672"/>
      <use xlink:href="#DejaVuSans-6f" x="222.070312"/>
      <use xlink:href="#DejaVuSans-74" x="283.251953"/>
      <use xlink:href="#DejaVuSans-68" x="322.460938"/>
      <use xlink:href="#DejaVuSans-65" x="385.839844"/>
      <use xlink:href="#DejaVuSans-64" x="447.363281"/>
     </g>
    </g>
   </g>
  </g>
 </g>
 <defs>
  <clipPath id="p682c4ecd6b">
   <rect x="52.368" y="27.888" width="795.684" height="359.124"/>
  </clipPath>
 </defs>
</svg>
