<?xml version="1.0" encoding="utf-8" standalone="no"?>
<!DOCTYPE svg PUBLIC "-//W3C//DTD SVG 1.1//EN"
  "http://www.w3.org/Graphics/SVG/1.1/DTD/svg11.dtd">
<svg xmlns:xlink="http://www.w3.org/1999/xlink" width="576pt" height="432pt" viewBox="0 0 576 432" xmlns="http://www.w3.org/2000/svg" version="1.1">
 <metadata>
  <rdf:RDF xmlns:dc="http://purl.org/dc/elements/1.1/" xmlns:cc="http://creativecommons.org/ns#" xmlns:rdf="http://www.w3.org/1999/02/22-rdf-syntax-ns#">
   <cc:Work>
    <dc:type rdf:resource="http://purl.org/dc/dcmitype/StillImage"/>
    <dc:date>2024-07-02T11:11:09.858533</dc:date>
    <dc:format>image/svg+xml</dc:format>
    <dc:creator>
     <cc:Agent>
      <dc:title>Matplotlib v3.9.0, https://matplotlib.org/</dc:title>
     </cc:Agent>
    </dc:creator>
   </cc:Work>
  </rdf:RDF>
 </metadata>
 <defs>
  <style type="text/css">*{stroke-linejoin: round; stroke-linecap: butt}</style>
 </defs>
 <g id="figure_1">
  <g id="patch_1">
   <path d="M 0 432 
L 576 432 
L 576 0 
L 0 0 
z
" style="fill: #ffffff"/>
  </g>
  <g id="axes_1">
   <g id="patch_2">
    <path d="M 52.368 387.012 
L 560.052 387.012 
L 560.052 27.888 
L 52.368 27.888 
z
" style="fill: #ffffff"/>
   </g>
   <g id="matplotlib.axis_1">
    <g id="xtick_1">
     <g id="line2d_1">
      <path d="M 52.368 387.012 
L 52.368 27.888 
" clip-path="url(#pc419290943)" style="fill: none; stroke: #cccccc; stroke-width: 0.8; stroke-linecap: round"/>
     </g>
     <g id="text_1">
      <!-- 0 -->
      <g style="fill: #262626" transform="translate(49.5685 401.998625) scale(0.088 -0.088)">
       <defs>
        <path id="DejaVuSans-30" d="M 2034 4250 
Q 1547 4250 1301 3770 
Q 1056 3291 1056 2328 
Q 1056 1369 1301 889 
Q 1547 409 2034 409 
Q 2525 409 2770 889 
Q 3016 1369 3016 2328 
Q 3016 3291 2770 3770 
Q 2525 4250 2034 4250 
z
M 2034 4750 
Q 2819 4750 3233 4129 
Q 3647 3509 3647 2328 
Q 3647 1150 3233 529 
Q 2819 -91 2034 -91 
Q 1250 -91 836 529 
Q 422 1150 422 2328 
Q 422 3509 836 4129 
Q 1250 4750 2034 4750 
z
" transform="scale(0.015625)"/>
       </defs>
       <use xlink:href="#DejaVuSans-30"/>
      </g>
     </g>
    </g>
    <g id="xtick_2">
     <g id="line2d_2">
      <path d="M 136.982 387.012 
L 136.982 27.888 
" clip-path="url(#pc419290943)" style="fill: none; stroke: #cccccc; stroke-width: 0.8; stroke-linecap: round"/>
     </g>
     <g id="text_2">
      <!-- 10 -->
      <g style="fill: #262626" transform="translate(131.383 401.998625) scale(0.088 -0.088)">
       <defs>
        <path id="DejaVuSans-31" d="M 794 531 
L 1825 531 
L 1825 4091 
L 703 3866 
L 703 4441 
L 1819 4666 
L 2450 4666 
L 2450 531 
L 3481 531 
L 3481 0 
L 794 0 
L 794 531 
z
" transform="scale(0.015625)"/>
       </defs>
       <use xlink:href="#DejaVuSans-31"/>
       <use xlink:href="#DejaVuSans-30" x="63.623047"/>
      </g>
     </g>
    </g>
    <g id="xtick_3">
     <g id="line2d_3">
      <path d="M 221.596 387.012 
L 221.596 27.888 
" clip-path="url(#pc419290943)" style="fill: none; stroke: #cccccc; stroke-width: 0.8; stroke-linecap: round"/>
     </g>
     <g id="text_3">
      <!-- 20 -->
      <g style="fill: #262626" transform="translate(215.997 401.998625) scale(0.088 -0.088)">
       <defs>
        <path id="DejaVuSans-32" d="M 1228 531 
L 3431 531 
L 3431 0 
L 469 0 
L 469 531 
Q 828 903 1448 1529 
Q 2069 2156 2228 2338 
Q 2531 2678 2651 2914 
Q 2772 3150 2772 3378 
Q 2772 3750 2511 3984 
Q 2250 4219 1831 4219 
Q 1534 4219 1204 4116 
Q 875 4013 500 3803 
L 500 4441 
Q 881 4594 1212 4672 
Q 1544 4750 1819 4750 
Q 2544 4750 2975 4387 
Q 3406 4025 3406 3419 
Q 3406 3131 3298 2873 
Q 3191 2616 2906 2266 
Q 2828 2175 2409 1742 
Q 1991 1309 1228 531 
z
" transform="scale(0.015625)"/>
       </defs>
       <use xlink:href="#DejaVuSans-32"/>
       <use xlink:href="#DejaVuSans-30" x="63.623047"/>
      </g>
     </g>
    </g>
    <g id="xtick_4">
     <g id="line2d_4">
      <path d="M 306.21 387.012 
L 306.21 27.888 
" clip-path="url(#pc419290943)" style="fill: none; stroke: #cccccc; stroke-width: 0.8; stroke-linecap: round"/>
     </g>
     <g id="text_4">
      <!-- 30 -->
      <g style="fill: #262626" transform="translate(300.611 401.998625) scale(0.088 -0.088)">
       <defs>
        <path id="DejaVuSans-33" d="M 2597 2516 
Q 3050 2419 3304 2112 
Q 3559 1806 3559 1356 
Q 3559 666 3084 287 
Q 2609 -91 1734 -91 
Q 1441 -91 1130 -33 
Q 819 25 488 141 
L 488 750 
Q 750 597 1062 519 
Q 1375 441 1716 441 
Q 2309 441 2620 675 
Q 2931 909 2931 1356 
Q 2931 1769 2642 2001 
Q 2353 2234 1838 2234 
L 1294 2234 
L 1294 2753 
L 1863 2753 
Q 2328 2753 2575 2939 
Q 2822 3125 2822 3475 
Q 2822 3834 2567 4026 
Q 2313 4219 1838 4219 
Q 1578 4219 1281 4162 
Q 984 4106 628 3988 
L 628 4550 
Q 988 4650 1302 4700 
Q 1616 4750 1894 4750 
Q 2613 4750 3031 4423 
Q 3450 4097 3450 3541 
Q 3450 3153 3228 2886 
Q 3006 2619 2597 2516 
z
" transform="scale(0.015625)"/>
       </defs>
       <use xlink:href="#DejaVuSans-33"/>
       <use xlink:href="#DejaVuSans-30" x="63.623047"/>
      </g>
     </g>
    </g>
    <g id="xtick_5">
     <g id="line2d_5">
      <path d="M 390.824 387.012 
L 390.824 27.888 
" clip-path="url(#pc419290943)" style="fill: none; stroke: #cccccc; stroke-width: 0.8; stroke-linecap: round"/>
     </g>
     <g id="text_5">
      <!-- 40 -->
      <g style="fill: #262626" transform="translate(385.225 401.998625) scale(0.088 -0.088)">
       <defs>
        <path id="DejaVuSans-34" d="M 2419 4116 
L 825 1625 
L 2419 1625 
L 2419 4116 
z
M 2253 4666 
L 3047 4666 
L 3047 1625 
L 3713 1625 
L 3713 1100 
L 3047 1100 
L 3047 0 
L 2419 0 
L 2419 1100 
L 313 1100 
L 313 1709 
L 2253 4666 
z
" transform="scale(0.015625)"/>
       </defs>
       <use xlink:href="#DejaVuSans-34"/>
       <use xlink:href="#DejaVuSans-30" x="63.623047"/>
      </g>
     </g>
    </g>
    <g id="xtick_6">
     <g id="line2d_6">
      <path d="M 475.438 387.012 
L 475.438 27.888 
" clip-path="url(#pc419290943)" style="fill: none; stroke: #cccccc; stroke-width: 0.8; stroke-linecap: round"/>
     </g>
     <g id="text_6">
      <!-- 50 -->
      <g style="fill: #262626" transform="translate(469.839 401.998625) scale(0.088 -0.088)">
       <defs>
        <path id="DejaVuSans-35" d="M 691 4666 
L 3169 4666 
L 3169 4134 
L 1269 4134 
L 1269 2991 
Q 1406 3038 1543 3061 
Q 1681 3084 1819 3084 
Q 2600 3084 3056 2656 
Q 3513 2228 3513 1497 
Q 3513 744 3044 326 
Q 2575 -91 1722 -91 
Q 1428 -91 1123 -41 
Q 819 9 494 109 
L 494 744 
Q 775 591 1075 516 
Q 1375 441 1709 441 
Q 2250 441 2565 725 
Q 2881 1009 2881 1497 
Q 2881 1984 2565 2268 
Q 2250 2553 1709 2553 
Q 1456 2553 1204 2497 
Q 953 2441 691 2322 
L 691 4666 
z
" transform="scale(0.015625)"/>
       </defs>
       <use xlink:href="#DejaVuSans-35"/>
       <use xlink:href="#DejaVuSans-30" x="63.623047"/>
      </g>
     </g>
    </g>
    <g id="xtick_7">
     <g id="line2d_7">
      <path d="M 560.052 387.012 
L 560.052 27.888 
" clip-path="url(#pc419290943)" style="fill: none; stroke: #cccccc; stroke-width: 0.8; stroke-linecap: round"/>
     </g>
     <g id="text_7">
      <!-- 60 -->
      <g style="fill: #262626" transform="translate(554.453 401.998625) scale(0.088 -0.088)">
       <defs>
        <path id="DejaVuSans-36" d="M 2113 2584 
Q 1688 2584 1439 2293 
Q 1191 2003 1191 1497 
Q 1191 994 1439 701 
Q 1688 409 2113 409 
Q 2538 409 2786 701 
Q 3034 994 3034 1497 
Q 3034 2003 2786 2293 
Q 2538 2584 2113 2584 
z
M 3366 4563 
L 3366 3988 
Q 3128 4100 2886 4159 
Q 2644 4219 2406 4219 
Q 1781 4219 1451 3797 
Q 1122 3375 1075 2522 
Q 1259 2794 1537 2939 
Q 1816 3084 2150 3084 
Q 2853 3084 3261 2657 
Q 3669 2231 3669 1497 
Q 3669 778 3244 343 
Q 2819 -91 2113 -91 
Q 1303 -91 875 529 
Q 447 1150 447 2328 
Q 447 3434 972 4092 
Q 1497 4750 2381 4750 
Q 2619 4750 2861 4703 
Q 3103 4656 3366 4563 
z
" transform="scale(0.015625)"/>
       </defs>
       <use xlink:href="#DejaVuSans-36"/>
       <use xlink:href="#DejaVuSans-30" x="63.623047"/>
      </g>
     </g>
    </g>
    <g id="text_8">
     <!-- Time (seconds) -->
     <g style="fill: #262626" transform="translate(260.415938 416.946875) scale(0.12 -0.12)">
      <defs>
       <path id="DejaVuSans-54" d="M -19 4666 
L 3928 4666 
L 3928 4134 
L 2272 4134 
L 2272 0 
L 1638 0 
L 1638 4134 
L -19 4134 
L -19 4666 
z
" transform="scale(0.015625)"/>
       <path id="DejaVuSans-69" d="M 603 3500 
L 1178 3500 
L 1178 0 
L 603 0 
L 603 3500 
z
M 603 4863 
L 1178 4863 
L 1178 4134 
L 603 4134 
L 603 4863 
z
" transform="scale(0.015625)"/>
       <path id="DejaVuSans-6d" d="M 3328 2828 
Q 3544 3216 3844 3400 
Q 4144 3584 4550 3584 
Q 5097 3584 5394 3201 
Q 5691 2819 5691 2113 
L 5691 0 
L 5113 0 
L 5113 2094 
Q 5113 2597 4934 2840 
Q 4756 3084 4391 3084 
Q 3944 3084 3684 2787 
Q 3425 2491 3425 1978 
L 3425 0 
L 2847 0 
L 2847 2094 
Q 2847 2600 2669 2842 
Q 2491 3084 2119 3084 
Q 1678 3084 1418 2786 
Q 1159 2488 1159 1978 
L 1159 0 
L 581 0 
L 581 3500 
L 1159 3500 
L 1159 2956 
Q 1356 3278 1631 3431 
Q 1906 3584 2284 3584 
Q 2666 3584 2933 3390 
Q 3200 3197 3328 2828 
z
" transform="scale(0.015625)"/>
       <path id="DejaVuSans-65" d="M 3597 1894 
L 3597 1613 
L 953 1613 
Q 991 1019 1311 708 
Q 1631 397 2203 397 
Q 2534 397 2845 478 
Q 3156 559 3463 722 
L 3463 178 
Q 3153 47 2828 -22 
Q 2503 -91 2169 -91 
Q 1331 -91 842 396 
Q 353 884 353 1716 
Q 353 2575 817 3079 
Q 1281 3584 2069 3584 
Q 2775 3584 3186 3129 
Q 3597 2675 3597 1894 
z
M 3022 2063 
Q 3016 2534 2758 2815 
Q 2500 3097 2075 3097 
Q 1594 3097 1305 2825 
Q 1016 2553 972 2059 
L 3022 2063 
z
" transform="scale(0.015625)"/>
       <path id="DejaVuSans-20" transform="scale(0.015625)"/>
       <path id="DejaVuSans-28" d="M 1984 4856 
Q 1566 4138 1362 3434 
Q 1159 2731 1159 2009 
Q 1159 1288 1364 580 
Q 1569 -128 1984 -844 
L 1484 -844 
Q 1016 -109 783 600 
Q 550 1309 550 2009 
Q 550 2706 781 3412 
Q 1013 4119 1484 4856 
L 1984 4856 
z
" transform="scale(0.015625)"/>
       <path id="DejaVuSans-73" d="M 2834 3397 
L 2834 2853 
Q 2591 2978 2328 3040 
Q 2066 3103 1784 3103 
Q 1356 3103 1142 2972 
Q 928 2841 928 2578 
Q 928 2378 1081 2264 
Q 1234 2150 1697 2047 
L 1894 2003 
Q 2506 1872 2764 1633 
Q 3022 1394 3022 966 
Q 3022 478 2636 193 
Q 2250 -91 1575 -91 
Q 1294 -91 989 -36 
Q 684 19 347 128 
L 347 722 
Q 666 556 975 473 
Q 1284 391 1588 391 
Q 1994 391 2212 530 
Q 2431 669 2431 922 
Q 2431 1156 2273 1281 
Q 2116 1406 1581 1522 
L 1381 1569 
Q 847 1681 609 1914 
Q 372 2147 372 2553 
Q 372 3047 722 3315 
Q 1072 3584 1716 3584 
Q 2034 3584 2315 3537 
Q 2597 3491 2834 3397 
z
" transform="scale(0.015625)"/>
       <path id="DejaVuSans-63" d="M 3122 3366 
L 3122 2828 
Q 2878 2963 2633 3030 
Q 2388 3097 2138 3097 
Q 1578 3097 1268 2742 
Q 959 2388 959 1747 
Q 959 1106 1268 751 
Q 1578 397 2138 397 
Q 2388 397 2633 464 
Q 2878 531 3122 666 
L 3122 134 
Q 2881 22 2623 -34 
Q 2366 -91 2075 -91 
Q 1284 -91 818 406 
Q 353 903 353 1747 
Q 353 2603 823 3093 
Q 1294 3584 2113 3584 
Q 2378 3584 2631 3529 
Q 2884 3475 3122 3366 
z
" transform="scale(0.015625)"/>
       <path id="DejaVuSans-6f" d="M 1959 3097 
Q 1497 3097 1228 2736 
Q 959 2375 959 1747 
Q 959 1119 1226 758 
Q 1494 397 1959 397 
Q 2419 397 2687 759 
Q 2956 1122 2956 1747 
Q 2956 2369 2687 2733 
Q 2419 3097 1959 3097 
z
M 1959 3584 
Q 2709 3584 3137 3096 
Q 3566 2609 3566 1747 
Q 3566 888 3137 398 
Q 2709 -91 1959 -91 
Q 1206 -91 779 398 
Q 353 888 353 1747 
Q 353 2609 779 3096 
Q 1206 3584 1959 3584 
z
" transform="scale(0.015625)"/>
       <path id="DejaVuSans-6e" d="M 3513 2113 
L 3513 0 
L 2938 0 
L 2938 2094 
Q 2938 2591 2744 2837 
Q 2550 3084 2163 3084 
Q 1697 3084 1428 2787 
Q 1159 2491 1159 1978 
L 1159 0 
L 581 0 
L 581 3500 
L 1159 3500 
L 1159 2956 
Q 1366 3272 1645 3428 
Q 1925 3584 2291 3584 
Q 2894 3584 3203 3211 
Q 3513 2838 3513 2113 
z
" transform="scale(0.015625)"/>
       <path id="DejaVuSans-64" d="M 2906 2969 
L 2906 4863 
L 3481 4863 
L 3481 0 
L 2906 0 
L 2906 525 
Q 2725 213 2448 61 
Q 2172 -91 1784 -91 
Q 1150 -91 751 415 
Q 353 922 353 1747 
Q 353 2572 751 3078 
Q 1150 3584 1784 3584 
Q 2172 3584 2448 3432 
Q 2725 3281 2906 2969 
z
M 947 1747 
Q 947 1113 1208 752 
Q 1469 391 1925 391 
Q 2381 391 2643 752 
Q 2906 1113 2906 1747 
Q 2906 2381 2643 2742 
Q 2381 3103 1925 3103 
Q 1469 3103 1208 2742 
Q 947 2381 947 1747 
z
" transform="scale(0.015625)"/>
       <path id="DejaVuSans-29" d="M 513 4856 
L 1013 4856 
Q 1481 4119 1714 3412 
Q 1947 2706 1947 2009 
Q 1947 1309 1714 600 
Q 1481 -109 1013 -844 
L 513 -844 
Q 928 -128 1133 580 
Q 1338 1288 1338 2009 
Q 1338 2731 1133 3434 
Q 928 4138 513 4856 
z
" transform="scale(0.015625)"/>
      </defs>
      <use xlink:href="#DejaVuSans-54"/>
      <use xlink:href="#DejaVuSans-69" x="57.958984"/>
      <use xlink:href="#DejaVuSans-6d" x="85.742188"/>
      <use xlink:href="#DejaVuSans-65" x="183.154297"/>
      <use xlink:href="#DejaVuSans-20" x="244.677734"/>
      <use xlink:href="#DejaVuSans-28" x="276.464844"/>
      <use xlink:href="#DejaVuSans-73" x="315.478516"/>
      <use xlink:href="#DejaVuSans-65" x="367.578125"/>
      <use xlink:href="#DejaVuSans-63" x="429.101562"/>
      <use xlink:href="#DejaVuSans-6f" x="484.082031"/>
      <use xlink:href="#DejaVuSans-6e" x="545.263672"/>
      <use xlink:href="#DejaVuSans-64" x="608.642578"/>
      <use xlink:href="#DejaVuSans-73" x="672.119141"/>
      <use xlink:href="#DejaVuSans-29" x="724.21875"/>
     </g>
    </g>
   </g>
   <g id="matplotlib.axis_2">
    <g id="ytick_1">
     <g id="line2d_8">
      <path d="M 52.368 370.688182 
L 560.052 370.688182 
" clip-path="url(#pc419290943)" style="fill: none; stroke: #cccccc; stroke-width: 0.8; stroke-linecap: round"/>
     </g>
     <g id="text_9">
      <!-- 0 -->
      <g style="fill: #262626" transform="translate(38.469 374.031494) scale(0.088 -0.088)">
       <use xlink:href="#DejaVuSans-30"/>
      </g>
     </g>
    </g>
    <g id="ytick_2">
     <g id="line2d_9">
      <path d="M 52.368 305.392909 
L 560.052 305.392909 
" clip-path="url(#pc419290943)" style="fill: none; stroke: #cccccc; stroke-width: 0.8; stroke-linecap: round"/>
     </g>
     <g id="text_10">
      <!-- 20 -->
      <g style="fill: #262626" transform="translate(32.87 308.736222) scale(0.088 -0.088)">
       <use xlink:href="#DejaVuSans-32"/>
       <use xlink:href="#DejaVuSans-30" x="63.623047"/>
      </g>
     </g>
    </g>
    <g id="ytick_3">
     <g id="line2d_10">
      <path d="M 52.368 240.097636 
L 560.052 240.097636 
" clip-path="url(#pc419290943)" style="fill: none; stroke: #cccccc; stroke-width: 0.8; stroke-linecap: round"/>
     </g>
     <g id="text_11">
      <!-- 40 -->
      <g style="fill: #262626" transform="translate(32.87 243.440949) scale(0.088 -0.088)">
       <use xlink:href="#DejaVuSans-34"/>
       <use xlink:href="#DejaVuSans-30" x="63.623047"/>
      </g>
     </g>
    </g>
    <g id="ytick_4">
     <g id="line2d_11">
      <path d="M 52.368 174.802364 
L 560.052 174.802364 
" clip-path="url(#pc419290943)" style="fill: none; stroke: #cccccc; stroke-width: 0.8; stroke-linecap: round"/>
     </g>
     <g id="text_12">
      <!-- 60 -->
      <g style="fill: #262626" transform="translate(32.87 178.145676) scale(0.088 -0.088)">
       <use xlink:href="#DejaVuSans-36"/>
       <use xlink:href="#DejaVuSans-30" x="63.623047"/>
      </g>
     </g>
    </g>
    <g id="ytick_5">
     <g id="line2d_12">
      <path d="M 52.368 109.507091 
L 560.052 109.507091 
" clip-path="url(#pc419290943)" style="fill: none; stroke: #cccccc; stroke-width: 0.8; stroke-linecap: round"/>
     </g>
     <g id="text_13">
      <!-- 80 -->
      <g style="fill: #262626" transform="translate(32.87 112.850403) scale(0.088 -0.088)">
       <defs>
        <path id="DejaVuSans-38" d="M 2034 2216 
Q 1584 2216 1326 1975 
Q 1069 1734 1069 1313 
Q 1069 891 1326 650 
Q 1584 409 2034 409 
Q 2484 409 2743 651 
Q 3003 894 3003 1313 
Q 3003 1734 2745 1975 
Q 2488 2216 2034 2216 
z
M 1403 2484 
Q 997 2584 770 2862 
Q 544 3141 544 3541 
Q 544 4100 942 4425 
Q 1341 4750 2034 4750 
Q 2731 4750 3128 4425 
Q 3525 4100 3525 3541 
Q 3525 3141 3298 2862 
Q 3072 2584 2669 2484 
Q 3125 2378 3379 2068 
Q 3634 1759 3634 1313 
Q 3634 634 3220 271 
Q 2806 -91 2034 -91 
Q 1263 -91 848 271 
Q 434 634 434 1313 
Q 434 1759 690 2068 
Q 947 2378 1403 2484 
z
M 1172 3481 
Q 1172 3119 1398 2916 
Q 1625 2713 2034 2713 
Q 2441 2713 2670 2916 
Q 2900 3119 2900 3481 
Q 2900 3844 2670 4047 
Q 2441 4250 2034 4250 
Q 1625 4250 1398 4047 
Q 1172 3844 1172 3481 
z
" transform="scale(0.015625)"/>
       </defs>
       <use xlink:href="#DejaVuSans-38"/>
       <use xlink:href="#DejaVuSans-30" x="63.623047"/>
      </g>
     </g>
    </g>
    <g id="ytick_6">
     <g id="line2d_13">
      <path d="M 52.368 44.211818 
L 560.052 44.211818 
" clip-path="url(#pc419290943)" style="fill: none; stroke: #cccccc; stroke-width: 0.8; stroke-linecap: round"/>
     </g>
     <g id="text_14">
      <!-- 100 -->
      <g style="fill: #262626" transform="translate(27.271 47.555131) scale(0.088 -0.088)">
       <use xlink:href="#DejaVuSans-31"/>
       <use xlink:href="#DejaVuSans-30" x="63.623047"/>
       <use xlink:href="#DejaVuSans-30" x="127.246094"/>
      </g>
     </g>
    </g>
    <g id="text_15">
     <!-- GPU Utilization (%) -->
     <g style="fill: #262626" transform="translate(20.775375 264.3675) rotate(-90) scale(0.12 -0.12)">
      <defs>
       <path id="DejaVuSans-47" d="M 3809 666 
L 3809 1919 
L 2778 1919 
L 2778 2438 
L 4434 2438 
L 4434 434 
Q 4069 175 3628 42 
Q 3188 -91 2688 -91 
Q 1594 -91 976 548 
Q 359 1188 359 2328 
Q 359 3472 976 4111 
Q 1594 4750 2688 4750 
Q 3144 4750 3555 4637 
Q 3966 4525 4313 4306 
L 4313 3634 
Q 3963 3931 3569 4081 
Q 3175 4231 2741 4231 
Q 1884 4231 1454 3753 
Q 1025 3275 1025 2328 
Q 1025 1384 1454 906 
Q 1884 428 2741 428 
Q 3075 428 3337 486 
Q 3600 544 3809 666 
z
" transform="scale(0.015625)"/>
       <path id="DejaVuSans-50" d="M 1259 4147 
L 1259 2394 
L 2053 2394 
Q 2494 2394 2734 2622 
Q 2975 2850 2975 3272 
Q 2975 3691 2734 3919 
Q 2494 4147 2053 4147 
L 1259 4147 
z
M 628 4666 
L 2053 4666 
Q 2838 4666 3239 4311 
Q 3641 3956 3641 3272 
Q 3641 2581 3239 2228 
Q 2838 1875 2053 1875 
L 1259 1875 
L 1259 0 
L 628 0 
L 628 4666 
z
" transform="scale(0.015625)"/>
       <path id="DejaVuSans-55" d="M 556 4666 
L 1191 4666 
L 1191 1831 
Q 1191 1081 1462 751 
Q 1734 422 2344 422 
Q 2950 422 3222 751 
Q 3494 1081 3494 1831 
L 3494 4666 
L 4128 4666 
L 4128 1753 
Q 4128 841 3676 375 
Q 3225 -91 2344 -91 
Q 1459 -91 1007 375 
Q 556 841 556 1753 
L 556 4666 
z
" transform="scale(0.015625)"/>
       <path id="DejaVuSans-74" d="M 1172 4494 
L 1172 3500 
L 2356 3500 
L 2356 3053 
L 1172 3053 
L 1172 1153 
Q 1172 725 1289 603 
Q 1406 481 1766 481 
L 2356 481 
L 2356 0 
L 1766 0 
Q 1100 0 847 248 
Q 594 497 594 1153 
L 594 3053 
L 172 3053 
L 172 3500 
L 594 3500 
L 594 4494 
L 1172 4494 
z
" transform="scale(0.015625)"/>
       <path id="DejaVuSans-6c" d="M 603 4863 
L 1178 4863 
L 1178 0 
L 603 0 
L 603 4863 
z
" transform="scale(0.015625)"/>
       <path id="DejaVuSans-7a" d="M 353 3500 
L 3084 3500 
L 3084 2975 
L 922 459 
L 3084 459 
L 3084 0 
L 275 0 
L 275 525 
L 2438 3041 
L 353 3041 
L 353 3500 
z
" transform="scale(0.015625)"/>
       <path id="DejaVuSans-61" d="M 2194 1759 
Q 1497 1759 1228 1600 
Q 959 1441 959 1056 
Q 959 750 1161 570 
Q 1363 391 1709 391 
Q 2188 391 2477 730 
Q 2766 1069 2766 1631 
L 2766 1759 
L 2194 1759 
z
M 3341 1997 
L 3341 0 
L 2766 0 
L 2766 531 
Q 2569 213 2275 61 
Q 1981 -91 1556 -91 
Q 1019 -91 701 211 
Q 384 513 384 1019 
Q 384 1609 779 1909 
Q 1175 2209 1959 2209 
L 2766 2209 
L 2766 2266 
Q 2766 2663 2505 2880 
Q 2244 3097 1772 3097 
Q 1472 3097 1187 3025 
Q 903 2953 641 2809 
L 641 3341 
Q 956 3463 1253 3523 
Q 1550 3584 1831 3584 
Q 2591 3584 2966 3190 
Q 3341 2797 3341 1997 
z
" transform="scale(0.015625)"/>
       <path id="DejaVuSans-25" d="M 4653 2053 
Q 4381 2053 4226 1822 
Q 4072 1591 4072 1178 
Q 4072 772 4226 539 
Q 4381 306 4653 306 
Q 4919 306 5073 539 
Q 5228 772 5228 1178 
Q 5228 1588 5073 1820 
Q 4919 2053 4653 2053 
z
M 4653 2450 
Q 5147 2450 5437 2106 
Q 5728 1763 5728 1178 
Q 5728 594 5436 251 
Q 5144 -91 4653 -91 
Q 4153 -91 3862 251 
Q 3572 594 3572 1178 
Q 3572 1766 3864 2108 
Q 4156 2450 4653 2450 
z
M 1428 4353 
Q 1159 4353 1004 4120 
Q 850 3888 850 3481 
Q 850 3069 1003 2837 
Q 1156 2606 1428 2606 
Q 1700 2606 1854 2837 
Q 2009 3069 2009 3481 
Q 2009 3884 1853 4118 
Q 1697 4353 1428 4353 
z
M 4250 4750 
L 4750 4750 
L 1831 -91 
L 1331 -91 
L 4250 4750 
z
M 1428 4750 
Q 1922 4750 2215 4408 
Q 2509 4066 2509 3481 
Q 2509 2891 2217 2550 
Q 1925 2209 1428 2209 
Q 931 2209 642 2551 
Q 353 2894 353 3481 
Q 353 4063 643 4406 
Q 934 4750 1428 4750 
z
" transform="scale(0.015625)"/>
      </defs>
      <use xlink:href="#DejaVuSans-47"/>
      <use xlink:href="#DejaVuSans-50" x="77.490234"/>
      <use xlink:href="#DejaVuSans-55" x="137.792969"/>
      <use xlink:href="#DejaVuSans-20" x="210.986328"/>
      <use xlink:href="#DejaVuSans-55" x="242.773438"/>
      <use xlink:href="#DejaVuSans-74" x="315.966797"/>
      <use xlink:href="#DejaVuSans-69" x="355.175781"/>
      <use xlink:href="#DejaVuSans-6c" x="382.958984"/>
      <use xlink:href="#DejaVuSans-69" x="410.742188"/>
      <use xlink:href="#DejaVuSans-7a" x="438.525391"/>
      <use xlink:href="#DejaVuSans-61" x="491.015625"/>
      <use xlink:href="#DejaVuSans-74" x="552.294922"/>
      <use xlink:href="#DejaVuSans-69" x="591.503906"/>
      <use xlink:href="#DejaVuSans-6f" x="619.287109"/>
      <use xlink:href="#DejaVuSans-6e" x="680.46875"/>
      <use xlink:href="#DejaVuSans-20" x="743.847656"/>
      <use xlink:href="#DejaVuSans-28" x="775.634766"/>
      <use xlink:href="#DejaVuSans-25" x="814.648438"/>
      <use xlink:href="#DejaVuSans-29" x="909.667969"/>
     </g>
    </g>
   </g>
   <g id="PolyCollection_1"/>
   <g id="PolyCollection_2"/>
   <g id="line2d_14">
    <path d="M 52.368 54.006109 
L 53.21414 47.476582 
L 54.06028 44.211818 
L 56.5987 44.211818 
L 57.44484 135.6252 
L 58.29098 135.6252 
L 59.13712 44.211818 
L 59.98326 44.211818 
L 60.8294 47.476582 
L 61.67554 47.476582 
L 62.52168 44.211818 
L 64.21396 44.211818 
L 65.0601 276.010036 
L 65.90624 276.010036 
L 66.75238 145.419491 
L 67.59852 44.211818 
L 68.44466 44.211818 
L 69.2908 47.476582 
L 70.13694 44.211818 
L 72.67536 44.211818 
L 73.5215 54.006109 
L 74.36764 44.211818 
L 75.21378 44.211818 
L 76.05992 50.741345 
L 76.90606 44.211818 
L 80.29062 44.211818 
L 81.13676 217.244291 
L 81.9829 217.244291 
L 82.82904 44.211818 
L 83.67518 44.211818 
L 84.52132 47.476582 
L 85.36746 47.476582 
L 86.2136 44.211818 
L 87.90588 44.211818 
L 88.75202 80.124218 
L 89.59816 259.686218 
L 90.4443 259.686218 
L 91.29044 44.211818 
L 92.13658 47.476582 
L 92.98272 44.211818 
L 96.36728 44.211818 
L 97.21342 256.421455 
L 98.05956 132.360436 
L 98.9057 132.360436 
L 99.75184 44.211818 
L 100.59798 47.476582 
L 101.44412 44.211818 
L 103.98254 44.211818 
L 104.82868 63.8004 
L 105.67482 311.922436 
L 106.52096 44.211818 
L 107.3671 44.211818 
L 108.21324 47.476582 
L 109.05938 44.211818 
L 111.5978 44.211818 
L 112.44394 204.185236 
L 113.29008 194.390945 
L 114.13622 194.390945 
L 114.98236 44.211818 
L 115.8285 47.476582 
L 116.67464 47.476582 
L 117.52078 44.211818 
L 120.90534 44.211818 
L 121.75148 298.863382 
L 122.59762 44.211818 
L 123.44376 47.476582 
L 124.2899 44.211818 
L 127.67446 44.211818 
L 128.5206 171.5376 
L 129.36674 171.5376 
L 130.21288 174.802364 
L 131.05902 44.211818 
L 131.90516 47.476582 
L 132.7513 47.476582 
L 133.59744 44.211818 
L 136.13586 44.211818 
L 136.982 338.040545 
L 137.82814 338.040545 
L 138.67428 44.211818 
L 139.52042 47.476582 
L 140.36656 44.211818 
L 143.75112 44.211818 
L 145.4434 246.627164 
L 146.28954 44.211818 
L 147.13568 44.211818 
L 147.98182 47.476582 
L 148.82796 47.476582 
L 149.6741 44.211818 
L 152.21252 44.211818 
L 153.05866 269.480509 
L 153.9048 269.480509 
L 154.75094 44.211818 
L 155.59708 44.211818 
L 156.44322 47.476582 
L 157.28936 44.211818 
L 159.82778 44.211818 
L 160.67392 60.535636 
L 161.52006 370.688182 
L 162.3662 112.771855 
L 163.21234 44.211818 
L 164.05848 44.211818 
L 164.90462 47.476582 
L 165.75076 47.476582 
L 166.5969 44.211818 
L 168.28918 44.211818 
L 169.13532 80.124218 
L 169.98146 207.45 
L 170.8276 207.45 
L 171.67374 47.476582 
L 172.51988 47.476582 
L 173.36602 44.211818 
L 176.75058 44.211818 
L 177.59672 253.156691 
L 178.44286 44.211818 
L 179.289 47.476582 
L 180.13514 44.211818 
L 183.5197 44.211818 
L 184.36584 204.185236 
L 185.21198 204.185236 
L 186.05812 89.918509 
L 186.90426 44.211818 
L 187.7504 44.211818 
L 188.59654 47.476582 
L 189.44268 44.211818 
L 191.13496 44.211818 
L 191.9811 102.977564 
L 192.82724 181.331891 
L 193.67338 181.331891 
L 194.51952 44.211818 
L 195.36566 47.476582 
L 196.2118 44.211818 
L 199.59636 44.211818 
L 200.4425 256.421455 
L 201.28864 44.211818 
L 202.13478 44.211818 
L 202.98092 47.476582 
L 203.82706 44.211818 
L 207.21162 44.211818 
L 208.05776 227.038582 
L 208.9039 119.301382 
L 209.75004 44.211818 
L 210.59618 47.476582 
L 211.44232 47.476582 
L 212.28846 44.211818 
L 213.98074 44.211818 
L 214.82688 70.329927 
L 215.67302 367.423418 
L 216.51916 367.423418 
L 217.3653 67.065164 
L 218.21144 47.476582 
L 219.05758 47.476582 
L 219.90372 44.211818 
L 222.44214 44.211818 
L 223.28828 129.095673 
L 224.13442 129.095673 
L 224.98056 210.714764 
L 225.8267 44.211818 
L 226.67284 44.211818 
L 227.51898 60.535636 
L 228.36512 44.211818 
L 230.90354 44.211818 
L 231.74968 266.215745 
L 232.59582 266.215745 
L 233.44196 44.211818 
L 234.2881 57.270873 
L 235.13424 44.211818 
L 238.5188 44.211818 
L 239.36494 168.272836 
L 240.21108 135.6252 
L 241.05722 135.6252 
L 241.90336 44.211818 
L 242.7495 47.476582 
L 243.59564 47.476582 
L 244.44178 44.211818 
L 245.28792 44.211818 
L 246.13406 60.535636 
L 246.9802 60.535636 
L 247.82634 370.688182 
L 248.67248 129.095673 
L 249.51862 129.095673 
L 250.36476 44.211818 
L 251.2109 47.476582 
L 252.05704 44.211818 
L 254.59546 44.211818 
L 255.4416 60.535636 
L 256.28774 370.688182 
L 257.13388 54.006109 
L 257.98002 54.006109 
L 258.82616 47.476582 
L 259.6723 44.211818 
L 263.05686 44.211818 
L 263.903 138.889964 
L 264.74914 158.478545 
L 265.59528 158.478545 
L 266.44142 44.211818 
L 267.28756 47.476582 
L 268.1337 44.211818 
L 271.51826 44.211818 
L 272.3644 249.891927 
L 273.21054 44.211818 
L 274.05668 47.476582 
L 274.90282 44.211818 
L 278.28738 44.211818 
L 279.13352 259.686218 
L 279.97966 259.686218 
L 280.8258 50.741345 
L 282.51808 44.211818 
L 285.0565 44.211818 
L 285.90264 142.154727 
L 286.74878 142.154727 
L 287.59492 171.5376 
L 288.44106 44.211818 
L 289.2872 44.211818 
L 290.13334 47.476582 
L 290.97948 44.211818 
L 294.36404 44.211818 
L 295.21018 259.686218 
L 296.05632 44.211818 
L 296.90246 47.476582 
L 297.7486 44.211818 
L 301.13316 44.211818 
L 301.9793 236.832873 
L 302.82544 236.832873 
L 303.67158 50.741345 
L 305.36386 44.211818 
L 307.90228 44.211818 
L 308.74842 142.154727 
L 309.59456 142.154727 
L 310.4407 328.246255 
L 311.28684 44.211818 
L 312.13298 44.211818 
L 312.97912 47.476582 
L 313.82526 44.211818 
L 316.36368 44.211818 
L 317.20982 187.861418 
L 318.05596 155.213782 
L 318.9021 155.213782 
L 319.74824 44.211818 
L 320.59438 47.476582 
L 321.44052 47.476582 
L 322.28666 44.211818 
L 324.82508 44.211818 
L 325.67122 305.392909 
L 326.51736 44.211818 
L 327.3635 44.211818 
L 328.20964 47.476582 
L 329.05578 44.211818 
L 332.44034 44.211818 
L 333.28648 210.714764 
L 334.13262 93.183273 
L 334.97876 93.183273 
L 335.8249 44.211818 
L 336.67104 44.211818 
L 337.51718 47.476582 
L 338.36332 44.211818 
L 340.0556 44.211818 
L 340.90174 102.977564 
L 341.74788 200.920473 
L 342.59402 200.920473 
L 343.44016 44.211818 
L 344.2863 47.476582 
L 345.13244 44.211818 
L 348.517 44.211818 
L 349.36314 298.863382 
L 350.20928 298.863382 
L 351.05542 44.211818 
L 351.90156 60.535636 
L 352.7477 60.535636 
L 353.59384 44.211818 
L 355.28612 44.211818 
L 356.13226 145.419491 
L 356.9784 145.419491 
L 357.82454 249.891927 
L 358.67068 44.211818 
L 359.51682 44.211818 
L 360.36296 47.476582 
L 361.2091 44.211818 
L 366.28594 44.211818 
L 367.13208 47.476582 
L 367.97822 44.211818 
L 371.36278 44.211818 
L 372.20892 161.743309 
L 373.05506 125.830909 
L 373.9012 125.830909 
L 374.74734 44.211818 
L 375.59348 47.476582 
L 376.43962 47.476582 
L 377.28576 44.211818 
L 378.97804 44.211818 
L 379.82418 67.065164 
L 380.67032 236.832873 
L 381.51646 236.832873 
L 382.3626 47.476582 
L 383.20874 47.476582 
L 384.05488 44.211818 
L 387.43944 44.211818 
L 388.28558 246.627164 
L 389.13172 44.211818 
L 389.97786 47.476582 
L 390.824 44.211818 
L 394.20856 44.211818 
L 395.0547 181.331891 
L 395.90084 181.331891 
L 396.74698 106.242327 
L 397.59312 44.211818 
L 398.43926 47.476582 
L 399.2854 44.211818 
L 401.82382 44.211818 
L 402.66996 213.979527 
L 404.36224 213.979527 
L 405.20838 47.476582 
L 406.05452 47.476582 
L 406.90066 44.211818 
L 409.43908 44.211818 
L 410.28522 305.392909 
L 411.13136 305.392909 
L 411.9775 246.627164 
L 412.82364 44.211818 
L 413.66978 44.211818 
L 414.51592 47.476582 
L 415.36206 44.211818 
L 418.74662 44.211818 
L 419.59276 272.745273 
L 420.4389 266.215745 
L 421.28504 266.215745 
L 422.13118 47.476582 
L 422.97732 47.476582 
L 423.82346 44.211818 
L 427.20802 44.211818 
L 428.05416 240.097636 
L 428.9003 44.211818 
L 429.74644 47.476582 
L 430.59258 44.211818 
L 433.97714 44.211818 
L 434.82328 165.008073 
L 435.66942 165.008073 
L 436.51556 125.830909 
L 437.3617 44.211818 
L 438.20784 47.476582 
L 439.05398 44.211818 
L 440.74626 44.211818 
L 441.5924 73.594691 
L 442.43854 73.594691 
L 443.28468 328.246255 
L 444.13082 44.211818 
L 444.97696 47.476582 
L 445.8231 44.211818 
L 449.20766 44.211818 
L 450.0538 187.861418 
L 450.89994 256.421455 
L 451.74608 256.421455 
L 452.59222 44.211818 
L 453.43836 44.211818 
L 454.2845 47.476582 
L 455.13064 44.211818 
L 457.66906 44.211818 
L 458.5152 249.891927 
L 459.36134 44.211818 
L 460.20748 44.211818 
L 461.05362 47.476582 
L 461.89976 44.211818 
L 464.43818 44.211818 
L 465.28432 161.743309 
L 466.13046 145.419491 
L 466.9766 145.419491 
L 467.82274 44.211818 
L 468.66888 44.211818 
L 469.51502 47.476582 
L 470.36116 44.211818 
L 472.05344 44.211818 
L 472.89958 47.476582 
L 473.74572 334.775782 
L 474.59186 334.775782 
L 475.438 44.211818 
L 476.28414 47.476582 
L 477.13028 44.211818 
L 479.6687 44.211818 
L 480.51484 181.331891 
L 481.36098 181.331891 
L 482.20712 148.684255 
L 483.05326 44.211818 
L 483.8994 44.211818 
L 484.74554 47.476582 
L 485.59168 47.476582 
L 486.43782 44.211818 
L 488.1301 44.211818 
L 488.97624 302.128145 
L 489.82238 302.128145 
L 490.66852 44.211818 
L 491.51466 44.211818 
L 492.3608 47.476582 
L 493.20694 44.211818 
L 496.5915 44.211818 
L 497.43764 217.244291 
L 498.28378 151.949018 
L 499.12992 151.949018 
L 499.97606 47.476582 
L 500.8222 47.476582 
L 501.66834 44.211818 
L 504.20676 44.211818 
L 505.0529 370.688182 
L 505.89904 370.688182 
L 506.74518 165.008073 
L 507.59132 165.008073 
L 508.43746 44.211818 
L 509.2836 47.476582 
L 510.12974 44.211818 
L 513.5143 44.211818 
L 514.36044 269.480509 
L 515.20658 44.211818 
L 516.05272 47.476582 
L 516.89886 44.211818 
L 519.43728 44.211818 
L 520.28342 233.568109 
L 521.12956 233.568109 
L 522.82184 44.211818 
L 523.66798 44.211818 
L 524.51412 47.476582 
L 525.36026 44.211818 
L 527.05254 44.211818 
L 527.89868 57.270873 
L 528.74482 370.688182 
L 529.59096 370.688182 
L 530.4371 89.918509 
L 531.28324 89.918509 
L 532.12938 47.476582 
L 532.97552 47.476582 
L 533.82166 44.211818 
L 535.51394 44.211818 
L 536.36008 99.7128 
L 537.20622 276.010036 
L 538.05236 276.010036 
L 538.8985 44.211818 
L 539.74464 47.476582 
L 540.59078 47.476582 
L 541.43692 44.211818 
L 544.82148 44.211818 
L 545.66762 240.097636 
L 546.51376 89.918509 
L 547.3599 44.211818 
L 548.20604 44.211818 
L 549.05218 47.476582 
L 549.89832 44.211818 
L 551.5906 44.211818 
L 552.43674 54.006109 
L 553.28288 54.006109 
L 554.12902 44.211818 
L 554.97516 60.535636 
L 555.8213 44.211818 
L 556.66744 44.211818 
L 557.51358 57.270873 
L 558.35972 44.211818 
L 559.20586 44.211818 
L 559.20586 44.211818 
" clip-path="url(#pc419290943)" style="fill: none; stroke: #4e79a7; stroke-opacity: 0.3; stroke-width: 1.2; stroke-linecap: round"/>
   </g>
   <g id="line2d_15">
    <path d="M 52.368 54.006109 
L 53.21414 47.476582 
L 54.06028 44.211818 
L 56.5987 44.211818 
L 57.44484 135.6252 
L 58.29098 135.6252 
L 59.13712 44.211818 
L 59.98326 44.211818 
L 60.8294 47.476582 
L 61.67554 47.476582 
L 62.52168 44.211818 
L 64.21396 44.211818 
L 65.0601 276.010036 
L 65.90624 276.010036 
L 66.75238 145.419491 
L 67.59852 44.211818 
L 68.44466 44.211818 
L 69.2908 47.476582 
L 70.13694 44.211818 
L 72.67536 44.211818 
L 73.5215 54.006109 
L 74.36764 44.211818 
L 75.21378 44.211818 
L 76.05992 50.741345 
L 76.90606 44.211818 
L 80.29062 44.211818 
L 81.13676 217.244291 
L 81.9829 217.244291 
L 82.82904 44.211818 
L 83.67518 44.211818 
L 84.52132 47.476582 
L 85.36746 47.476582 
L 86.2136 44.211818 
L 87.90588 44.211818 
L 88.75202 80.124218 
L 89.59816 259.686218 
L 90.4443 259.686218 
L 91.29044 44.211818 
L 92.13658 47.476582 
L 92.98272 44.211818 
L 96.36728 44.211818 
L 97.21342 256.421455 
L 98.05956 132.360436 
L 98.9057 132.360436 
L 99.75184 44.211818 
L 100.59798 47.476582 
L 101.44412 44.211818 
L 103.98254 44.211818 
L 104.82868 63.8004 
L 105.67482 311.922436 
L 106.52096 44.211818 
L 107.3671 44.211818 
L 108.21324 47.476582 
L 109.05938 44.211818 
L 111.5978 44.211818 
L 112.44394 204.185236 
L 113.29008 194.390945 
L 114.13622 194.390945 
L 114.98236 44.211818 
L 115.8285 47.476582 
L 116.67464 47.476582 
L 117.52078 44.211818 
L 120.90534 44.211818 
L 121.75148 298.863382 
L 122.59762 44.211818 
L 123.44376 47.476582 
L 124.2899 44.211818 
L 127.67446 44.211818 
L 128.5206 171.5376 
L 129.36674 171.5376 
L 130.21288 174.802364 
L 131.05902 44.211818 
L 131.90516 47.476582 
L 132.7513 47.476582 
L 133.59744 44.211818 
L 136.13586 44.211818 
L 136.982 338.040545 
L 137.82814 338.040545 
L 138.67428 44.211818 
L 139.52042 47.476582 
L 140.36656 44.211818 
L 143.75112 44.211818 
L 145.4434 246.627164 
L 146.28954 44.211818 
L 147.13568 44.211818 
L 147.98182 47.476582 
L 148.82796 47.476582 
L 149.6741 44.211818 
L 152.21252 44.211818 
L 153.05866 269.480509 
L 153.9048 269.480509 
L 154.75094 44.211818 
L 155.59708 44.211818 
L 156.44322 47.476582 
L 157.28936 44.211818 
L 159.82778 44.211818 
L 160.67392 60.535636 
L 161.52006 370.688182 
L 162.3662 112.771855 
L 163.21234 44.211818 
L 164.05848 44.211818 
L 164.90462 47.476582 
L 165.75076 47.476582 
L 166.5969 44.211818 
L 168.28918 44.211818 
L 169.13532 80.124218 
L 169.98146 207.45 
L 170.8276 207.45 
L 171.67374 47.476582 
L 172.51988 47.476582 
L 173.36602 44.211818 
L 176.75058 44.211818 
L 177.59672 253.156691 
L 178.44286 44.211818 
L 179.289 47.476582 
L 180.13514 44.211818 
L 183.5197 44.211818 
L 184.36584 204.185236 
L 185.21198 204.185236 
L 186.05812 89.918509 
L 186.90426 44.211818 
L 187.7504 44.211818 
L 188.59654 47.476582 
L 189.44268 44.211818 
L 191.13496 44.211818 
L 191.9811 102.977564 
L 192.82724 181.331891 
L 193.67338 181.331891 
L 194.51952 44.211818 
L 195.36566 47.476582 
L 196.2118 44.211818 
L 199.59636 44.211818 
L 200.4425 256.421455 
L 201.28864 44.211818 
L 202.13478 44.211818 
L 202.98092 47.476582 
L 203.82706 44.211818 
L 207.21162 44.211818 
L 208.05776 227.038582 
L 208.9039 119.301382 
L 209.75004 44.211818 
L 210.59618 47.476582 
L 211.44232 47.476582 
L 212.28846 44.211818 
L 213.98074 44.211818 
L 214.82688 70.329927 
L 215.67302 367.423418 
L 216.51916 367.423418 
L 217.3653 67.065164 
L 218.21144 47.476582 
L 219.05758 47.476582 
L 219.90372 44.211818 
L 222.44214 44.211818 
L 223.28828 129.095673 
L 224.13442 129.095673 
L 224.98056 210.714764 
L 225.8267 44.211818 
L 226.67284 44.211818 
L 227.51898 60.535636 
L 228.36512 44.211818 
L 230.90354 44.211818 
L 231.74968 266.215745 
L 232.59582 266.215745 
L 233.44196 44.211818 
L 234.2881 57.270873 
L 235.13424 44.211818 
L 238.5188 44.211818 
L 239.36494 168.272836 
L 240.21108 135.6252 
L 241.05722 135.6252 
L 241.90336 44.211818 
L 242.7495 47.476582 
L 243.59564 47.476582 
L 244.44178 44.211818 
L 245.28792 44.211818 
L 246.13406 60.535636 
L 246.9802 60.535636 
L 247.82634 370.688182 
L 248.67248 129.095673 
L 249.51862 129.095673 
L 250.36476 44.211818 
L 251.2109 47.476582 
L 252.05704 44.211818 
L 254.59546 44.211818 
L 255.4416 60.535636 
L 256.28774 370.688182 
L 257.13388 54.006109 
L 257.98002 54.006109 
L 258.82616 47.476582 
L 259.6723 44.211818 
L 263.05686 44.211818 
L 263.903 138.889964 
L 264.74914 158.478545 
L 265.59528 158.478545 
L 266.44142 44.211818 
L 267.28756 47.476582 
L 268.1337 44.211818 
L 271.51826 44.211818 
L 272.3644 249.891927 
L 273.21054 44.211818 
L 274.05668 47.476582 
L 274.90282 44.211818 
L 278.28738 44.211818 
L 279.13352 259.686218 
L 279.97966 259.686218 
L 280.8258 50.741345 
L 282.51808 44.211818 
L 285.0565 44.211818 
L 285.90264 142.154727 
L 286.74878 142.154727 
L 287.59492 171.5376 
L 288.44106 44.211818 
L 289.2872 44.211818 
L 290.13334 47.476582 
L 290.97948 44.211818 
L 294.36404 44.211818 
L 295.21018 259.686218 
L 296.05632 44.211818 
L 296.90246 47.476582 
L 297.7486 44.211818 
L 301.13316 44.211818 
L 301.9793 236.832873 
L 302.82544 236.832873 
L 303.67158 50.741345 
L 305.36386 44.211818 
L 307.90228 44.211818 
L 308.74842 142.154727 
L 309.59456 142.154727 
L 310.4407 328.246255 
L 311.28684 44.211818 
L 312.13298 44.211818 
L 312.97912 47.476582 
L 313.82526 44.211818 
L 316.36368 44.211818 
L 317.20982 187.861418 
L 318.05596 155.213782 
L 318.9021 155.213782 
L 319.74824 44.211818 
L 320.59438 47.476582 
L 321.44052 47.476582 
L 322.28666 44.211818 
L 324.82508 44.211818 
L 325.67122 305.392909 
L 326.51736 44.211818 
L 327.3635 44.211818 
L 328.20964 47.476582 
L 329.05578 44.211818 
L 332.44034 44.211818 
L 333.28648 210.714764 
L 334.13262 93.183273 
L 334.97876 93.183273 
L 335.8249 44.211818 
L 336.67104 44.211818 
L 337.51718 47.476582 
L 338.36332 44.211818 
L 340.0556 44.211818 
L 340.90174 102.977564 
L 341.74788 200.920473 
L 342.59402 200.920473 
L 343.44016 44.211818 
L 344.2863 47.476582 
L 345.13244 44.211818 
L 348.517 44.211818 
L 349.36314 298.863382 
L 350.20928 298.863382 
L 351.05542 44.211818 
L 351.90156 60.535636 
L 352.7477 60.535636 
L 353.59384 44.211818 
L 355.28612 44.211818 
L 356.13226 145.419491 
L 356.9784 145.419491 
L 357.82454 249.891927 
L 358.67068 44.211818 
L 359.51682 44.211818 
L 360.36296 47.476582 
L 361.2091 44.211818 
L 366.28594 44.211818 
L 367.13208 47.476582 
L 367.97822 44.211818 
L 371.36278 44.211818 
L 372.20892 161.743309 
L 373.05506 125.830909 
L 373.9012 125.830909 
L 374.74734 44.211818 
L 375.59348 47.476582 
L 376.43962 47.476582 
L 377.28576 44.211818 
L 378.97804 44.211818 
L 379.82418 67.065164 
L 380.67032 236.832873 
L 381.51646 236.832873 
L 382.3626 47.476582 
L 383.20874 47.476582 
L 384.05488 44.211818 
L 387.43944 44.211818 
L 388.28558 246.627164 
L 389.13172 44.211818 
L 389.97786 47.476582 
L 390.824 44.211818 
L 394.20856 44.211818 
L 395.0547 181.331891 
L 395.90084 181.331891 
L 396.74698 106.242327 
L 397.59312 44.211818 
L 398.43926 47.476582 
L 399.2854 44.211818 
L 401.82382 44.211818 
L 402.66996 213.979527 
L 404.36224 213.979527 
L 405.20838 47.476582 
L 406.05452 47.476582 
L 406.90066 44.211818 
L 409.43908 44.211818 
L 410.28522 305.392909 
L 411.13136 305.392909 
L 411.9775 246.627164 
L 412.82364 44.211818 
L 413.66978 44.211818 
L 414.51592 47.476582 
L 415.36206 44.211818 
L 418.74662 44.211818 
L 419.59276 272.745273 
L 420.4389 266.215745 
L 421.28504 266.215745 
L 422.13118 47.476582 
L 422.97732 47.476582 
L 423.82346 44.211818 
L 427.20802 44.211818 
L 428.05416 240.097636 
L 428.9003 44.211818 
L 429.74644 47.476582 
L 430.59258 44.211818 
L 433.97714 44.211818 
L 434.82328 165.008073 
L 435.66942 165.008073 
L 436.51556 125.830909 
L 437.3617 44.211818 
L 438.20784 47.476582 
L 439.05398 44.211818 
L 440.74626 44.211818 
L 441.5924 73.594691 
L 442.43854 73.594691 
L 443.28468 328.246255 
L 444.13082 44.211818 
L 444.97696 47.476582 
L 445.8231 44.211818 
L 449.20766 44.211818 
L 450.0538 187.861418 
L 450.89994 256.421455 
L 451.74608 256.421455 
L 452.59222 44.211818 
L 453.43836 44.211818 
L 454.2845 47.476582 
L 455.13064 44.211818 
L 457.66906 44.211818 
L 458.5152 249.891927 
L 459.36134 44.211818 
L 460.20748 44.211818 
L 461.05362 47.476582 
L 461.89976 44.211818 
L 464.43818 44.211818 
L 465.28432 161.743309 
L 466.13046 145.419491 
L 466.9766 145.419491 
L 467.82274 44.211818 
L 468.66888 44.211818 
L 469.51502 47.476582 
L 470.36116 44.211818 
L 472.05344 44.211818 
L 472.89958 47.476582 
L 473.74572 334.775782 
L 474.59186 334.775782 
L 475.438 44.211818 
L 476.28414 47.476582 
L 477.13028 44.211818 
L 479.6687 44.211818 
L 480.51484 181.331891 
L 481.36098 181.331891 
L 482.20712 148.684255 
L 483.05326 44.211818 
L 483.8994 44.211818 
L 484.74554 47.476582 
L 485.59168 47.476582 
L 486.43782 44.211818 
L 488.1301 44.211818 
L 488.97624 302.128145 
L 489.82238 302.128145 
L 490.66852 44.211818 
L 491.51466 44.211818 
L 492.3608 47.476582 
L 493.20694 44.211818 
L 496.5915 44.211818 
L 497.43764 217.244291 
L 498.28378 151.949018 
L 499.12992 151.949018 
L 499.97606 47.476582 
L 500.8222 47.476582 
L 501.66834 44.211818 
L 504.20676 44.211818 
L 505.0529 370.688182 
L 505.89904 370.688182 
L 506.74518 165.008073 
L 507.59132 165.008073 
L 508.43746 44.211818 
L 509.2836 47.476582 
L 510.12974 44.211818 
L 513.5143 44.211818 
L 514.36044 269.480509 
L 515.20658 44.211818 
L 516.05272 47.476582 
L 516.89886 44.211818 
L 519.43728 44.211818 
L 520.28342 233.568109 
L 521.12956 233.568109 
L 522.82184 44.211818 
L 523.66798 44.211818 
L 524.51412 47.476582 
L 525.36026 44.211818 
L 527.05254 44.211818 
L 527.89868 57.270873 
L 528.74482 370.688182 
L 529.59096 370.688182 
L 530.4371 89.918509 
L 531.28324 89.918509 
L 532.12938 47.476582 
L 532.97552 47.476582 
L 533.82166 44.211818 
L 535.51394 44.211818 
L 536.36008 99.7128 
L 537.20622 276.010036 
L 538.05236 276.010036 
L 538.8985 44.211818 
L 539.74464 47.476582 
L 540.59078 47.476582 
L 541.43692 44.211818 
L 544.82148 44.211818 
L 545.66762 240.097636 
L 546.51376 89.918509 
L 547.3599 44.211818 
L 548.20604 44.211818 
L 549.05218 47.476582 
L 549.89832 44.211818 
L 551.5906 44.211818 
L 552.43674 54.006109 
L 553.28288 54.006109 
L 554.12902 44.211818 
L 554.97516 60.535636 
L 555.8213 44.211818 
L 556.66744 44.211818 
L 557.51358 57.270873 
L 558.35972 44.211818 
L 559.20586 44.211818 
L 559.20586 44.211818 
" clip-path="url(#pc419290943)" style="fill: none; stroke: #4e79a7; stroke-width: 2; stroke-linecap: round"/>
   </g>
   <g id="patch_3">
    <path d="M 52.368 387.012 
L 52.368 27.888 
" style="fill: none; stroke: #cccccc; stroke-linejoin: miter; stroke-linecap: square"/>
   </g>
   <g id="patch_4">
    <path d="M 560.052 387.012 
L 560.052 27.888 
" style="fill: none; stroke: #cccccc; stroke-linejoin: miter; stroke-linecap: square"/>
   </g>
   <g id="patch_5">
    <path d="M 52.368 387.012 
L 560.052 387.012 
" style="fill: none; stroke: #cccccc; stroke-linejoin: miter; stroke-linecap: square"/>
   </g>
   <g id="patch_6">
    <path d="M 52.368 27.888 
L 560.052 27.888 
" style="fill: none; stroke: #cccccc; stroke-linejoin: miter; stroke-linecap: square"/>
   </g>
   <g id="text_16">
    <!-- GPU Utilization over One Minute (smoothing=0) -->
    <g style="fill: #262626" transform="translate(114.7175 21.888) scale(0.16 -0.16)">
     <defs>
      <path id="DejaVuSans-76" d="M 191 3500 
L 800 3500 
L 1894 563 
L 2988 3500 
L 3597 3500 
L 2284 0 
L 1503 0 
L 191 3500 
z
" transform="scale(0.015625)"/>
      <path id="DejaVuSans-72" d="M 2631 2963 
Q 2534 3019 2420 3045 
Q 2306 3072 2169 3072 
Q 1681 3072 1420 2755 
Q 1159 2438 1159 1844 
L 1159 0 
L 581 0 
L 581 3500 
L 1159 3500 
L 1159 2956 
Q 1341 3275 1631 3429 
Q 1922 3584 2338 3584 
Q 2397 3584 2469 3576 
Q 2541 3569 2628 3553 
L 2631 2963 
z
" transform="scale(0.015625)"/>
      <path id="DejaVuSans-4f" d="M 2522 4238 
Q 1834 4238 1429 3725 
Q 1025 3213 1025 2328 
Q 1025 1447 1429 934 
Q 1834 422 2522 422 
Q 3209 422 3611 934 
Q 4013 1447 4013 2328 
Q 4013 3213 3611 3725 
Q 3209 4238 2522 4238 
z
M 2522 4750 
Q 3503 4750 4090 4092 
Q 4678 3434 4678 2328 
Q 4678 1225 4090 567 
Q 3503 -91 2522 -91 
Q 1538 -91 948 565 
Q 359 1222 359 2328 
Q 359 3434 948 4092 
Q 1538 4750 2522 4750 
z
" transform="scale(0.015625)"/>
      <path id="DejaVuSans-4d" d="M 628 4666 
L 1569 4666 
L 2759 1491 
L 3956 4666 
L 4897 4666 
L 4897 0 
L 4281 0 
L 4281 4097 
L 3078 897 
L 2444 897 
L 1241 4097 
L 1241 0 
L 628 0 
L 628 4666 
z
" transform="scale(0.015625)"/>
      <path id="DejaVuSans-75" d="M 544 1381 
L 544 3500 
L 1119 3500 
L 1119 1403 
Q 1119 906 1312 657 
Q 1506 409 1894 409 
Q 2359 409 2629 706 
Q 2900 1003 2900 1516 
L 2900 3500 
L 3475 3500 
L 3475 0 
L 2900 0 
L 2900 538 
Q 2691 219 2414 64 
Q 2138 -91 1772 -91 
Q 1169 -91 856 284 
Q 544 659 544 1381 
z
M 1991 3584 
L 1991 3584 
z
" transform="scale(0.015625)"/>
      <path id="DejaVuSans-68" d="M 3513 2113 
L 3513 0 
L 2938 0 
L 2938 2094 
Q 2938 2591 2744 2837 
Q 2550 3084 2163 3084 
Q 1697 3084 1428 2787 
Q 1159 2491 1159 1978 
L 1159 0 
L 581 0 
L 581 4863 
L 1159 4863 
L 1159 2956 
Q 1366 3272 1645 3428 
Q 1925 3584 2291 3584 
Q 2894 3584 3203 3211 
Q 3513 2838 3513 2113 
z
" transform="scale(0.015625)"/>
      <path id="DejaVuSans-67" d="M 2906 1791 
Q 2906 2416 2648 2759 
Q 2391 3103 1925 3103 
Q 1463 3103 1205 2759 
Q 947 2416 947 1791 
Q 947 1169 1205 825 
Q 1463 481 1925 481 
Q 2391 481 2648 825 
Q 2906 1169 2906 1791 
z
M 3481 434 
Q 3481 -459 3084 -895 
Q 2688 -1331 1869 -1331 
Q 1566 -1331 1297 -1286 
Q 1028 -1241 775 -1147 
L 775 -588 
Q 1028 -725 1275 -790 
Q 1522 -856 1778 -856 
Q 2344 -856 2625 -561 
Q 2906 -266 2906 331 
L 2906 616 
Q 2728 306 2450 153 
Q 2172 0 1784 0 
Q 1141 0 747 490 
Q 353 981 353 1791 
Q 353 2603 747 3093 
Q 1141 3584 1784 3584 
Q 2172 3584 2450 3431 
Q 2728 3278 2906 2969 
L 2906 3500 
L 3481 3500 
L 3481 434 
z
" transform="scale(0.015625)"/>
      <path id="DejaVuSans-3d" d="M 678 2906 
L 4684 2906 
L 4684 2381 
L 678 2381 
L 678 2906 
z
M 678 1631 
L 4684 1631 
L 4684 1100 
L 678 1100 
L 678 1631 
z
" transform="scale(0.015625)"/>
     </defs>
     <use xlink:href="#DejaVuSans-47"/>
     <use xlink:href="#DejaVuSans-50" x="77.490234"/>
     <use xlink:href="#DejaVuSans-55" x="137.792969"/>
     <use xlink:href="#DejaVuSans-20" x="210.986328"/>
     <use xlink:href="#DejaVuSans-55" x="242.773438"/>
     <use xlink:href="#DejaVuSans-74" x="315.966797"/>
     <use xlink:href="#DejaVuSans-69" x="355.175781"/>
     <use xlink:href="#DejaVuSans-6c" x="382.958984"/>
     <use xlink:href="#DejaVuSans-69" x="410.742188"/>
     <use xlink:href="#DejaVuSans-7a" x="438.525391"/>
     <use xlink:href="#DejaVuSans-61" x="491.015625"/>
     <use xlink:href="#DejaVuSans-74" x="552.294922"/>
     <use xlink:href="#DejaVuSans-69" x="591.503906"/>
     <use xlink:href="#DejaVuSans-6f" x="619.287109"/>
     <use xlink:href="#DejaVuSans-6e" x="680.46875"/>
     <use xlink:href="#DejaVuSans-20" x="743.847656"/>
     <use xlink:href="#DejaVuSans-6f" x="775.634766"/>
     <use xlink:href="#DejaVuSans-76" x="836.816406"/>
     <use xlink:href="#DejaVuSans-65" x="895.996094"/>
     <use xlink:href="#DejaVuSans-72" x="957.519531"/>
     <use xlink:href="#DejaVuSans-20" x="998.632812"/>
     <use xlink:href="#DejaVuSans-4f" x="1030.419922"/>
     <use xlink:href="#DejaVuSans-6e" x="1109.130859"/>
     <use xlink:href="#DejaVuSans-65" x="1172.509766"/>
     <use xlink:href="#DejaVuSans-20" x="1234.033203"/>
     <use xlink:href="#DejaVuSans-4d" x="1265.820312"/>
     <use xlink:href="#DejaVuSans-69" x="1352.099609"/>
     <use xlink:href="#DejaVuSans-6e" x="1379.882812"/>
     <use xlink:href="#DejaVuSans-75" x="1443.261719"/>
     <use xlink:href="#DejaVuSans-74" x="1506.640625"/>
     <use xlink:href="#DejaVuSans-65" x="1545.849609"/>
     <use xlink:href="#DejaVuSans-20" x="1607.373047"/>
     <use xlink:href="#DejaVuSans-28" x="1639.160156"/>
     <use xlink:href="#DejaVuSans-73" x="1678.173828"/>
     <use xlink:href="#DejaVuSans-6d" x="1730.273438"/>
     <use xlink:href="#DejaVuSans-6f" x="1827.685547"/>
     <use xlink:href="#DejaVuSans-6f" x="1888.867188"/>
     <use xlink:href="#DejaVuSans-74" x="1950.048828"/>
     <use xlink:href="#DejaVuSans-68" x="1989.257812"/>
     <use xlink:href="#DejaVuSans-69" x="2052.636719"/>
     <use xlink:href="#DejaVuSans-6e" x="2080.419922"/>
     <use xlink:href="#DejaVuSans-67" x="2143.798828"/>
     <use xlink:href="#DejaVuSans-3d" x="2207.275391"/>
     <use xlink:href="#DejaVuSans-30" x="2291.064453"/>
     <use xlink:href="#DejaVuSans-29" x="2354.6875"/>
    </g>
   </g>
   <g id="legend_1">
    <g id="patch_7">
     <path d="M 58.528 382.612 
L 131.643625 382.612 
Q 133.403625 382.612 133.403625 380.852 
L 133.403625 355.8985 
Q 133.403625 354.1385 131.643625 354.1385 
L 58.528 354.1385 
Q 56.768 354.1385 56.768 355.8985 
L 56.768 380.852 
Q 56.768 382.612 58.528 382.612 
z
" style="fill: #ffffff; opacity: 0.8; stroke: #cccccc; stroke-width: 0.8; stroke-linejoin: miter"/>
    </g>
    <g id="line2d_16">
     <path d="M 60.288 361.265125 
L 69.088 361.265125 
L 77.888 361.265125 
" style="fill: none; stroke: #4e79a7; stroke-opacity: 0.3; stroke-width: 1.2; stroke-linecap: round"/>
    </g>
    <g id="text_17">
     <!-- Raw -->
     <g style="fill: #262626" transform="translate(84.928 364.345125) scale(0.088 -0.088)">
      <defs>
       <path id="DejaVuSans-52" d="M 2841 2188 
Q 3044 2119 3236 1894 
Q 3428 1669 3622 1275 
L 4263 0 
L 3584 0 
L 2988 1197 
Q 2756 1666 2539 1819 
Q 2322 1972 1947 1972 
L 1259 1972 
L 1259 0 
L 628 0 
L 628 4666 
L 2053 4666 
Q 2853 4666 3247 4331 
Q 3641 3997 3641 3322 
Q 3641 2881 3436 2590 
Q 3231 2300 2841 2188 
z
M 1259 4147 
L 1259 2491 
L 2053 2491 
Q 2509 2491 2742 2702 
Q 2975 2913 2975 3322 
Q 2975 3731 2742 3939 
Q 2509 4147 2053 4147 
L 1259 4147 
z
" transform="scale(0.015625)"/>
       <path id="DejaVuSans-77" d="M 269 3500 
L 844 3500 
L 1563 769 
L 2278 3500 
L 2956 3500 
L 3675 769 
L 4391 3500 
L 4966 3500 
L 4050 0 
L 3372 0 
L 2619 2869 
L 1863 0 
L 1184 0 
L 269 3500 
z
" transform="scale(0.015625)"/>
      </defs>
      <use xlink:href="#DejaVuSans-52"/>
      <use xlink:href="#DejaVuSans-61" x="67.232422"/>
      <use xlink:href="#DejaVuSans-77" x="128.511719"/>
     </g>
    </g>
    <g id="line2d_17">
     <path d="M 60.288 374.181875 
L 69.088 374.181875 
L 77.888 374.181875 
" style="fill: none; stroke: #4e79a7; stroke-width: 2; stroke-linecap: round"/>
    </g>
    <g id="text_18">
     <!-- Smoothed -->
     <g style="fill: #262626" transform="translate(84.928 377.261875) scale(0.088 -0.088)">
      <defs>
       <path id="DejaVuSans-53" d="M 3425 4513 
L 3425 3897 
Q 3066 4069 2747 4153 
Q 2428 4238 2131 4238 
Q 1616 4238 1336 4038 
Q 1056 3838 1056 3469 
Q 1056 3159 1242 3001 
Q 1428 2844 1947 2747 
L 2328 2669 
Q 3034 2534 3370 2195 
Q 3706 1856 3706 1288 
Q 3706 609 3251 259 
Q 2797 -91 1919 -91 
Q 1588 -91 1214 -16 
Q 841 59 441 206 
L 441 856 
Q 825 641 1194 531 
Q 1563 422 1919 422 
Q 2459 422 2753 634 
Q 3047 847 3047 1241 
Q 3047 1584 2836 1778 
Q 2625 1972 2144 2069 
L 1759 2144 
Q 1053 2284 737 2584 
Q 422 2884 422 3419 
Q 422 4038 858 4394 
Q 1294 4750 2059 4750 
Q 2388 4750 2728 4690 
Q 3069 4631 3425 4513 
z
" transform="scale(0.015625)"/>
      </defs>
      <use xlink:href="#DejaVuSans-53"/>
      <use xlink:href="#DejaVuSans-6d" x="63.476562"/>
      <use xlink:href="#DejaVuSans-6f" x="160.888672"/>
      <use xlink:href="#DejaVuSans-6f" x="222.070312"/>
      <use xlink:href="#DejaVuSans-74" x="283.251953"/>
      <use xlink:href="#DejaVuSans-68" x="322.460938"/>
      <use xlink:href="#DejaVuSans-65" x="385.839844"/>
      <use xlink:href="#DejaVuSans-64" x="447.363281"/>
     </g>
    </g>
   </g>
  </g>
 </g>
 <defs>
  <clipPath id="pc419290943">
   <rect x="52.368" y="27.888" width="507.684" height="359.124"/>
  </clipPath>
 </defs>
</svg>
