<?xml version="1.0" encoding="utf-8" standalone="no"?>
<!DOCTYPE svg PUBLIC "-//W3C//DTD SVG 1.1//EN"
  "http://www.w3.org/Graphics/SVG/1.1/DTD/svg11.dtd">
<svg xmlns:xlink="http://www.w3.org/1999/xlink" width="864pt" height="432pt" viewBox="0 0 864 432" xmlns="http://www.w3.org/2000/svg" version="1.1">
 <metadata>
  <rdf:RDF xmlns:dc="http://purl.org/dc/elements/1.1/" xmlns:cc="http://creativecommons.org/ns#" xmlns:rdf="http://www.w3.org/1999/02/22-rdf-syntax-ns#">
   <cc:Work>
    <dc:type rdf:resource="http://purl.org/dc/dcmitype/StillImage"/>
    <dc:date>2024-07-02T10:53:03.134971</dc:date>
    <dc:format>image/svg+xml</dc:format>
    <dc:creator>
     <cc:Agent>
      <dc:title>Matplotlib v3.9.0, https://matplotlib.org/</dc:title>
     </cc:Agent>
    </dc:creator>
   </cc:Work>
  </rdf:RDF>
 </metadata>
 <defs>
  <style type="text/css">*{stroke-linejoin: round; stroke-linecap: butt}</style>
 </defs>
 <g id="figure_1">
  <g id="patch_1">
   <path d="M 0 432 
L 864 432 
L 864 0 
L 0 0 
z
" style="fill: #ffffff"/>
  </g>
  <g id="axes_1">
   <g id="patch_2">
    <path d="M 52.368 387.012 
L 848.052 387.012 
L 848.052 27.888 
L 52.368 27.888 
z
" style="fill: #ffffff"/>
   </g>
   <g id="matplotlib.axis_1">
    <g id="xtick_1">
     <g id="line2d_1">
      <path d="M 52.368 387.012 
L 52.368 27.888 
" clip-path="url(#p5007269f45)" style="fill: none; stroke: #cccccc; stroke-width: 0.8; stroke-linecap: round"/>
     </g>
     <g id="text_1">
      <!-- 0 -->
      <g style="fill: #262626" transform="translate(49.5685 401.998625) scale(0.088 -0.088)">
       <defs>
        <path id="DejaVuSans-30" d="M 2034 4250 
Q 1547 4250 1301 3770 
Q 1056 3291 1056 2328 
Q 1056 1369 1301 889 
Q 1547 409 2034 409 
Q 2525 409 2770 889 
Q 3016 1369 3016 2328 
Q 3016 3291 2770 3770 
Q 2525 4250 2034 4250 
z
M 2034 4750 
Q 2819 4750 3233 4129 
Q 3647 3509 3647 2328 
Q 3647 1150 3233 529 
Q 2819 -91 2034 -91 
Q 1250 -91 836 529 
Q 422 1150 422 2328 
Q 422 3509 836 4129 
Q 1250 4750 2034 4750 
z
" transform="scale(0.015625)"/>
       </defs>
       <use xlink:href="#DejaVuSans-30"/>
      </g>
     </g>
    </g>
    <g id="xtick_2">
     <g id="line2d_2">
      <path d="M 184.982 387.012 
L 184.982 27.888 
" clip-path="url(#p5007269f45)" style="fill: none; stroke: #cccccc; stroke-width: 0.8; stroke-linecap: round"/>
     </g>
     <g id="text_2">
      <!-- 10 -->
      <g style="fill: #262626" transform="translate(179.383 401.998625) scale(0.088 -0.088)">
       <defs>
        <path id="DejaVuSans-31" d="M 794 531 
L 1825 531 
L 1825 4091 
L 703 3866 
L 703 4441 
L 1819 4666 
L 2450 4666 
L 2450 531 
L 3481 531 
L 3481 0 
L 794 0 
L 794 531 
z
" transform="scale(0.015625)"/>
       </defs>
       <use xlink:href="#DejaVuSans-31"/>
       <use xlink:href="#DejaVuSans-30" x="63.623047"/>
      </g>
     </g>
    </g>
    <g id="xtick_3">
     <g id="line2d_3">
      <path d="M 317.596 387.012 
L 317.596 27.888 
" clip-path="url(#p5007269f45)" style="fill: none; stroke: #cccccc; stroke-width: 0.8; stroke-linecap: round"/>
     </g>
     <g id="text_3">
      <!-- 20 -->
      <g style="fill: #262626" transform="translate(311.997 401.998625) scale(0.088 -0.088)">
       <defs>
        <path id="DejaVuSans-32" d="M 1228 531 
L 3431 531 
L 3431 0 
L 469 0 
L 469 531 
Q 828 903 1448 1529 
Q 2069 2156 2228 2338 
Q 2531 2678 2651 2914 
Q 2772 3150 2772 3378 
Q 2772 3750 2511 3984 
Q 2250 4219 1831 4219 
Q 1534 4219 1204 4116 
Q 875 4013 500 3803 
L 500 4441 
Q 881 4594 1212 4672 
Q 1544 4750 1819 4750 
Q 2544 4750 2975 4387 
Q 3406 4025 3406 3419 
Q 3406 3131 3298 2873 
Q 3191 2616 2906 2266 
Q 2828 2175 2409 1742 
Q 1991 1309 1228 531 
z
" transform="scale(0.015625)"/>
       </defs>
       <use xlink:href="#DejaVuSans-32"/>
       <use xlink:href="#DejaVuSans-30" x="63.623047"/>
      </g>
     </g>
    </g>
    <g id="xtick_4">
     <g id="line2d_4">
      <path d="M 450.21 387.012 
L 450.21 27.888 
" clip-path="url(#p5007269f45)" style="fill: none; stroke: #cccccc; stroke-width: 0.8; stroke-linecap: round"/>
     </g>
     <g id="text_4">
      <!-- 30 -->
      <g style="fill: #262626" transform="translate(444.611 401.998625) scale(0.088 -0.088)">
       <defs>
        <path id="DejaVuSans-33" d="M 2597 2516 
Q 3050 2419 3304 2112 
Q 3559 1806 3559 1356 
Q 3559 666 3084 287 
Q 2609 -91 1734 -91 
Q 1441 -91 1130 -33 
Q 819 25 488 141 
L 488 750 
Q 750 597 1062 519 
Q 1375 441 1716 441 
Q 2309 441 2620 675 
Q 2931 909 2931 1356 
Q 2931 1769 2642 2001 
Q 2353 2234 1838 2234 
L 1294 2234 
L 1294 2753 
L 1863 2753 
Q 2328 2753 2575 2939 
Q 2822 3125 2822 3475 
Q 2822 3834 2567 4026 
Q 2313 4219 1838 4219 
Q 1578 4219 1281 4162 
Q 984 4106 628 3988 
L 628 4550 
Q 988 4650 1302 4700 
Q 1616 4750 1894 4750 
Q 2613 4750 3031 4423 
Q 3450 4097 3450 3541 
Q 3450 3153 3228 2886 
Q 3006 2619 2597 2516 
z
" transform="scale(0.015625)"/>
       </defs>
       <use xlink:href="#DejaVuSans-33"/>
       <use xlink:href="#DejaVuSans-30" x="63.623047"/>
      </g>
     </g>
    </g>
    <g id="xtick_5">
     <g id="line2d_5">
      <path d="M 582.824 387.012 
L 582.824 27.888 
" clip-path="url(#p5007269f45)" style="fill: none; stroke: #cccccc; stroke-width: 0.8; stroke-linecap: round"/>
     </g>
     <g id="text_5">
      <!-- 40 -->
      <g style="fill: #262626" transform="translate(577.225 401.998625) scale(0.088 -0.088)">
       <defs>
        <path id="DejaVuSans-34" d="M 2419 4116 
L 825 1625 
L 2419 1625 
L 2419 4116 
z
M 2253 4666 
L 3047 4666 
L 3047 1625 
L 3713 1625 
L 3713 1100 
L 3047 1100 
L 3047 0 
L 2419 0 
L 2419 1100 
L 313 1100 
L 313 1709 
L 2253 4666 
z
" transform="scale(0.015625)"/>
       </defs>
       <use xlink:href="#DejaVuSans-34"/>
       <use xlink:href="#DejaVuSans-30" x="63.623047"/>
      </g>
     </g>
    </g>
    <g id="xtick_6">
     <g id="line2d_6">
      <path d="M 715.438 387.012 
L 715.438 27.888 
" clip-path="url(#p5007269f45)" style="fill: none; stroke: #cccccc; stroke-width: 0.8; stroke-linecap: round"/>
     </g>
     <g id="text_6">
      <!-- 50 -->
      <g style="fill: #262626" transform="translate(709.839 401.998625) scale(0.088 -0.088)">
       <defs>
        <path id="DejaVuSans-35" d="M 691 4666 
L 3169 4666 
L 3169 4134 
L 1269 4134 
L 1269 2991 
Q 1406 3038 1543 3061 
Q 1681 3084 1819 3084 
Q 2600 3084 3056 2656 
Q 3513 2228 3513 1497 
Q 3513 744 3044 326 
Q 2575 -91 1722 -91 
Q 1428 -91 1123 -41 
Q 819 9 494 109 
L 494 744 
Q 775 591 1075 516 
Q 1375 441 1709 441 
Q 2250 441 2565 725 
Q 2881 1009 2881 1497 
Q 2881 1984 2565 2268 
Q 2250 2553 1709 2553 
Q 1456 2553 1204 2497 
Q 953 2441 691 2322 
L 691 4666 
z
" transform="scale(0.015625)"/>
       </defs>
       <use xlink:href="#DejaVuSans-35"/>
       <use xlink:href="#DejaVuSans-30" x="63.623047"/>
      </g>
     </g>
    </g>
    <g id="xtick_7">
     <g id="line2d_7">
      <path d="M 848.052 387.012 
L 848.052 27.888 
" clip-path="url(#p5007269f45)" style="fill: none; stroke: #cccccc; stroke-width: 0.8; stroke-linecap: round"/>
     </g>
     <g id="text_7">
      <!-- 60 -->
      <g style="fill: #262626" transform="translate(842.453 401.998625) scale(0.088 -0.088)">
       <defs>
        <path id="DejaVuSans-36" d="M 2113 2584 
Q 1688 2584 1439 2293 
Q 1191 2003 1191 1497 
Q 1191 994 1439 701 
Q 1688 409 2113 409 
Q 2538 409 2786 701 
Q 3034 994 3034 1497 
Q 3034 2003 2786 2293 
Q 2538 2584 2113 2584 
z
M 3366 4563 
L 3366 3988 
Q 3128 4100 2886 4159 
Q 2644 4219 2406 4219 
Q 1781 4219 1451 3797 
Q 1122 3375 1075 2522 
Q 1259 2794 1537 2939 
Q 1816 3084 2150 3084 
Q 2853 3084 3261 2657 
Q 3669 2231 3669 1497 
Q 3669 778 3244 343 
Q 2819 -91 2113 -91 
Q 1303 -91 875 529 
Q 447 1150 447 2328 
Q 447 3434 972 4092 
Q 1497 4750 2381 4750 
Q 2619 4750 2861 4703 
Q 3103 4656 3366 4563 
z
" transform="scale(0.015625)"/>
       </defs>
       <use xlink:href="#DejaVuSans-36"/>
       <use xlink:href="#DejaVuSans-30" x="63.623047"/>
      </g>
     </g>
    </g>
    <g id="text_8">
     <!-- Time (seconds) -->
     <g style="fill: #262626" transform="translate(404.415937 416.946875) scale(0.12 -0.12)">
      <defs>
       <path id="DejaVuSans-54" d="M -19 4666 
L 3928 4666 
L 3928 4134 
L 2272 4134 
L 2272 0 
L 1638 0 
L 1638 4134 
L -19 4134 
L -19 4666 
z
" transform="scale(0.015625)"/>
       <path id="DejaVuSans-69" d="M 603 3500 
L 1178 3500 
L 1178 0 
L 603 0 
L 603 3500 
z
M 603 4863 
L 1178 4863 
L 1178 4134 
L 603 4134 
L 603 4863 
z
" transform="scale(0.015625)"/>
       <path id="DejaVuSans-6d" d="M 3328 2828 
Q 3544 3216 3844 3400 
Q 4144 3584 4550 3584 
Q 5097 3584 5394 3201 
Q 5691 2819 5691 2113 
L 5691 0 
L 5113 0 
L 5113 2094 
Q 5113 2597 4934 2840 
Q 4756 3084 4391 3084 
Q 3944 3084 3684 2787 
Q 3425 2491 3425 1978 
L 3425 0 
L 2847 0 
L 2847 2094 
Q 2847 2600 2669 2842 
Q 2491 3084 2119 3084 
Q 1678 3084 1418 2786 
Q 1159 2488 1159 1978 
L 1159 0 
L 581 0 
L 581 3500 
L 1159 3500 
L 1159 2956 
Q 1356 3278 1631 3431 
Q 1906 3584 2284 3584 
Q 2666 3584 2933 3390 
Q 3200 3197 3328 2828 
z
" transform="scale(0.015625)"/>
       <path id="DejaVuSans-65" d="M 3597 1894 
L 3597 1613 
L 953 1613 
Q 991 1019 1311 708 
Q 1631 397 2203 397 
Q 2534 397 2845 478 
Q 3156 559 3463 722 
L 3463 178 
Q 3153 47 2828 -22 
Q 2503 -91 2169 -91 
Q 1331 -91 842 396 
Q 353 884 353 1716 
Q 353 2575 817 3079 
Q 1281 3584 2069 3584 
Q 2775 3584 3186 3129 
Q 3597 2675 3597 1894 
z
M 3022 2063 
Q 3016 2534 2758 2815 
Q 2500 3097 2075 3097 
Q 1594 3097 1305 2825 
Q 1016 2553 972 2059 
L 3022 2063 
z
" transform="scale(0.015625)"/>
       <path id="DejaVuSans-20" transform="scale(0.015625)"/>
       <path id="DejaVuSans-28" d="M 1984 4856 
Q 1566 4138 1362 3434 
Q 1159 2731 1159 2009 
Q 1159 1288 1364 580 
Q 1569 -128 1984 -844 
L 1484 -844 
Q 1016 -109 783 600 
Q 550 1309 550 2009 
Q 550 2706 781 3412 
Q 1013 4119 1484 4856 
L 1984 4856 
z
" transform="scale(0.015625)"/>
       <path id="DejaVuSans-73" d="M 2834 3397 
L 2834 2853 
Q 2591 2978 2328 3040 
Q 2066 3103 1784 3103 
Q 1356 3103 1142 2972 
Q 928 2841 928 2578 
Q 928 2378 1081 2264 
Q 1234 2150 1697 2047 
L 1894 2003 
Q 2506 1872 2764 1633 
Q 3022 1394 3022 966 
Q 3022 478 2636 193 
Q 2250 -91 1575 -91 
Q 1294 -91 989 -36 
Q 684 19 347 128 
L 347 722 
Q 666 556 975 473 
Q 1284 391 1588 391 
Q 1994 391 2212 530 
Q 2431 669 2431 922 
Q 2431 1156 2273 1281 
Q 2116 1406 1581 1522 
L 1381 1569 
Q 847 1681 609 1914 
Q 372 2147 372 2553 
Q 372 3047 722 3315 
Q 1072 3584 1716 3584 
Q 2034 3584 2315 3537 
Q 2597 3491 2834 3397 
z
" transform="scale(0.015625)"/>
       <path id="DejaVuSans-63" d="M 3122 3366 
L 3122 2828 
Q 2878 2963 2633 3030 
Q 2388 3097 2138 3097 
Q 1578 3097 1268 2742 
Q 959 2388 959 1747 
Q 959 1106 1268 751 
Q 1578 397 2138 397 
Q 2388 397 2633 464 
Q 2878 531 3122 666 
L 3122 134 
Q 2881 22 2623 -34 
Q 2366 -91 2075 -91 
Q 1284 -91 818 406 
Q 353 903 353 1747 
Q 353 2603 823 3093 
Q 1294 3584 2113 3584 
Q 2378 3584 2631 3529 
Q 2884 3475 3122 3366 
z
" transform="scale(0.015625)"/>
       <path id="DejaVuSans-6f" d="M 1959 3097 
Q 1497 3097 1228 2736 
Q 959 2375 959 1747 
Q 959 1119 1226 758 
Q 1494 397 1959 397 
Q 2419 397 2687 759 
Q 2956 1122 2956 1747 
Q 2956 2369 2687 2733 
Q 2419 3097 1959 3097 
z
M 1959 3584 
Q 2709 3584 3137 3096 
Q 3566 2609 3566 1747 
Q 3566 888 3137 398 
Q 2709 -91 1959 -91 
Q 1206 -91 779 398 
Q 353 888 353 1747 
Q 353 2609 779 3096 
Q 1206 3584 1959 3584 
z
" transform="scale(0.015625)"/>
       <path id="DejaVuSans-6e" d="M 3513 2113 
L 3513 0 
L 2938 0 
L 2938 2094 
Q 2938 2591 2744 2837 
Q 2550 3084 2163 3084 
Q 1697 3084 1428 2787 
Q 1159 2491 1159 1978 
L 1159 0 
L 581 0 
L 581 3500 
L 1159 3500 
L 1159 2956 
Q 1366 3272 1645 3428 
Q 1925 3584 2291 3584 
Q 2894 3584 3203 3211 
Q 3513 2838 3513 2113 
z
" transform="scale(0.015625)"/>
       <path id="DejaVuSans-64" d="M 2906 2969 
L 2906 4863 
L 3481 4863 
L 3481 0 
L 2906 0 
L 2906 525 
Q 2725 213 2448 61 
Q 2172 -91 1784 -91 
Q 1150 -91 751 415 
Q 353 922 353 1747 
Q 353 2572 751 3078 
Q 1150 3584 1784 3584 
Q 2172 3584 2448 3432 
Q 2725 3281 2906 2969 
z
M 947 1747 
Q 947 1113 1208 752 
Q 1469 391 1925 391 
Q 2381 391 2643 752 
Q 2906 1113 2906 1747 
Q 2906 2381 2643 2742 
Q 2381 3103 1925 3103 
Q 1469 3103 1208 2742 
Q 947 2381 947 1747 
z
" transform="scale(0.015625)"/>
       <path id="DejaVuSans-29" d="M 513 4856 
L 1013 4856 
Q 1481 4119 1714 3412 
Q 1947 2706 1947 2009 
Q 1947 1309 1714 600 
Q 1481 -109 1013 -844 
L 513 -844 
Q 928 -128 1133 580 
Q 1338 1288 1338 2009 
Q 1338 2731 1133 3434 
Q 928 4138 513 4856 
z
" transform="scale(0.015625)"/>
      </defs>
      <use xlink:href="#DejaVuSans-54"/>
      <use xlink:href="#DejaVuSans-69" x="57.958984"/>
      <use xlink:href="#DejaVuSans-6d" x="85.742188"/>
      <use xlink:href="#DejaVuSans-65" x="183.154297"/>
      <use xlink:href="#DejaVuSans-20" x="244.677734"/>
      <use xlink:href="#DejaVuSans-28" x="276.464844"/>
      <use xlink:href="#DejaVuSans-73" x="315.478516"/>
      <use xlink:href="#DejaVuSans-65" x="367.578125"/>
      <use xlink:href="#DejaVuSans-63" x="429.101562"/>
      <use xlink:href="#DejaVuSans-6f" x="484.082031"/>
      <use xlink:href="#DejaVuSans-6e" x="545.263672"/>
      <use xlink:href="#DejaVuSans-64" x="608.642578"/>
      <use xlink:href="#DejaVuSans-73" x="672.119141"/>
      <use xlink:href="#DejaVuSans-29" x="724.21875"/>
     </g>
    </g>
   </g>
   <g id="matplotlib.axis_2">
    <g id="ytick_1">
     <g id="line2d_8">
      <path d="M 52.368 370.688182 
L 848.052 370.688182 
" clip-path="url(#p5007269f45)" style="fill: none; stroke: #cccccc; stroke-width: 0.8; stroke-linecap: round"/>
     </g>
     <g id="text_9">
      <!-- 0 -->
      <g style="fill: #262626" transform="translate(38.469 374.031494) scale(0.088 -0.088)">
       <use xlink:href="#DejaVuSans-30"/>
      </g>
     </g>
    </g>
    <g id="ytick_2">
     <g id="line2d_9">
      <path d="M 52.368 305.392909 
L 848.052 305.392909 
" clip-path="url(#p5007269f45)" style="fill: none; stroke: #cccccc; stroke-width: 0.8; stroke-linecap: round"/>
     </g>
     <g id="text_10">
      <!-- 20 -->
      <g style="fill: #262626" transform="translate(32.87 308.736222) scale(0.088 -0.088)">
       <use xlink:href="#DejaVuSans-32"/>
       <use xlink:href="#DejaVuSans-30" x="63.623047"/>
      </g>
     </g>
    </g>
    <g id="ytick_3">
     <g id="line2d_10">
      <path d="M 52.368 240.097636 
L 848.052 240.097636 
" clip-path="url(#p5007269f45)" style="fill: none; stroke: #cccccc; stroke-width: 0.8; stroke-linecap: round"/>
     </g>
     <g id="text_11">
      <!-- 40 -->
      <g style="fill: #262626" transform="translate(32.87 243.440949) scale(0.088 -0.088)">
       <use xlink:href="#DejaVuSans-34"/>
       <use xlink:href="#DejaVuSans-30" x="63.623047"/>
      </g>
     </g>
    </g>
    <g id="ytick_4">
     <g id="line2d_11">
      <path d="M 52.368 174.802364 
L 848.052 174.802364 
" clip-path="url(#p5007269f45)" style="fill: none; stroke: #cccccc; stroke-width: 0.8; stroke-linecap: round"/>
     </g>
     <g id="text_12">
      <!-- 60 -->
      <g style="fill: #262626" transform="translate(32.87 178.145676) scale(0.088 -0.088)">
       <use xlink:href="#DejaVuSans-36"/>
       <use xlink:href="#DejaVuSans-30" x="63.623047"/>
      </g>
     </g>
    </g>
    <g id="ytick_5">
     <g id="line2d_12">
      <path d="M 52.368 109.507091 
L 848.052 109.507091 
" clip-path="url(#p5007269f45)" style="fill: none; stroke: #cccccc; stroke-width: 0.8; stroke-linecap: round"/>
     </g>
     <g id="text_13">
      <!-- 80 -->
      <g style="fill: #262626" transform="translate(32.87 112.850403) scale(0.088 -0.088)">
       <defs>
        <path id="DejaVuSans-38" d="M 2034 2216 
Q 1584 2216 1326 1975 
Q 1069 1734 1069 1313 
Q 1069 891 1326 650 
Q 1584 409 2034 409 
Q 2484 409 2743 651 
Q 3003 894 3003 1313 
Q 3003 1734 2745 1975 
Q 2488 2216 2034 2216 
z
M 1403 2484 
Q 997 2584 770 2862 
Q 544 3141 544 3541 
Q 544 4100 942 4425 
Q 1341 4750 2034 4750 
Q 2731 4750 3128 4425 
Q 3525 4100 3525 3541 
Q 3525 3141 3298 2862 
Q 3072 2584 2669 2484 
Q 3125 2378 3379 2068 
Q 3634 1759 3634 1313 
Q 3634 634 3220 271 
Q 2806 -91 2034 -91 
Q 1263 -91 848 271 
Q 434 634 434 1313 
Q 434 1759 690 2068 
Q 947 2378 1403 2484 
z
M 1172 3481 
Q 1172 3119 1398 2916 
Q 1625 2713 2034 2713 
Q 2441 2713 2670 2916 
Q 2900 3119 2900 3481 
Q 2900 3844 2670 4047 
Q 2441 4250 2034 4250 
Q 1625 4250 1398 4047 
Q 1172 3844 1172 3481 
z
" transform="scale(0.015625)"/>
       </defs>
       <use xlink:href="#DejaVuSans-38"/>
       <use xlink:href="#DejaVuSans-30" x="63.623047"/>
      </g>
     </g>
    </g>
    <g id="ytick_6">
     <g id="line2d_13">
      <path d="M 52.368 44.211818 
L 848.052 44.211818 
" clip-path="url(#p5007269f45)" style="fill: none; stroke: #cccccc; stroke-width: 0.8; stroke-linecap: round"/>
     </g>
     <g id="text_14">
      <!-- 100 -->
      <g style="fill: #262626" transform="translate(27.271 47.555131) scale(0.088 -0.088)">
       <use xlink:href="#DejaVuSans-31"/>
       <use xlink:href="#DejaVuSans-30" x="63.623047"/>
       <use xlink:href="#DejaVuSans-30" x="127.246094"/>
      </g>
     </g>
    </g>
    <g id="text_15">
     <!-- GPU Utilization (%) -->
     <g style="fill: #262626" transform="translate(20.775375 264.3675) rotate(-90) scale(0.12 -0.12)">
      <defs>
       <path id="DejaVuSans-47" d="M 3809 666 
L 3809 1919 
L 2778 1919 
L 2778 2438 
L 4434 2438 
L 4434 434 
Q 4069 175 3628 42 
Q 3188 -91 2688 -91 
Q 1594 -91 976 548 
Q 359 1188 359 2328 
Q 359 3472 976 4111 
Q 1594 4750 2688 4750 
Q 3144 4750 3555 4637 
Q 3966 4525 4313 4306 
L 4313 3634 
Q 3963 3931 3569 4081 
Q 3175 4231 2741 4231 
Q 1884 4231 1454 3753 
Q 1025 3275 1025 2328 
Q 1025 1384 1454 906 
Q 1884 428 2741 428 
Q 3075 428 3337 486 
Q 3600 544 3809 666 
z
" transform="scale(0.015625)"/>
       <path id="DejaVuSans-50" d="M 1259 4147 
L 1259 2394 
L 2053 2394 
Q 2494 2394 2734 2622 
Q 2975 2850 2975 3272 
Q 2975 3691 2734 3919 
Q 2494 4147 2053 4147 
L 1259 4147 
z
M 628 4666 
L 2053 4666 
Q 2838 4666 3239 4311 
Q 3641 3956 3641 3272 
Q 3641 2581 3239 2228 
Q 2838 1875 2053 1875 
L 1259 1875 
L 1259 0 
L 628 0 
L 628 4666 
z
" transform="scale(0.015625)"/>
       <path id="DejaVuSans-55" d="M 556 4666 
L 1191 4666 
L 1191 1831 
Q 1191 1081 1462 751 
Q 1734 422 2344 422 
Q 2950 422 3222 751 
Q 3494 1081 3494 1831 
L 3494 4666 
L 4128 4666 
L 4128 1753 
Q 4128 841 3676 375 
Q 3225 -91 2344 -91 
Q 1459 -91 1007 375 
Q 556 841 556 1753 
L 556 4666 
z
" transform="scale(0.015625)"/>
       <path id="DejaVuSans-74" d="M 1172 4494 
L 1172 3500 
L 2356 3500 
L 2356 3053 
L 1172 3053 
L 1172 1153 
Q 1172 725 1289 603 
Q 1406 481 1766 481 
L 2356 481 
L 2356 0 
L 1766 0 
Q 1100 0 847 248 
Q 594 497 594 1153 
L 594 3053 
L 172 3053 
L 172 3500 
L 594 3500 
L 594 4494 
L 1172 4494 
z
" transform="scale(0.015625)"/>
       <path id="DejaVuSans-6c" d="M 603 4863 
L 1178 4863 
L 1178 0 
L 603 0 
L 603 4863 
z
" transform="scale(0.015625)"/>
       <path id="DejaVuSans-7a" d="M 353 3500 
L 3084 3500 
L 3084 2975 
L 922 459 
L 3084 459 
L 3084 0 
L 275 0 
L 275 525 
L 2438 3041 
L 353 3041 
L 353 3500 
z
" transform="scale(0.015625)"/>
       <path id="DejaVuSans-61" d="M 2194 1759 
Q 1497 1759 1228 1600 
Q 959 1441 959 1056 
Q 959 750 1161 570 
Q 1363 391 1709 391 
Q 2188 391 2477 730 
Q 2766 1069 2766 1631 
L 2766 1759 
L 2194 1759 
z
M 3341 1997 
L 3341 0 
L 2766 0 
L 2766 531 
Q 2569 213 2275 61 
Q 1981 -91 1556 -91 
Q 1019 -91 701 211 
Q 384 513 384 1019 
Q 384 1609 779 1909 
Q 1175 2209 1959 2209 
L 2766 2209 
L 2766 2266 
Q 2766 2663 2505 2880 
Q 2244 3097 1772 3097 
Q 1472 3097 1187 3025 
Q 903 2953 641 2809 
L 641 3341 
Q 956 3463 1253 3523 
Q 1550 3584 1831 3584 
Q 2591 3584 2966 3190 
Q 3341 2797 3341 1997 
z
" transform="scale(0.015625)"/>
       <path id="DejaVuSans-25" d="M 4653 2053 
Q 4381 2053 4226 1822 
Q 4072 1591 4072 1178 
Q 4072 772 4226 539 
Q 4381 306 4653 306 
Q 4919 306 5073 539 
Q 5228 772 5228 1178 
Q 5228 1588 5073 1820 
Q 4919 2053 4653 2053 
z
M 4653 2450 
Q 5147 2450 5437 2106 
Q 5728 1763 5728 1178 
Q 5728 594 5436 251 
Q 5144 -91 4653 -91 
Q 4153 -91 3862 251 
Q 3572 594 3572 1178 
Q 3572 1766 3864 2108 
Q 4156 2450 4653 2450 
z
M 1428 4353 
Q 1159 4353 1004 4120 
Q 850 3888 850 3481 
Q 850 3069 1003 2837 
Q 1156 2606 1428 2606 
Q 1700 2606 1854 2837 
Q 2009 3069 2009 3481 
Q 2009 3884 1853 4118 
Q 1697 4353 1428 4353 
z
M 4250 4750 
L 4750 4750 
L 1831 -91 
L 1331 -91 
L 4250 4750 
z
M 1428 4750 
Q 1922 4750 2215 4408 
Q 2509 4066 2509 3481 
Q 2509 2891 2217 2550 
Q 1925 2209 1428 2209 
Q 931 2209 642 2551 
Q 353 2894 353 3481 
Q 353 4063 643 4406 
Q 934 4750 1428 4750 
z
" transform="scale(0.015625)"/>
      </defs>
      <use xlink:href="#DejaVuSans-47"/>
      <use xlink:href="#DejaVuSans-50" x="77.490234"/>
      <use xlink:href="#DejaVuSans-55" x="137.792969"/>
      <use xlink:href="#DejaVuSans-20" x="210.986328"/>
      <use xlink:href="#DejaVuSans-55" x="242.773438"/>
      <use xlink:href="#DejaVuSans-74" x="315.966797"/>
      <use xlink:href="#DejaVuSans-69" x="355.175781"/>
      <use xlink:href="#DejaVuSans-6c" x="382.958984"/>
      <use xlink:href="#DejaVuSans-69" x="410.742188"/>
      <use xlink:href="#DejaVuSans-7a" x="438.525391"/>
      <use xlink:href="#DejaVuSans-61" x="491.015625"/>
      <use xlink:href="#DejaVuSans-74" x="552.294922"/>
      <use xlink:href="#DejaVuSans-69" x="591.503906"/>
      <use xlink:href="#DejaVuSans-6f" x="619.287109"/>
      <use xlink:href="#DejaVuSans-6e" x="680.46875"/>
      <use xlink:href="#DejaVuSans-20" x="743.847656"/>
      <use xlink:href="#DejaVuSans-28" x="775.634766"/>
      <use xlink:href="#DejaVuSans-25" x="814.648438"/>
      <use xlink:href="#DejaVuSans-29" x="909.667969"/>
     </g>
    </g>
   </g>
   <g id="PolyCollection_1"/>
   <g id="PolyCollection_2"/>
   <g id="line2d_14">
    <path d="M 52.368 370.688182 
L 57.67256 370.688182 
L 58.9987 347.834836 
L 60.32484 370.688182 
L 69.60782 370.688182 
L 70.93396 341.305309 
L 72.2601 360.893891 
L 82.86922 360.893891 
L 84.19536 370.688182 
L 395.83826 370.688182 
L 397.1644 367.423418 
L 398.49054 367.423418 
L 399.81668 370.688182 
L 402.46896 370.688182 
L 403.7951 324.981491 
L 405.12124 132.360436 
L 406.44738 112.771855 
L 407.77352 259.686218 
L 409.09966 259.686218 
L 410.4258 285.804327 
L 411.75194 47.476582 
L 413.07808 44.211818 
L 414.40422 44.211818 
L 415.73036 96.448036 
L 417.0565 282.539564 
L 418.38264 344.570073 
L 419.70878 370.688182 
L 431.64404 370.688182 
L 432.97018 93.183273 
L 434.29632 93.183273 
L 435.62246 44.211818 
L 438.27474 44.211818 
L 439.60088 70.329927 
L 440.92702 370.688182 
L 464.79754 370.688182 
L 466.12368 295.598618 
L 467.44982 295.598618 
L 468.77596 44.211818 
L 470.1021 47.476582 
L 471.42824 44.211818 
L 474.08052 44.211818 
L 475.40666 178.067127 
L 476.7328 370.688182 
L 497.95104 370.688182 
L 499.27718 272.745273 
L 500.60332 44.211818 
L 501.92946 44.211818 
L 503.2556 47.476582 
L 504.58174 44.211818 
L 507.23402 44.211818 
L 508.56016 194.390945 
L 509.8863 370.688182 
L 533.75682 370.688182 
L 535.08296 285.804327 
L 536.4091 44.211818 
L 537.73524 44.211818 
L 539.06138 47.476582 
L 540.38752 44.211818 
L 541.71366 44.211818 
L 543.0398 187.861418 
L 544.36594 187.861418 
L 545.69208 370.688182 
L 565.58418 370.688182 
L 566.91032 285.804327 
L 568.23646 44.211818 
L 569.5626 44.211818 
L 570.88874 47.476582 
L 572.21488 44.211818 
L 574.86716 44.211818 
L 576.1933 370.688182 
L 601.38996 370.688182 
L 602.7161 70.329927 
L 604.04224 44.211818 
L 605.36838 47.476582 
L 606.69452 44.211818 
L 609.3468 44.211818 
L 610.67294 89.918509 
L 611.99908 370.688182 
L 633.21732 370.688182 
L 634.54346 328.246255 
L 635.8696 328.246255 
L 637.19574 44.211818 
L 638.52188 47.476582 
L 639.84802 47.476582 
L 641.17416 44.211818 
L 642.5003 44.211818 
L 643.82644 145.419491 
L 645.15258 370.688182 
L 670.34924 370.688182 
L 671.67538 145.419491 
L 673.00152 44.211818 
L 674.32766 47.476582 
L 675.6538 44.211818 
L 679.63222 44.211818 
L 680.95836 347.834836 
L 682.2845 370.688182 
L 704.82888 370.688182 
L 706.15502 135.6252 
L 707.48116 135.6252 
L 708.8073 44.211818 
L 710.13344 47.476582 
L 711.45958 44.211818 
L 714.11186 44.211818 
L 715.438 67.065164 
L 716.76414 44.211818 
L 718.09028 60.535636 
L 719.41642 60.535636 
L 720.74256 44.211818 
L 723.39484 44.211818 
L 724.72098 80.124218 
L 726.04712 44.211818 
L 727.37326 60.535636 
L 728.6994 60.535636 
L 730.02554 44.211818 
L 731.35168 60.535636 
L 732.67782 60.535636 
L 734.00396 44.211818 
L 735.3301 63.8004 
L 736.65624 44.211818 
L 737.98238 60.535636 
L 739.30852 44.211818 
L 740.63466 44.211818 
L 741.9608 76.859455 
L 743.28694 44.211818 
L 744.61308 47.476582 
L 745.93922 44.211818 
L 749.91764 44.211818 
L 751.24378 67.065164 
L 752.56992 67.065164 
L 753.89606 370.688182 
L 777.76658 370.688182 
L 779.09272 50.741345 
L 780.41886 44.211818 
L 781.745 47.476582 
L 783.07114 44.211818 
L 784.39728 44.211818 
L 785.72342 102.977564 
L 787.04956 370.688182 
L 810.92008 370.688182 
L 812.24622 249.891927 
L 813.57236 44.211818 
L 814.8985 47.476582 
L 816.22464 47.476582 
L 817.55078 44.211818 
L 818.87692 44.211818 
L 820.20306 213.979527 
L 821.5292 213.979527 
L 822.85534 370.688182 
L 846.72586 370.688182 
L 846.72586 370.688182 
" clip-path="url(#p5007269f45)" style="fill: none; stroke: #4e79a7; stroke-opacity: 0.3; stroke-width: 1.2; stroke-linecap: round"/>
   </g>
   <g id="line2d_15">
    <path d="M 52.368 370.688182 
L 57.67256 370.688182 
L 58.9987 361.546844 
L 60.32484 365.203379 
L 61.65098 367.3973 
L 62.97712 368.713653 
L 64.30326 369.503464 
L 65.6294 369.977351 
L 66.95554 370.261684 
L 69.60782 370.534642 
L 70.93396 358.842909 
L 72.2601 359.663302 
L 73.58624 360.155537 
L 74.91238 360.450879 
L 77.56466 360.734407 
L 81.54308 360.859442 
L 82.86922 360.873222 
L 84.19536 364.799206 
L 85.5215 367.154796 
L 86.84764 368.56815 
L 88.17378 369.416163 
L 89.49992 369.924971 
L 90.82606 370.230255 
L 93.47834 370.523328 
L 97.45676 370.652573 
L 110.71816 370.687967 
L 395.83826 370.688182 
L 397.1644 369.382276 
L 398.49054 368.598733 
L 399.81668 369.434513 
L 401.14282 369.93598 
L 402.46896 370.236861 
L 403.7951 352.134713 
L 405.12124 264.225002 
L 406.44738 203.643743 
L 407.77352 226.060733 
L 409.09966 239.510927 
L 410.4258 258.028287 
L 411.75194 173.807605 
L 413.07808 121.96929 
L 414.40422 90.866301 
L 415.73036 93.098995 
L 418.38264 239.153163 
L 419.70878 291.76717 
L 421.03492 323.335575 
L 422.36106 342.276618 
L 423.6872 353.641243 
L 425.01334 360.460019 
L 426.33948 364.551284 
L 427.66562 367.006043 
L 428.99176 368.478899 
L 430.3179 369.362612 
L 431.64404 369.89284 
L 432.97018 259.209013 
L 434.29632 192.798717 
L 435.62246 133.363957 
L 436.9486 97.703102 
L 438.27474 76.306588 
L 439.60088 73.915924 
L 440.92702 192.624827 
L 442.25316 263.850169 
L 443.5793 306.585374 
L 444.90544 332.226497 
L 446.23158 347.611171 
L 447.55772 356.841975 
L 448.88386 362.380458 
L 450.21 365.703547 
L 451.53614 367.697401 
L 452.86228 368.893713 
L 454.18842 369.611501 
L 455.51456 370.042173 
L 458.16684 370.455619 
L 462.14526 370.637948 
L 464.79754 370.670098 
L 466.12368 340.641506 
L 467.44982 322.624351 
L 468.77596 211.259338 
L 470.1021 145.746235 
L 471.42824 105.132469 
L 472.75438 80.764208 
L 474.08052 66.143252 
L 475.40666 110.912802 
L 476.7328 214.822954 
L 478.05894 277.169045 
L 479.38508 314.5767 
L 480.71122 337.021293 
L 482.03736 350.488048 
L 483.3635 358.568102 
L 484.68964 363.416134 
L 486.01578 366.324953 
L 487.34192 368.070245 
L 488.66806 369.117419 
L 489.9942 369.745724 
L 491.32034 370.122707 
L 493.97262 370.484611 
L 497.95104 370.644211 
L 499.27718 331.484635 
L 500.60332 216.575509 
L 501.92946 147.630032 
L 503.2556 107.568652 
L 504.58174 82.225919 
L 505.90788 67.020278 
L 507.23402 57.896894 
L 508.56016 112.494515 
L 509.8863 215.771982 
L 511.21244 277.738462 
L 512.53858 314.91835 
L 513.86472 337.226283 
L 515.19086 350.611042 
L 516.517 358.641898 
L 517.84314 363.460412 
L 519.16928 366.35152 
L 520.49542 368.086185 
L 521.82156 369.126983 
L 523.1477 369.751463 
L 524.47384 370.12615 
L 527.12612 370.485851 
L 531.10454 370.644478 
L 533.75682 370.672449 
L 535.08296 336.7252 
L 536.4091 219.719847 
L 537.73524 149.516636 
L 539.06138 108.700614 
L 540.38752 82.905096 
L 541.71366 67.427785 
L 543.0398 115.601238 
L 544.36594 144.50531 
L 545.69208 234.978459 
L 547.01822 289.262348 
L 548.34436 321.832682 
L 549.6705 341.374882 
L 550.99664 353.100202 
L 552.32278 360.135394 
L 553.64892 364.356509 
L 554.97506 366.889178 
L 556.3012 368.40878 
L 557.62734 369.32054 
L 558.95348 369.867597 
L 560.27962 370.195831 
L 562.9319 370.510936 
L 565.58418 370.624373 
L 566.91032 336.696355 
L 568.23646 219.70254 
L 569.5626 149.506251 
L 570.88874 108.694384 
L 572.21488 82.901357 
L 573.54102 67.425542 
L 574.86716 58.140052 
L 576.1933 183.159304 
L 577.51944 258.170855 
L 578.84558 303.177786 
L 580.17172 330.181944 
L 581.49786 346.384439 
L 582.824 356.105936 
L 584.15014 361.938834 
L 585.47628 365.438573 
L 586.80242 367.538417 
L 588.12856 368.798323 
L 589.4547 369.554266 
L 590.78084 370.007833 
L 593.43312 370.443256 
L 597.41154 370.635278 
L 601.38996 370.676755 
L 602.7161 250.538024 
L 604.04224 168.007541 
L 605.36838 119.795158 
L 606.69452 89.561822 
L 608.02066 71.42182 
L 609.3468 60.537819 
L 610.67294 72.290095 
L 611.99908 191.64933 
L 613.32522 263.264871 
L 614.65136 306.234195 
L 615.9775 332.01579 
L 617.30364 347.484747 
L 618.62978 356.766121 
L 619.95592 362.334945 
L 621.28206 365.67624 
L 622.6082 367.681017 
L 623.93434 368.883883 
L 625.26048 369.605602 
L 626.58662 370.038634 
L 629.2389 370.454345 
L 633.21732 370.637673 
L 634.54346 353.681106 
L 635.8696 343.507165 
L 637.19574 223.789026 
L 638.52188 153.264049 
L 639.84802 110.949062 
L 641.17416 84.254164 
L 642.5003 68.237226 
L 643.82644 99.110132 
L 645.15258 207.741352 
L 646.47872 272.920084 
L 647.80486 312.027323 
L 649.131 335.491667 
L 650.45714 349.570273 
L 651.78328 358.017436 
L 653.10942 363.085735 
L 654.43556 366.126713 
L 655.7617 367.951301 
L 657.08784 369.046053 
L 658.41398 369.702905 
L 659.74012 370.097016 
L 662.3924 370.475362 
L 666.37082 370.642213 
L 670.34924 370.678252 
L 673.00152 186.029576 
L 674.32766 130.608378 
L 675.6538 96.049754 
L 676.97994 75.31458 
L 678.30608 62.873475 
L 679.63222 55.408812 
L 680.95836 172.379222 
L 682.2845 251.702806 
L 683.61064 299.296956 
L 684.93678 327.853446 
L 686.26292 344.987341 
L 687.58906 355.267677 
L 688.9152 361.435879 
L 690.24134 365.1368 
L 691.56748 367.357353 
L 692.89362 368.689684 
L 694.21976 369.489083 
L 695.5459 369.968723 
L 696.87204 370.256506 
L 699.52432 370.532779 
L 703.50274 370.654615 
L 704.82888 370.668042 
L 706.15502 276.650905 
L 707.48116 220.240623 
L 708.8073 149.829101 
L 710.13344 108.888093 
L 711.45958 83.017583 
L 712.78572 67.495277 
L 714.11186 58.181894 
L 715.438 61.735202 
L 716.76414 54.725848 
L 718.09028 57.049763 
L 719.41642 58.444113 
L 720.74256 52.751195 
L 722.0687 49.335444 
L 723.39484 47.285994 
L 724.72098 60.421284 
L 726.04712 53.937497 
L 727.37326 56.576753 
L 728.6994 58.160306 
L 730.02554 52.580911 
L 731.35168 55.762801 
L 732.67782 57.671935 
L 734.00396 52.287888 
L 735.3301 56.892893 
L 736.65624 51.820463 
L 737.98238 55.306532 
L 739.30852 50.868647 
L 740.63466 48.205915 
L 741.9608 59.667331 
L 743.28694 53.485126 
L 744.61308 51.081708 
L 745.93922 48.333752 
L 747.26536 46.684979 
L 748.5915 45.695714 
L 749.91764 45.102156 
L 751.24378 53.887359 
L 752.56992 59.158481 
L 753.89606 183.770361 
L 755.2222 258.537489 
L 756.54834 303.397766 
L 757.87448 330.313933 
L 759.20062 346.463632 
L 760.52676 356.153452 
L 761.8529 361.967344 
L 763.17904 365.455679 
L 764.50518 367.54868 
L 765.83132 368.804481 
L 767.15746 369.557961 
L 768.4836 370.010049 
L 771.13588 370.444054 
L 775.1143 370.63545 
L 777.76658 370.669198 
L 779.09272 242.698057 
L 780.41886 163.303562 
L 781.745 116.97277 
L 783.07114 87.868389 
L 784.39728 70.405761 
L 785.72342 83.434482 
L 787.04956 198.335962 
L 788.3757 267.27685 
L 789.70184 308.641383 
L 791.02798 333.460102 
L 792.35412 348.351334 
L 793.68026 357.286073 
L 795.0064 362.646917 
L 796.33254 365.863423 
L 797.65868 367.793326 
L 798.98482 368.951269 
L 800.31096 369.646034 
L 801.6371 370.062893 
L 804.28938 370.463078 
L 808.2678 370.639559 
L 810.92008 370.670678 
L 812.24622 322.359178 
L 813.57236 211.100234 
L 814.8985 145.650773 
L 816.22464 106.381097 
L 817.55078 81.513385 
L 818.87692 66.592758 
L 820.20306 125.547466 
L 821.5292 160.92029 
L 822.85534 244.827447 
L 824.18148 295.171741 
L 825.50762 325.378317 
L 826.83376 343.502263 
L 828.1599 354.376631 
L 829.48604 360.901251 
L 830.81218 364.816023 
L 832.13832 367.164887 
L 833.46446 368.574205 
L 834.7906 369.419796 
L 836.11674 369.92715 
L 837.44288 370.231563 
L 840.09516 370.523799 
L 844.07358 370.652675 
L 846.72586 370.675399 
L 846.72586 370.675399 
" clip-path="url(#p5007269f45)" style="fill: none; stroke: #4e79a7; stroke-width: 2; stroke-linecap: round"/>
   </g>
   <g id="patch_3">
    <path d="M 52.368 387.012 
L 52.368 27.888 
" style="fill: none; stroke: #cccccc; stroke-linejoin: miter; stroke-linecap: square"/>
   </g>
   <g id="patch_4">
    <path d="M 848.052 387.012 
L 848.052 27.888 
" style="fill: none; stroke: #cccccc; stroke-linejoin: miter; stroke-linecap: square"/>
   </g>
   <g id="patch_5">
    <path d="M 52.368 387.012 
L 848.052 387.012 
" style="fill: none; stroke: #cccccc; stroke-linejoin: miter; stroke-linecap: square"/>
   </g>
   <g id="patch_6">
    <path d="M 52.368 27.888 
L 848.052 27.888 
" style="fill: none; stroke: #cccccc; stroke-linejoin: miter; stroke-linecap: square"/>
   </g>
   <g id="text_16">
    <!-- GPU Utilization over One Minute (smoothing=0.6) -->
    <g style="fill: #262626" transform="translate(251.085 21.888) scale(0.16 -0.16)">
     <defs>
      <path id="DejaVuSans-76" d="M 191 3500 
L 800 3500 
L 1894 563 
L 2988 3500 
L 3597 3500 
L 2284 0 
L 1503 0 
L 191 3500 
z
" transform="scale(0.015625)"/>
      <path id="DejaVuSans-72" d="M 2631 2963 
Q 2534 3019 2420 3045 
Q 2306 3072 2169 3072 
Q 1681 3072 1420 2755 
Q 1159 2438 1159 1844 
L 1159 0 
L 581 0 
L 581 3500 
L 1159 3500 
L 1159 2956 
Q 1341 3275 1631 3429 
Q 1922 3584 2338 3584 
Q 2397 3584 2469 3576 
Q 2541 3569 2628 3553 
L 2631 2963 
z
" transform="scale(0.015625)"/>
      <path id="DejaVuSans-4f" d="M 2522 4238 
Q 1834 4238 1429 3725 
Q 1025 3213 1025 2328 
Q 1025 1447 1429 934 
Q 1834 422 2522 422 
Q 3209 422 3611 934 
Q 4013 1447 4013 2328 
Q 4013 3213 3611 3725 
Q 3209 4238 2522 4238 
z
M 2522 4750 
Q 3503 4750 4090 4092 
Q 4678 3434 4678 2328 
Q 4678 1225 4090 567 
Q 3503 -91 2522 -91 
Q 1538 -91 948 565 
Q 359 1222 359 2328 
Q 359 3434 948 4092 
Q 1538 4750 2522 4750 
z
" transform="scale(0.015625)"/>
      <path id="DejaVuSans-4d" d="M 628 4666 
L 1569 4666 
L 2759 1491 
L 3956 4666 
L 4897 4666 
L 4897 0 
L 4281 0 
L 4281 4097 
L 3078 897 
L 2444 897 
L 1241 4097 
L 1241 0 
L 628 0 
L 628 4666 
z
" transform="scale(0.015625)"/>
      <path id="DejaVuSans-75" d="M 544 1381 
L 544 3500 
L 1119 3500 
L 1119 1403 
Q 1119 906 1312 657 
Q 1506 409 1894 409 
Q 2359 409 2629 706 
Q 2900 1003 2900 1516 
L 2900 3500 
L 3475 3500 
L 3475 0 
L 2900 0 
L 2900 538 
Q 2691 219 2414 64 
Q 2138 -91 1772 -91 
Q 1169 -91 856 284 
Q 544 659 544 1381 
z
M 1991 3584 
L 1991 3584 
z
" transform="scale(0.015625)"/>
      <path id="DejaVuSans-68" d="M 3513 2113 
L 3513 0 
L 2938 0 
L 2938 2094 
Q 2938 2591 2744 2837 
Q 2550 3084 2163 3084 
Q 1697 3084 1428 2787 
Q 1159 2491 1159 1978 
L 1159 0 
L 581 0 
L 581 4863 
L 1159 4863 
L 1159 2956 
Q 1366 3272 1645 3428 
Q 1925 3584 2291 3584 
Q 2894 3584 3203 3211 
Q 3513 2838 3513 2113 
z
" transform="scale(0.015625)"/>
      <path id="DejaVuSans-67" d="M 2906 1791 
Q 2906 2416 2648 2759 
Q 2391 3103 1925 3103 
Q 1463 3103 1205 2759 
Q 947 2416 947 1791 
Q 947 1169 1205 825 
Q 1463 481 1925 481 
Q 2391 481 2648 825 
Q 2906 1169 2906 1791 
z
M 3481 434 
Q 3481 -459 3084 -895 
Q 2688 -1331 1869 -1331 
Q 1566 -1331 1297 -1286 
Q 1028 -1241 775 -1147 
L 775 -588 
Q 1028 -725 1275 -790 
Q 1522 -856 1778 -856 
Q 2344 -856 2625 -561 
Q 2906 -266 2906 331 
L 2906 616 
Q 2728 306 2450 153 
Q 2172 0 1784 0 
Q 1141 0 747 490 
Q 353 981 353 1791 
Q 353 2603 747 3093 
Q 1141 3584 1784 3584 
Q 2172 3584 2450 3431 
Q 2728 3278 2906 2969 
L 2906 3500 
L 3481 3500 
L 3481 434 
z
" transform="scale(0.015625)"/>
      <path id="DejaVuSans-3d" d="M 678 2906 
L 4684 2906 
L 4684 2381 
L 678 2381 
L 678 2906 
z
M 678 1631 
L 4684 1631 
L 4684 1100 
L 678 1100 
L 678 1631 
z
" transform="scale(0.015625)"/>
      <path id="DejaVuSans-2e" d="M 684 794 
L 1344 794 
L 1344 0 
L 684 0 
L 684 794 
z
" transform="scale(0.015625)"/>
     </defs>
     <use xlink:href="#DejaVuSans-47"/>
     <use xlink:href="#DejaVuSans-50" x="77.490234"/>
     <use xlink:href="#DejaVuSans-55" x="137.792969"/>
     <use xlink:href="#DejaVuSans-20" x="210.986328"/>
     <use xlink:href="#DejaVuSans-55" x="242.773438"/>
     <use xlink:href="#DejaVuSans-74" x="315.966797"/>
     <use xlink:href="#DejaVuSans-69" x="355.175781"/>
     <use xlink:href="#DejaVuSans-6c" x="382.958984"/>
     <use xlink:href="#DejaVuSans-69" x="410.742188"/>
     <use xlink:href="#DejaVuSans-7a" x="438.525391"/>
     <use xlink:href="#DejaVuSans-61" x="491.015625"/>
     <use xlink:href="#DejaVuSans-74" x="552.294922"/>
     <use xlink:href="#DejaVuSans-69" x="591.503906"/>
     <use xlink:href="#DejaVuSans-6f" x="619.287109"/>
     <use xlink:href="#DejaVuSans-6e" x="680.46875"/>
     <use xlink:href="#DejaVuSans-20" x="743.847656"/>
     <use xlink:href="#DejaVuSans-6f" x="775.634766"/>
     <use xlink:href="#DejaVuSans-76" x="836.816406"/>
     <use xlink:href="#DejaVuSans-65" x="895.996094"/>
     <use xlink:href="#DejaVuSans-72" x="957.519531"/>
     <use xlink:href="#DejaVuSans-20" x="998.632812"/>
     <use xlink:href="#DejaVuSans-4f" x="1030.419922"/>
     <use xlink:href="#DejaVuSans-6e" x="1109.130859"/>
     <use xlink:href="#DejaVuSans-65" x="1172.509766"/>
     <use xlink:href="#DejaVuSans-20" x="1234.033203"/>
     <use xlink:href="#DejaVuSans-4d" x="1265.820312"/>
     <use xlink:href="#DejaVuSans-69" x="1352.099609"/>
     <use xlink:href="#DejaVuSans-6e" x="1379.882812"/>
     <use xlink:href="#DejaVuSans-75" x="1443.261719"/>
     <use xlink:href="#DejaVuSans-74" x="1506.640625"/>
     <use xlink:href="#DejaVuSans-65" x="1545.849609"/>
     <use xlink:href="#DejaVuSans-20" x="1607.373047"/>
     <use xlink:href="#DejaVuSans-28" x="1639.160156"/>
     <use xlink:href="#DejaVuSans-73" x="1678.173828"/>
     <use xlink:href="#DejaVuSans-6d" x="1730.273438"/>
     <use xlink:href="#DejaVuSans-6f" x="1827.685547"/>
     <use xlink:href="#DejaVuSans-6f" x="1888.867188"/>
     <use xlink:href="#DejaVuSans-74" x="1950.048828"/>
     <use xlink:href="#DejaVuSans-68" x="1989.257812"/>
     <use xlink:href="#DejaVuSans-69" x="2052.636719"/>
     <use xlink:href="#DejaVuSans-6e" x="2080.419922"/>
     <use xlink:href="#DejaVuSans-67" x="2143.798828"/>
     <use xlink:href="#DejaVuSans-3d" x="2207.275391"/>
     <use xlink:href="#DejaVuSans-30" x="2291.064453"/>
     <use xlink:href="#DejaVuSans-2e" x="2354.6875"/>
     <use xlink:href="#DejaVuSans-36" x="2386.474609"/>
     <use xlink:href="#DejaVuSans-29" x="2450.097656"/>
    </g>
   </g>
   <g id="legend_1">
    <g id="patch_7">
     <path d="M 58.528 60.7615 
L 131.643625 60.7615 
Q 133.403625 60.7615 133.403625 59.0015 
L 133.403625 34.048 
Q 133.403625 32.288 131.643625 32.288 
L 58.528 32.288 
Q 56.768 32.288 56.768 34.048 
L 56.768 59.0015 
Q 56.768 60.7615 58.528 60.7615 
z
" style="fill: #ffffff; opacity: 0.8; stroke: #cccccc; stroke-width: 0.8; stroke-linejoin: miter"/>
    </g>
    <g id="line2d_16">
     <path d="M 60.288 39.414625 
L 69.088 39.414625 
L 77.888 39.414625 
" style="fill: none; stroke: #4e79a7; stroke-opacity: 0.3; stroke-width: 1.2; stroke-linecap: round"/>
    </g>
    <g id="text_17">
     <!-- Raw -->
     <g style="fill: #262626" transform="translate(84.928 42.494625) scale(0.088 -0.088)">
      <defs>
       <path id="DejaVuSans-52" d="M 2841 2188 
Q 3044 2119 3236 1894 
Q 3428 1669 3622 1275 
L 4263 0 
L 3584 0 
L 2988 1197 
Q 2756 1666 2539 1819 
Q 2322 1972 1947 1972 
L 1259 1972 
L 1259 0 
L 628 0 
L 628 4666 
L 2053 4666 
Q 2853 4666 3247 4331 
Q 3641 3997 3641 3322 
Q 3641 2881 3436 2590 
Q 3231 2300 2841 2188 
z
M 1259 4147 
L 1259 2491 
L 2053 2491 
Q 2509 2491 2742 2702 
Q 2975 2913 2975 3322 
Q 2975 3731 2742 3939 
Q 2509 4147 2053 4147 
L 1259 4147 
z
" transform="scale(0.015625)"/>
       <path id="DejaVuSans-77" d="M 269 3500 
L 844 3500 
L 1563 769 
L 2278 3500 
L 2956 3500 
L 3675 769 
L 4391 3500 
L 4966 3500 
L 4050 0 
L 3372 0 
L 2619 2869 
L 1863 0 
L 1184 0 
L 269 3500 
z
" transform="scale(0.015625)"/>
      </defs>
      <use xlink:href="#DejaVuSans-52"/>
      <use xlink:href="#DejaVuSans-61" x="67.232422"/>
      <use xlink:href="#DejaVuSans-77" x="128.511719"/>
     </g>
    </g>
    <g id="line2d_17">
     <path d="M 60.288 52.331375 
L 69.088 52.331375 
L 77.888 52.331375 
" style="fill: none; stroke: #4e79a7; stroke-width: 2; stroke-linecap: round"/>
    </g>
    <g id="text_18">
     <!-- Smoothed -->
     <g style="fill: #262626" transform="translate(84.928 55.411375) scale(0.088 -0.088)">
      <defs>
       <path id="DejaVuSans-53" d="M 3425 4513 
L 3425 3897 
Q 3066 4069 2747 4153 
Q 2428 4238 2131 4238 
Q 1616 4238 1336 4038 
Q 1056 3838 1056 3469 
Q 1056 3159 1242 3001 
Q 1428 2844 1947 2747 
L 2328 2669 
Q 3034 2534 3370 2195 
Q 3706 1856 3706 1288 
Q 3706 609 3251 259 
Q 2797 -91 1919 -91 
Q 1588 -91 1214 -16 
Q 841 59 441 206 
L 441 856 
Q 825 641 1194 531 
Q 1563 422 1919 422 
Q 2459 422 2753 634 
Q 3047 847 3047 1241 
Q 3047 1584 2836 1778 
Q 2625 1972 2144 2069 
L 1759 2144 
Q 1053 2284 737 2584 
Q 422 2884 422 3419 
Q 422 4038 858 4394 
Q 1294 4750 2059 4750 
Q 2388 4750 2728 4690 
Q 3069 4631 3425 4513 
z
" transform="scale(0.015625)"/>
      </defs>
      <use xlink:href="#DejaVuSans-53"/>
      <use xlink:href="#DejaVuSans-6d" x="63.476562"/>
      <use xlink:href="#DejaVuSans-6f" x="160.888672"/>
      <use xlink:href="#DejaVuSans-6f" x="222.070312"/>
      <use xlink:href="#DejaVuSans-74" x="283.251953"/>
      <use xlink:href="#DejaVuSans-68" x="322.460938"/>
      <use xlink:href="#DejaVuSans-65" x="385.839844"/>
      <use xlink:href="#DejaVuSans-64" x="447.363281"/>
     </g>
    </g>
   </g>
  </g>
 </g>
 <defs>
  <clipPath id="p5007269f45">
   <rect x="52.368" y="27.888" width="795.684" height="359.124"/>
  </clipPath>
 </defs>
</svg>
